G75*
%MOIN*%
%OFA0B0*%
%FSLAX24Y24*%
%IPPOS*%
%LPD*%
%AMOC8*
5,1,8,0,0,1.08239X$1,22.5*
%
%ADD10C,0.0000*%
D10*
X005630Y001046D02*
X031435Y001046D01*
X031435Y001047D02*
X031570Y001048D01*
X031705Y001053D01*
X031840Y001062D01*
X031974Y001075D01*
X032108Y001091D01*
X032242Y001111D01*
X032375Y001136D01*
X032507Y001163D01*
X032638Y001195D01*
X032769Y001231D01*
X032898Y001270D01*
X033026Y001312D01*
X033153Y001359D01*
X033278Y001409D01*
X033402Y001462D01*
X033525Y001520D01*
X033646Y001580D01*
X033765Y001644D01*
X033882Y001712D01*
X033997Y001782D01*
X034110Y001856D01*
X034221Y001933D01*
X034329Y002014D01*
X034436Y002097D01*
X034539Y002183D01*
X034641Y002273D01*
X034740Y002365D01*
X034836Y002460D01*
X034929Y002557D01*
X035020Y002658D01*
X035107Y002760D01*
X035192Y002866D01*
X035274Y002973D01*
X035352Y003083D01*
X035427Y003195D01*
X035499Y003310D01*
X035568Y003426D01*
X035634Y003544D01*
X035696Y003664D01*
X035754Y003786D01*
X035810Y003909D01*
X035861Y004034D01*
X035909Y004160D01*
X035953Y004288D01*
X035994Y004417D01*
X036031Y004546D01*
X036064Y004677D01*
X036094Y004809D01*
X036120Y004942D01*
X036142Y005075D01*
X036160Y005209D01*
X036174Y005343D01*
X036185Y005478D01*
X036191Y005613D01*
X036194Y005748D01*
X036194Y018019D01*
X036191Y018156D01*
X036184Y018293D01*
X036173Y018429D01*
X036159Y018566D01*
X036140Y018701D01*
X036117Y018836D01*
X036091Y018971D01*
X036060Y019104D01*
X036026Y019237D01*
X035988Y019369D01*
X035946Y019499D01*
X035900Y019628D01*
X035850Y019756D01*
X035797Y019882D01*
X035740Y020007D01*
X035680Y020130D01*
X035616Y020251D01*
X035548Y020370D01*
X035477Y020487D01*
X035403Y020602D01*
X035325Y020715D01*
X035245Y020826D01*
X035161Y020934D01*
X035073Y021040D01*
X034983Y021143D01*
X034890Y021243D01*
X034794Y021341D01*
X034695Y021436D01*
X034593Y021528D01*
X034489Y021617D01*
X034382Y021703D01*
X034273Y021785D01*
X034162Y021865D01*
X034048Y021941D01*
X033932Y022014D01*
X033814Y022083D01*
X033694Y022149D01*
X033572Y022212D01*
X033448Y022271D01*
X033323Y022326D01*
X033196Y022378D01*
X033068Y022426D01*
X032938Y022470D01*
X032807Y022510D01*
X032675Y022547D01*
X032542Y022580D01*
X032408Y022608D01*
X032273Y022633D01*
X032138Y022654D01*
X032002Y022671D01*
X031866Y022685D01*
X031729Y022694D01*
X031592Y022699D01*
X031455Y022700D01*
X005498Y022700D01*
X000801Y018123D02*
X000801Y005692D01*
X000805Y005557D01*
X000814Y005422D01*
X000826Y005287D01*
X000842Y005153D01*
X000862Y005019D01*
X000886Y004886D01*
X000913Y004754D01*
X000945Y004622D01*
X000980Y004491D01*
X001019Y004362D01*
X001061Y004233D01*
X001107Y004106D01*
X001157Y003980D01*
X001210Y003856D01*
X001267Y003733D01*
X001327Y003612D01*
X001391Y003492D01*
X001458Y003375D01*
X001529Y003259D01*
X001602Y003146D01*
X001679Y003035D01*
X001759Y002926D01*
X001843Y002819D01*
X001929Y002714D01*
X002018Y002613D01*
X002110Y002513D01*
X002205Y002417D01*
X002302Y002323D01*
X002402Y002232D01*
X002505Y002144D01*
X002610Y002059D01*
X002718Y001977D01*
X002828Y001898D01*
X002940Y001822D01*
X003054Y001749D01*
X003170Y001680D01*
X003288Y001614D01*
X003408Y001552D01*
X003530Y001493D01*
X003653Y001437D01*
X003778Y001385D01*
X003905Y001336D01*
X004032Y001292D01*
X004161Y001250D01*
X004291Y001213D01*
X004422Y001179D01*
X004554Y001149D01*
X004687Y001123D01*
X004820Y001101D01*
X004954Y001082D01*
X005089Y001067D01*
X005224Y001056D01*
X005359Y001049D01*
X005494Y001046D01*
X005630Y001047D01*
X000800Y018123D02*
X000804Y018258D01*
X000812Y018393D01*
X000823Y018527D01*
X000839Y018661D01*
X000858Y018795D01*
X000881Y018928D01*
X000908Y019060D01*
X000939Y019191D01*
X000974Y019321D01*
X001012Y019451D01*
X001055Y019579D01*
X001101Y019705D01*
X001150Y019831D01*
X001203Y019955D01*
X001260Y020077D01*
X001321Y020198D01*
X001384Y020317D01*
X001452Y020434D01*
X001522Y020548D01*
X001596Y020661D01*
X001673Y020772D01*
X001754Y020880D01*
X001837Y020986D01*
X001924Y021090D01*
X002013Y021190D01*
X002106Y021289D01*
X002201Y021384D01*
X002299Y021477D01*
X002400Y021567D01*
X002503Y021654D01*
X002608Y021737D01*
X002717Y021818D01*
X002827Y021896D01*
X002940Y021970D01*
X003054Y022041D01*
X003171Y022109D01*
X003290Y022173D01*
X003410Y022233D01*
X003532Y022291D01*
X003656Y022344D01*
X003781Y022394D01*
X003908Y022441D01*
X004036Y022483D01*
X004165Y022522D01*
X004295Y022557D01*
X004426Y022589D01*
X004558Y022616D01*
X004691Y022640D01*
X004825Y022659D01*
X004959Y022675D01*
X005093Y022687D01*
X005228Y022695D01*
X005362Y022699D01*
X005497Y022700D01*
M02*
