G75*
%MOIN*%
%OFA0B0*%
%FSLAX24Y24*%
%IPPOS*%
%LPD*%
%AMOC8*
5,1,8,0,0,1.08239X$1,22.5*
%
%ADD10C,0.0030*%
%ADD11C,0.2100*%
%ADD12C,0.0480*%
%ADD13R,0.0600X0.0600*%
%ADD14OC8,0.0600*%
%ADD15R,0.0528X0.0591*%
%ADD16C,0.0480*%
%ADD17R,0.0433X0.0394*%
%ADD18OC8,0.0337*%
%ADD19R,0.0591X0.0512*%
%ADD20R,0.0394X0.0433*%
%ADD21R,0.0551X0.0394*%
%ADD22R,0.0512X0.0591*%
%ADD23R,0.0460X0.0630*%
%ADD24C,0.0258*%
%ADD25C,0.0160*%
%ADD26C,0.0050*%
%ADD27C,0.0660*%
%ADD28C,0.0100*%
D10*
X032200Y022140D02*
X032200Y022510D01*
X032015Y022325D01*
X032262Y022325D01*
D11*
X034303Y020178D03*
X034303Y003572D03*
X002697Y003572D03*
X002697Y020178D03*
D12*
X022010Y020375D02*
X022490Y020375D01*
X022010Y020375D01*
X022010Y019375D02*
X022490Y019375D01*
X022010Y019375D01*
X022010Y018375D02*
X022490Y018375D01*
X022010Y018375D01*
X022010Y017375D02*
X022490Y017375D01*
X022010Y017375D01*
X022010Y016375D02*
X022490Y016375D01*
X022010Y016375D01*
X022010Y015375D02*
X022490Y015375D01*
X022010Y015375D01*
X022010Y014375D02*
X022490Y014375D01*
X022010Y014375D01*
X022010Y013375D02*
X022490Y013375D01*
X022010Y013375D01*
X022010Y012375D02*
X022490Y012375D01*
X022010Y012375D01*
X022010Y011375D02*
X022490Y011375D01*
X022010Y011375D01*
X022010Y010375D02*
X022490Y010375D01*
X022010Y010375D01*
X022010Y009375D02*
X022490Y009375D01*
X022010Y009375D01*
X022010Y008375D02*
X022490Y008375D01*
X022010Y008375D01*
X022010Y007375D02*
X022490Y007375D01*
X022010Y007375D01*
X022010Y006375D02*
X022490Y006375D01*
X022010Y006375D01*
X022010Y005375D02*
X022490Y005375D01*
X022010Y005375D01*
X025010Y005375D02*
X025490Y005375D01*
X025490Y006375D02*
X025010Y006375D01*
X025010Y007375D02*
X025490Y007375D01*
X025490Y008375D02*
X025010Y008375D01*
X025010Y009375D02*
X025490Y009375D01*
X025490Y010375D02*
X025010Y010375D01*
X025010Y011375D02*
X025490Y011375D01*
X025490Y012375D02*
X025010Y012375D01*
X025010Y013375D02*
X025490Y013375D01*
X025490Y014375D02*
X025010Y014375D01*
X025010Y015375D02*
X025490Y015375D01*
X025490Y016375D02*
X025010Y016375D01*
X025010Y017375D02*
X025490Y017375D01*
X025490Y018375D02*
X025010Y018375D01*
X025010Y019375D02*
X025490Y019375D01*
X025490Y020375D02*
X025010Y020375D01*
X028010Y020375D02*
X028490Y020375D01*
X028490Y019375D02*
X028010Y019375D01*
X028010Y018375D02*
X028490Y018375D01*
X029260Y018375D02*
X029740Y018375D01*
X029740Y017375D02*
X029260Y017375D01*
X028490Y017375D02*
X028010Y017375D01*
X028010Y016375D02*
X028490Y016375D01*
X029260Y016375D02*
X029740Y016375D01*
X029740Y015375D02*
X029260Y015375D01*
X028490Y015375D02*
X028010Y015375D01*
X028010Y014375D02*
X028490Y014375D01*
X029260Y014375D02*
X029740Y014375D01*
X029740Y013375D02*
X029260Y013375D01*
X028490Y013375D02*
X028010Y013375D01*
X028010Y012375D02*
X028490Y012375D01*
X029260Y012375D02*
X029740Y012375D01*
X029740Y011375D02*
X029260Y011375D01*
X028490Y011375D02*
X028010Y011375D01*
X028010Y010375D02*
X028490Y010375D01*
X029260Y010375D02*
X029740Y010375D01*
X029740Y009375D02*
X029260Y009375D01*
X028490Y009375D02*
X028010Y009375D01*
X028010Y008375D02*
X028490Y008375D01*
X029260Y008375D02*
X029740Y008375D01*
X029740Y007375D02*
X029260Y007375D01*
X028490Y007375D02*
X028010Y007375D01*
X028010Y006375D02*
X028490Y006375D01*
X029260Y006375D02*
X029740Y006375D01*
X029740Y005375D02*
X029260Y005375D01*
X028490Y005375D02*
X028010Y005375D01*
X035260Y005375D02*
X035740Y005375D01*
X035740Y006375D02*
X035260Y006375D01*
X035260Y007375D02*
X035740Y007375D01*
X035740Y008375D02*
X035260Y008375D01*
X035260Y009375D02*
X035740Y009375D01*
X035740Y010375D02*
X035260Y010375D01*
X035260Y011375D02*
X035740Y011375D01*
X035740Y012375D02*
X035260Y012375D01*
X035260Y013375D02*
X035740Y013375D01*
X035740Y014375D02*
X035260Y014375D01*
X035260Y015375D02*
X035740Y015375D01*
X035740Y016375D02*
X035260Y016375D01*
X035260Y017375D02*
X035740Y017375D01*
X035740Y018375D02*
X035260Y018375D01*
D13*
X032500Y020125D03*
X021125Y021375D03*
X006000Y021188D03*
X006000Y022188D03*
X006000Y018750D03*
X006000Y017750D03*
X004313Y017375D03*
X003313Y017375D03*
X002313Y017375D03*
X001313Y017375D03*
X005500Y002875D03*
X032500Y002875D03*
D14*
X005500Y001875D03*
X004313Y006375D03*
X003313Y006375D03*
X002313Y006375D03*
X001313Y006375D03*
X001313Y007375D03*
X002313Y007375D03*
X003313Y007375D03*
X004313Y007375D03*
X004313Y008375D03*
X003313Y008375D03*
X002313Y008375D03*
X001313Y008375D03*
X001313Y009375D03*
X002313Y009375D03*
X003313Y009375D03*
X004313Y009375D03*
X004313Y010375D03*
X003313Y010375D03*
X002313Y010375D03*
X001313Y010375D03*
X001313Y011375D03*
X002313Y011375D03*
X003313Y011375D03*
X004313Y011375D03*
X004313Y012375D03*
X003313Y012375D03*
X002313Y012375D03*
X001313Y012375D03*
X001313Y013375D03*
X002313Y013375D03*
X003313Y013375D03*
X004313Y013375D03*
X004313Y014375D03*
X003313Y014375D03*
X002313Y014375D03*
X001313Y014375D03*
X001313Y015375D03*
X002313Y015375D03*
X003313Y015375D03*
X004313Y015375D03*
X004313Y016375D03*
X003313Y016375D03*
X002313Y016375D03*
X001313Y016375D03*
X007000Y017750D03*
X008000Y017750D03*
X009000Y017750D03*
X010000Y017750D03*
X011000Y017750D03*
X012000Y017750D03*
X013000Y017750D03*
X013000Y018750D03*
X012000Y018750D03*
X011000Y018750D03*
X010000Y018750D03*
X009000Y018750D03*
X008000Y018750D03*
X007000Y018750D03*
X007500Y020188D03*
X008500Y020063D03*
X009500Y020188D03*
X010500Y020063D03*
X011500Y020188D03*
X012500Y020063D03*
X012000Y021188D03*
X011000Y021188D03*
X010000Y021188D03*
X009000Y021188D03*
X008000Y021188D03*
X007000Y021188D03*
X007000Y022188D03*
X008000Y022188D03*
X009000Y022188D03*
X010000Y022188D03*
X011000Y022188D03*
X012000Y022188D03*
X013000Y022188D03*
X013000Y021188D03*
X020125Y021375D03*
X029500Y020125D03*
X030500Y020125D03*
X031500Y020125D03*
X031500Y002875D03*
X030500Y002875D03*
X029500Y002875D03*
X028500Y002875D03*
X027500Y002875D03*
X026500Y002875D03*
X025500Y002875D03*
X024500Y002875D03*
X023500Y002875D03*
X022500Y002875D03*
X021500Y002875D03*
X020500Y002875D03*
X019500Y002875D03*
X018500Y002875D03*
X017500Y002875D03*
X016500Y002875D03*
X015500Y002875D03*
X014500Y002875D03*
X013500Y002875D03*
X013500Y001875D03*
X014500Y001875D03*
X015500Y001875D03*
X016500Y001875D03*
X017500Y001875D03*
X018500Y001875D03*
X019500Y001875D03*
X020500Y001875D03*
X021500Y001875D03*
X022500Y001875D03*
X023500Y001875D03*
X024500Y001875D03*
X025500Y001875D03*
X026500Y001875D03*
X027500Y001875D03*
X028500Y001875D03*
X029500Y001875D03*
X030500Y001875D03*
X031500Y001875D03*
X032500Y001875D03*
D15*
X014603Y009546D03*
X013603Y009546D03*
X013603Y010589D03*
X014603Y010589D03*
X023334Y020848D03*
X024334Y020848D03*
X024334Y021892D03*
X023334Y021892D03*
D16*
X010388Y003375D03*
X008488Y003375D03*
D17*
X008478Y002063D03*
X009147Y002063D03*
X009790Y002063D03*
X010460Y002063D03*
X012625Y009103D03*
X012625Y009772D03*
X012625Y010353D03*
X012625Y011022D03*
X009710Y009875D03*
X009040Y009875D03*
X012813Y014478D03*
X012813Y015147D03*
X017728Y019063D03*
X018397Y019063D03*
X024250Y018772D03*
X024250Y018103D03*
X026353Y019313D03*
X027022Y019313D03*
X027978Y021000D03*
X028647Y021000D03*
X030750Y019210D03*
X030750Y018540D03*
X032500Y018540D03*
X032500Y019210D03*
X033978Y018313D03*
X034647Y018313D03*
D18*
X014250Y012250D03*
X014250Y011625D03*
X013563Y011625D03*
X011250Y011813D03*
X013125Y014000D03*
X007750Y014000D03*
X007750Y013375D03*
X013438Y007750D03*
X014063Y007750D03*
X013938Y006000D03*
X013250Y005500D03*
X012625Y005563D03*
X013250Y004875D03*
X006875Y006688D03*
X006875Y007313D03*
D19*
X011750Y009456D03*
X011750Y010125D03*
X011750Y010794D03*
X015500Y009044D03*
X015500Y008375D03*
X015500Y007706D03*
X023500Y017706D03*
X023500Y018375D03*
X023500Y019044D03*
D20*
X026353Y020000D03*
X027022Y020000D03*
X017375Y017710D03*
X017375Y017040D03*
X016000Y019728D03*
X016000Y020397D03*
X015688Y010960D03*
X015688Y010290D03*
X013460Y006313D03*
X012790Y006313D03*
D21*
X026192Y017876D03*
X027058Y018250D03*
X026192Y018624D03*
D22*
X017982Y021375D03*
X017313Y021375D03*
X016643Y021375D03*
X015482Y021375D03*
X014813Y021375D03*
X014143Y021375D03*
X013169Y008375D03*
X012500Y008375D03*
X011831Y008375D03*
D23*
X020825Y020375D03*
X021425Y020375D03*
D24*
X020625Y020375D03*
X019813Y019750D03*
X019813Y019313D03*
X019813Y018813D03*
X019750Y018375D03*
X019750Y017750D03*
X018688Y017625D03*
X019500Y016750D03*
X018563Y016000D03*
X018250Y015813D03*
X017938Y016000D03*
X017625Y015813D03*
X017250Y015938D03*
X016500Y015813D03*
X016125Y015563D03*
X015500Y015563D03*
X015125Y015875D03*
X015063Y016375D03*
X014500Y016750D03*
X014125Y017375D03*
X014000Y017750D03*
X014000Y018375D03*
X014250Y018750D03*
X015313Y019313D03*
X015563Y019625D03*
X016000Y019250D03*
X015500Y018875D03*
X016500Y019875D03*
X017063Y019875D03*
X017000Y020375D03*
X016375Y020500D03*
X016063Y021563D03*
X015625Y022000D03*
X014188Y020938D03*
X014000Y020375D03*
X013938Y020000D03*
X013875Y019625D03*
X013438Y019688D03*
X017375Y018438D03*
X018750Y019063D03*
X017938Y020438D03*
X019313Y020688D03*
X018000Y021813D03*
X017500Y021813D03*
X021563Y018813D03*
X022563Y018875D03*
X023750Y018375D03*
X023563Y017375D03*
X026250Y017375D03*
X026625Y016875D03*
X027125Y015875D03*
X026750Y015375D03*
X026250Y015688D03*
X026125Y014375D03*
X023313Y013063D03*
X021625Y013875D03*
X021063Y013063D03*
X020250Y013625D03*
X019938Y014125D03*
X020250Y014375D03*
X019688Y014438D03*
X019375Y014625D03*
X019000Y014625D03*
X018313Y014875D03*
X020188Y015750D03*
X017000Y017000D03*
X016563Y017063D03*
X014750Y015313D03*
X013625Y014625D03*
X014000Y014250D03*
X014375Y014250D03*
X014750Y014125D03*
X015125Y014000D03*
X015500Y013875D03*
X016125Y013625D03*
X016438Y013313D03*
X016375Y012875D03*
X016875Y012750D03*
X017125Y012250D03*
X015188Y010875D03*
X015625Y009875D03*
X017188Y009625D03*
X017688Y009375D03*
X018000Y009125D03*
X018250Y008813D03*
X018500Y008500D03*
X018875Y008375D03*
X019500Y008438D03*
X019625Y008813D03*
X019750Y009250D03*
X020125Y009250D03*
X020250Y009938D03*
X019875Y009938D03*
X020625Y009938D03*
X020688Y010625D03*
X019813Y011375D03*
X019313Y010875D03*
X018625Y010375D03*
X021188Y011625D03*
X019813Y012375D03*
X023250Y010875D03*
X022750Y009875D03*
X020063Y008500D03*
X019563Y007938D03*
X018875Y006938D03*
X018000Y006375D03*
X018500Y005875D03*
X019000Y005688D03*
X019938Y005688D03*
X020375Y005563D03*
X020625Y005188D03*
X021500Y004500D03*
X018313Y004813D03*
X017938Y005500D03*
X017250Y005938D03*
X016063Y005375D03*
X017000Y004875D03*
X016000Y004500D03*
X014563Y004250D03*
X014250Y003938D03*
X012750Y004563D03*
X012125Y004875D03*
X012313Y006000D03*
X011875Y006188D03*
X011750Y007688D03*
X011250Y008000D03*
X012375Y007688D03*
X013000Y007875D03*
X014500Y008813D03*
X015125Y008500D03*
X013063Y010000D03*
X012500Y011875D03*
X012188Y012313D03*
X011250Y012438D03*
X010563Y013875D03*
X010813Y014125D03*
X010313Y014125D03*
X010063Y013875D03*
X009813Y014125D03*
X009563Y013875D03*
X009313Y014125D03*
X009063Y013875D03*
X008813Y014125D03*
X008563Y013875D03*
X008813Y015375D03*
X009063Y015625D03*
X009313Y015375D03*
X009563Y015625D03*
X009813Y015375D03*
X010063Y015625D03*
X010313Y015375D03*
X010563Y015625D03*
X010813Y015375D03*
X011250Y015375D03*
X012188Y015875D03*
X013063Y015500D03*
X013313Y015125D03*
X012000Y013875D03*
X008563Y015625D03*
X006438Y012000D03*
X006063Y011625D03*
X006938Y011438D03*
X006500Y010875D03*
X007188Y010625D03*
X006438Y009875D03*
X006125Y010125D03*
X007188Y009125D03*
X006813Y008750D03*
X007188Y008563D03*
X006750Y008188D03*
X007063Y007813D03*
X006125Y007250D03*
X006188Y006750D03*
X005813Y006750D03*
X005563Y006250D03*
X005563Y005875D03*
X005313Y005625D03*
X005500Y005313D03*
X006063Y005125D03*
X006438Y005125D03*
X006000Y006188D03*
X008625Y009875D03*
X010125Y009875D03*
X015250Y006125D03*
X017688Y007375D03*
X026313Y012125D03*
X026625Y012375D03*
X031000Y013375D03*
X031250Y012375D03*
X032375Y011375D03*
X033000Y010375D03*
X033750Y009375D03*
X034000Y008375D03*
X033375Y007375D03*
X032875Y006375D03*
X031000Y005875D03*
X030688Y006875D03*
X031313Y004875D03*
X027125Y009375D03*
X033000Y017875D03*
X033438Y018313D03*
X031188Y019188D03*
X031000Y021125D03*
X030500Y021125D03*
X029000Y021000D03*
X028000Y021875D03*
X026625Y022375D03*
X024875Y021375D03*
X023813Y021375D03*
X022750Y021563D03*
X022875Y021938D03*
X023063Y020250D03*
X023500Y019813D03*
X025938Y018813D03*
X009438Y001563D03*
D25*
X015500Y008375D02*
X015375Y008500D01*
X015125Y008500D01*
X014603Y008916D02*
X014603Y009019D01*
X014603Y009546D01*
X014603Y009019D02*
X015474Y009019D01*
X014603Y008916D02*
X014500Y008813D01*
X013603Y009546D02*
X013142Y009546D01*
X013063Y009625D01*
X013063Y010000D01*
X012853Y010000D01*
X012625Y009772D01*
X012978Y010000D02*
X013063Y010000D01*
X013063Y010438D01*
X013214Y010589D01*
X013603Y010589D01*
X012978Y010000D02*
X012625Y010353D01*
X014603Y010589D02*
X014889Y010875D01*
X015188Y010875D01*
X015603Y010875D01*
X015688Y010960D01*
X015688Y010290D02*
X015688Y009938D01*
X015625Y009875D01*
X010125Y009875D02*
X009710Y009875D01*
X009040Y009875D02*
X008625Y009875D01*
X017000Y017000D02*
X017000Y017040D01*
X017375Y017040D01*
X017375Y017710D02*
X017375Y018438D01*
X017728Y018790D01*
X017728Y019063D01*
X018397Y019063D02*
X018750Y019063D01*
X016375Y020500D02*
X016272Y020397D01*
X016000Y020397D01*
X016000Y019728D02*
X016000Y019250D01*
X023334Y020848D02*
X023813Y021327D01*
X023813Y021375D01*
X024334Y020848D02*
X024723Y020848D01*
X024875Y021000D01*
X024875Y021375D01*
X024875Y021750D01*
X024733Y021892D01*
X024334Y021892D01*
X024875Y021563D02*
X024875Y021375D01*
X024875Y021188D01*
X028000Y021000D02*
X028000Y020625D01*
X028250Y020375D01*
X028647Y021000D02*
X029000Y021000D01*
X030750Y018540D02*
X032500Y018540D01*
X032790Y018540D01*
X033063Y018813D01*
X034438Y018813D01*
X034625Y018625D01*
X034625Y018397D01*
X034647Y018313D01*
X035500Y018375D01*
X033978Y018313D02*
X033438Y018313D01*
D26*
X033000Y017875D02*
X033000Y012375D01*
X035000Y010375D01*
X035500Y010375D01*
X033750Y009375D02*
X033625Y009250D01*
X033625Y008125D01*
X033750Y008000D01*
X033750Y005375D01*
X032000Y003625D01*
X032000Y002375D01*
X032500Y001875D01*
X031500Y001875D02*
X031000Y002375D01*
X031000Y003375D01*
X033250Y005625D01*
X033250Y006875D01*
X033000Y007125D01*
X033000Y010375D01*
X032375Y011375D02*
X032375Y005500D01*
X030000Y003125D01*
X030000Y002375D01*
X030500Y001875D01*
X029500Y001875D02*
X029000Y002375D01*
X029000Y003125D01*
X029313Y003438D01*
X029375Y003438D01*
X031375Y005438D01*
X031375Y012250D01*
X031250Y012375D01*
X031000Y013375D02*
X031000Y006375D01*
X030750Y006125D01*
X030750Y005313D01*
X028875Y003438D01*
X028250Y003438D01*
X028000Y003188D01*
X028000Y002375D01*
X028500Y001875D01*
X027500Y001875D02*
X027000Y002375D01*
X027000Y003188D01*
X027625Y003813D01*
X028750Y003813D01*
X030313Y005375D01*
X030313Y014063D01*
X030000Y014375D01*
X029500Y014375D01*
X027250Y015625D02*
X027125Y015750D01*
X027125Y015875D01*
X027000Y015875D01*
X027000Y015625D02*
X026625Y016000D01*
X026625Y016875D01*
X026750Y016750D01*
X026250Y017375D02*
X026250Y015688D01*
X026250Y015438D01*
X026500Y015188D01*
X026500Y013563D01*
X026063Y013125D01*
X026063Y011750D01*
X026125Y011688D01*
X026125Y005000D01*
X025875Y004750D01*
X025750Y004750D01*
X025125Y004125D01*
X024875Y004125D01*
X024375Y003625D01*
X024000Y003625D01*
X023500Y003125D01*
X023500Y002875D01*
X024000Y003250D02*
X024250Y003500D01*
X024625Y003500D01*
X025000Y003875D01*
X025250Y003875D01*
X025875Y004500D01*
X026125Y004500D01*
X026375Y004750D01*
X026375Y012063D01*
X026313Y012125D01*
X026313Y012813D01*
X026750Y013250D01*
X026750Y015375D01*
X027000Y015625D02*
X027000Y010125D01*
X026813Y009938D01*
X026813Y004313D01*
X026500Y004000D01*
X026125Y004000D01*
X025625Y003500D01*
X025250Y003500D01*
X025000Y003250D01*
X025000Y002375D01*
X025500Y001875D01*
X026000Y002375D02*
X026000Y003250D01*
X026250Y003500D01*
X026625Y003500D01*
X027313Y004188D01*
X027313Y008688D01*
X027500Y008875D01*
X027500Y009875D01*
X027250Y010125D01*
X027250Y015625D01*
X026125Y014375D02*
X025875Y014125D01*
X025875Y005125D01*
X025125Y004375D01*
X024750Y004375D01*
X024250Y003875D01*
X023625Y003875D01*
X023000Y003250D01*
X023000Y002375D01*
X023500Y001875D01*
X024000Y002375D02*
X024500Y001875D01*
X024000Y002375D02*
X024000Y003250D01*
X024500Y003000D02*
X025125Y003625D01*
X025375Y003625D01*
X026000Y004250D01*
X026250Y004250D01*
X026625Y004625D01*
X026625Y012375D01*
X027500Y010625D02*
X027500Y021438D01*
X026625Y022313D01*
X026625Y022375D01*
X023334Y021892D02*
X022921Y021892D01*
X022875Y021938D01*
X022750Y021625D02*
X022250Y022125D01*
X015750Y022125D01*
X015625Y022000D01*
X015919Y021875D02*
X015482Y021438D01*
X015482Y021375D01*
X016063Y021563D02*
X016063Y021000D01*
X016250Y020813D01*
X019188Y020813D01*
X019313Y020688D01*
X020625Y020375D02*
X020825Y020375D01*
X021425Y020375D02*
X022250Y020375D01*
X023063Y020250D02*
X023125Y020188D01*
X024438Y020188D01*
X024750Y019875D01*
X025750Y019875D01*
X025938Y019688D01*
X025938Y019500D01*
X026125Y019313D01*
X026353Y019313D01*
X025938Y018813D02*
X026126Y018624D01*
X026192Y018624D01*
X027058Y018250D02*
X027058Y019277D01*
X027022Y019313D01*
X027022Y020000D01*
X029500Y020125D02*
X029500Y019313D01*
X030250Y018563D01*
X030250Y018125D01*
X030000Y017875D01*
X029125Y017875D01*
X028625Y017375D01*
X028250Y017375D01*
X026378Y017875D02*
X026192Y017876D01*
X026378Y017875D02*
X024500Y017875D01*
X024272Y018103D01*
X024250Y018103D01*
X023750Y018375D02*
X023500Y018375D01*
X023000Y018188D02*
X022688Y017875D01*
X021938Y017875D01*
X021563Y018250D01*
X021563Y018813D01*
X021875Y018875D02*
X021625Y019125D01*
X020688Y019125D01*
X020563Y019000D01*
X019813Y019750D01*
X019813Y019313D02*
X020375Y018750D01*
X020375Y016000D01*
X020719Y015656D01*
X020719Y013406D01*
X020250Y012938D01*
X020250Y009938D01*
X020250Y009688D01*
X020500Y009438D01*
X020500Y005688D01*
X020375Y005563D01*
X020625Y005188D02*
X020625Y009938D01*
X020375Y010188D01*
X020375Y012813D01*
X020875Y013313D01*
X020875Y015750D01*
X020563Y016063D01*
X020563Y019000D01*
X020188Y018438D02*
X019813Y018813D01*
X019750Y018375D02*
X020000Y018125D01*
X020000Y016000D01*
X018438Y014438D01*
X018438Y011125D01*
X019500Y010063D01*
X019500Y008938D01*
X019625Y008813D01*
X019875Y009000D02*
X020063Y008813D01*
X020063Y008500D01*
X019563Y008375D02*
X019500Y008438D01*
X019375Y008563D01*
X019375Y010000D01*
X018313Y011063D01*
X018313Y014500D01*
X019750Y015938D01*
X019750Y017750D01*
X020188Y018438D02*
X020188Y015750D01*
X020563Y015375D01*
X020563Y013500D01*
X020125Y013063D01*
X020125Y010188D01*
X019875Y009938D01*
X019875Y009875D01*
X020375Y009375D01*
X020375Y006125D01*
X019938Y005688D01*
X019000Y005688D02*
X019000Y002375D01*
X019500Y001875D01*
X020000Y002375D02*
X020000Y003625D01*
X019688Y003938D01*
X019688Y007313D01*
X019250Y007750D01*
X019250Y009750D01*
X018625Y010375D01*
X019000Y010750D02*
X019000Y014625D01*
X019313Y014563D02*
X019375Y014625D01*
X019313Y014563D02*
X019313Y010875D01*
X019000Y010750D02*
X019625Y010125D01*
X019625Y009750D01*
X020125Y009250D01*
X019875Y009125D02*
X019875Y009000D01*
X019875Y009125D02*
X019750Y009250D01*
X019125Y009063D02*
X018188Y010000D01*
X018188Y014750D01*
X018313Y014875D01*
X018063Y015000D02*
X018063Y009938D01*
X018875Y009125D01*
X018875Y008375D01*
X018875Y006938D01*
X019125Y007375D02*
X019125Y009063D01*
X018563Y009250D02*
X018563Y008563D01*
X018500Y008500D01*
X018500Y005875D01*
X018000Y005438D02*
X017938Y005500D01*
X018000Y005438D02*
X018000Y002375D01*
X018500Y001875D01*
X017500Y001875D02*
X017000Y002375D01*
X017000Y004875D01*
X016500Y004938D02*
X016063Y005375D01*
X016500Y004938D02*
X016500Y002875D01*
X016000Y002375D02*
X016500Y001875D01*
X016000Y002375D02*
X016000Y004500D01*
X014688Y004375D02*
X014563Y004250D01*
X014688Y004375D02*
X014688Y005938D01*
X013938Y006688D01*
X011688Y006688D01*
X010875Y007500D01*
X010875Y012000D01*
X011250Y012375D01*
X011250Y012438D01*
X012188Y012313D02*
X012750Y012313D01*
X013750Y013313D01*
X016438Y013313D01*
X016813Y013188D02*
X016813Y014313D01*
X015813Y015313D01*
X015813Y016750D01*
X016938Y017875D01*
X016938Y019750D01*
X017063Y019875D01*
X016750Y020125D02*
X016750Y018063D01*
X015063Y016375D01*
X014750Y016500D02*
X014750Y015313D01*
X014500Y015188D02*
X015125Y014563D01*
X015125Y014000D01*
X014750Y014125D02*
X014750Y014688D01*
X014125Y015313D01*
X014125Y017375D01*
X013750Y017500D02*
X013750Y015438D01*
X014375Y014813D01*
X014375Y014250D01*
X014000Y014250D02*
X014000Y014938D01*
X013625Y015313D01*
X013625Y017750D01*
X013938Y018063D01*
X014125Y018063D01*
X014250Y018188D01*
X014250Y018750D01*
X014000Y018375D02*
X013813Y018563D01*
X013813Y019313D01*
X013438Y019688D01*
X013625Y019938D02*
X013625Y021875D01*
X013750Y022000D01*
X014438Y022000D01*
X014813Y021625D01*
X014813Y021375D01*
X014143Y021375D02*
X014143Y020982D01*
X014188Y020938D01*
X014000Y020375D02*
X014750Y019625D01*
X015563Y019625D01*
X015500Y018875D02*
X015063Y018875D01*
X013938Y020000D01*
X013875Y019688D02*
X013625Y019938D01*
X013875Y019688D02*
X013875Y019625D01*
X013500Y019125D02*
X013125Y019500D01*
X013125Y021063D01*
X013000Y021188D01*
X012500Y020938D02*
X012500Y021688D01*
X013000Y022188D01*
X012000Y022188D02*
X011500Y021688D01*
X011500Y020938D01*
X011938Y020500D01*
X011938Y018813D01*
X012000Y018750D01*
X011500Y018250D01*
X011500Y017125D01*
X010688Y016313D01*
X008125Y016313D01*
X007063Y015250D01*
X007063Y011563D01*
X006938Y011438D01*
X006750Y011250D02*
X006688Y011313D01*
X006688Y011563D01*
X006938Y011813D01*
X006938Y015313D01*
X008063Y016438D01*
X009313Y016438D01*
X010000Y017125D01*
X010000Y017750D01*
X010500Y018250D01*
X010500Y019063D01*
X010063Y019500D01*
X010063Y021125D01*
X010000Y021188D01*
X009500Y020938D02*
X009500Y021688D01*
X010000Y022188D01*
X009500Y020938D02*
X009938Y020500D01*
X009938Y018813D01*
X010000Y018750D01*
X009500Y018250D01*
X009500Y017125D01*
X008938Y016563D01*
X008000Y016563D01*
X006813Y015375D01*
X006813Y011875D01*
X006563Y011625D01*
X006563Y010938D01*
X006500Y010875D01*
X006250Y010750D02*
X006875Y010125D01*
X006875Y009688D01*
X006500Y009313D01*
X006500Y008625D01*
X006625Y008500D01*
X006875Y008500D01*
X007063Y008250D01*
X007063Y007813D01*
X006750Y008188D02*
X006375Y008563D01*
X006375Y009375D01*
X006750Y009750D01*
X006750Y010063D01*
X006125Y010688D01*
X006125Y011063D01*
X006313Y011250D01*
X006313Y011750D01*
X006188Y011875D01*
X006188Y016188D01*
X007000Y017000D01*
X007000Y017750D01*
X007000Y017875D01*
X007500Y018375D01*
X007500Y019250D01*
X007000Y019750D01*
X007000Y021188D01*
X007500Y020938D02*
X007500Y021688D01*
X008000Y022188D01*
X007000Y022188D02*
X006500Y021688D01*
X006500Y019375D01*
X007000Y018875D01*
X007000Y018750D01*
X007000Y018625D01*
X006500Y018125D01*
X006500Y017063D01*
X006063Y016625D01*
X006063Y011625D01*
X005938Y011875D02*
X005938Y017063D01*
X006000Y017125D01*
X006000Y017750D01*
X006000Y017875D01*
X006500Y018375D01*
X006500Y019063D01*
X006000Y019563D01*
X006000Y021188D01*
X005438Y021688D02*
X005938Y022188D01*
X006000Y022188D01*
X005438Y021688D02*
X005438Y019313D01*
X006000Y018750D01*
X005500Y018250D01*
X005500Y017063D01*
X005813Y016750D01*
X005813Y011938D01*
X005688Y011813D01*
X005688Y010563D01*
X006125Y010125D01*
X006438Y010188D02*
X006438Y009875D01*
X006438Y010188D02*
X005813Y010813D01*
X005813Y011750D01*
X005938Y011875D01*
X006438Y012000D02*
X006438Y016000D01*
X007500Y017063D01*
X007500Y018125D01*
X008000Y018625D01*
X008000Y018750D01*
X008000Y019188D01*
X007938Y019250D01*
X007938Y020563D01*
X007500Y020938D01*
X008000Y021188D02*
X008063Y021125D01*
X008063Y019688D01*
X008500Y019250D01*
X008500Y018250D01*
X008000Y017750D01*
X008000Y017000D01*
X006688Y015688D01*
X006688Y011938D01*
X006438Y011688D01*
X006438Y011188D01*
X006250Y011000D01*
X006250Y010750D01*
X006750Y010438D02*
X007000Y010188D01*
X007000Y009625D01*
X006750Y009375D01*
X006750Y008813D01*
X006813Y008750D01*
X006875Y009063D02*
X006875Y009313D01*
X007125Y009563D01*
X007125Y010250D01*
X006875Y010500D01*
X006875Y010875D01*
X007188Y011188D01*
X007188Y015188D01*
X008188Y016188D01*
X011063Y016188D01*
X012000Y017125D01*
X012000Y017750D01*
X012000Y017875D01*
X012438Y018313D01*
X012438Y019188D01*
X012063Y019563D01*
X012063Y021125D01*
X012000Y021188D01*
X012500Y020938D02*
X013000Y020438D01*
X013000Y018750D01*
X013000Y018625D01*
X012500Y018125D01*
X012500Y017125D01*
X011438Y016063D01*
X008250Y016063D01*
X007313Y015125D01*
X007313Y010875D01*
X007188Y010750D01*
X007188Y010625D01*
X006750Y010438D02*
X006750Y011250D01*
X005563Y010188D02*
X005563Y016125D01*
X004313Y017375D01*
X003813Y016875D01*
X002813Y016875D01*
X002313Y017375D01*
X002313Y016375D02*
X002813Y015875D01*
X003813Y015875D01*
X004313Y016375D01*
X005438Y015250D01*
X005438Y010125D01*
X006125Y009438D01*
X006125Y007250D01*
X005875Y007063D02*
X005875Y009500D01*
X005313Y010063D01*
X005313Y014375D01*
X004313Y015375D01*
X003813Y014875D01*
X002813Y014875D01*
X002313Y015375D01*
X002313Y014375D02*
X002813Y013875D01*
X003813Y013875D01*
X004313Y014375D01*
X005188Y013500D01*
X005188Y010000D01*
X005750Y009438D01*
X005750Y006813D01*
X005813Y006750D01*
X005563Y006625D02*
X005563Y009438D01*
X005063Y009938D01*
X005063Y012625D01*
X004313Y013375D01*
X003813Y012875D01*
X002813Y012875D01*
X002313Y013375D01*
X002313Y012375D02*
X002813Y011875D01*
X003813Y011875D01*
X004313Y012375D01*
X004938Y011750D01*
X004938Y009875D01*
X005438Y009375D01*
X005438Y006375D01*
X005563Y006250D01*
X005313Y006125D02*
X005313Y009313D01*
X004813Y009813D01*
X004813Y010875D01*
X004313Y011375D01*
X003813Y010875D01*
X002813Y010875D01*
X002313Y011375D01*
X002313Y010375D02*
X002813Y009875D01*
X003813Y009875D01*
X004313Y010375D01*
X004688Y010000D01*
X004688Y009750D01*
X005188Y009250D01*
X005188Y005750D01*
X005313Y005625D01*
X005063Y005500D02*
X005250Y005313D01*
X005500Y005313D01*
X005313Y005063D02*
X004938Y005438D01*
X004938Y007750D01*
X004313Y008375D01*
X003813Y007875D01*
X002813Y007875D01*
X002313Y008375D01*
X002813Y008875D02*
X003813Y008875D01*
X004313Y009375D01*
X005063Y008625D01*
X005063Y005500D01*
X005313Y005063D02*
X006000Y005063D01*
X006063Y005125D01*
X006438Y005125D02*
X006438Y007438D01*
X006250Y007625D01*
X006250Y009500D01*
X005563Y010188D01*
X006875Y009063D02*
X007188Y008750D01*
X007188Y008563D01*
X007188Y009125D02*
X007438Y009250D01*
X007438Y015063D01*
X008313Y015938D01*
X011813Y015938D01*
X013000Y017125D01*
X013000Y017750D01*
X013500Y018250D01*
X013500Y019125D01*
X015125Y018875D02*
X015500Y018875D01*
X016500Y018250D02*
X016500Y019875D01*
X016750Y020125D02*
X017000Y020375D01*
X017313Y021375D02*
X017313Y021625D01*
X017500Y021813D01*
X017982Y021794D02*
X017982Y021375D01*
X017982Y021794D02*
X018000Y021813D01*
X016643Y021544D02*
X016643Y021375D01*
X016643Y021544D02*
X016313Y021875D01*
X015919Y021875D01*
X016500Y018250D02*
X014750Y016500D01*
X014500Y016750D02*
X014500Y015188D01*
X015125Y015375D02*
X015500Y015000D01*
X015500Y013875D01*
X016125Y013625D02*
X016125Y014688D01*
X015500Y015313D01*
X015500Y015563D01*
X015125Y015375D02*
X015125Y015875D01*
X016125Y015563D02*
X016125Y015313D01*
X017000Y014438D01*
X017000Y012875D01*
X016875Y012750D01*
X016500Y012875D02*
X016375Y012875D01*
X013938Y012875D01*
X012938Y011875D01*
X012500Y011875D01*
X011813Y011625D02*
X011250Y011063D01*
X011250Y010313D01*
X011438Y010125D01*
X011750Y010125D01*
X011750Y010794D02*
X012081Y010794D01*
X012250Y010625D01*
X012250Y008813D01*
X012500Y008563D01*
X012500Y008375D01*
X012500Y008063D01*
X012688Y007875D01*
X012688Y007438D01*
X012875Y007250D01*
X014875Y007250D01*
X014875Y005938D01*
X015000Y005813D01*
X015000Y002375D01*
X015500Y001875D01*
X015500Y002875D02*
X015500Y005875D01*
X015250Y006125D01*
X015375Y007250D02*
X014875Y007250D01*
X015375Y007250D02*
X015500Y007375D01*
X015500Y007706D01*
X014063Y007750D02*
X014063Y008313D01*
X013500Y008875D01*
X012853Y008875D01*
X012625Y009103D01*
X013169Y008375D02*
X013169Y008044D01*
X013000Y007875D01*
X012375Y007688D02*
X012188Y007688D01*
X011831Y008044D01*
X011831Y008375D01*
X011250Y008000D02*
X011250Y009188D01*
X011518Y009456D01*
X011750Y009456D01*
X012625Y011022D02*
X012835Y011022D01*
X012938Y011125D01*
X014000Y011125D01*
X014250Y011375D01*
X014250Y011625D01*
X016500Y012875D02*
X016813Y013188D01*
X017188Y012313D02*
X017188Y014563D01*
X016500Y015250D01*
X016500Y015813D01*
X017250Y015938D02*
X017250Y014875D01*
X017438Y014688D01*
X017438Y009875D01*
X017188Y009625D01*
X017563Y009625D02*
X017563Y015750D01*
X017625Y015813D01*
X017938Y016000D02*
X017938Y015625D01*
X017688Y015375D01*
X017688Y009750D01*
X018000Y009438D01*
X018000Y009125D01*
X018000Y006375D01*
X017688Y007375D02*
X017688Y009375D01*
X017688Y009500D01*
X017563Y009625D01*
X017813Y009813D02*
X017813Y015250D01*
X018250Y015688D01*
X018250Y015813D01*
X018563Y015750D02*
X018563Y016000D01*
X018563Y015750D02*
X017938Y015125D01*
X017938Y009875D01*
X018563Y009250D01*
X018250Y009375D02*
X018250Y008813D01*
X018250Y004875D01*
X018313Y004813D01*
X020875Y004000D02*
X021000Y003875D01*
X021000Y002375D01*
X021500Y001875D01*
X020500Y001875D02*
X020000Y002375D01*
X019500Y002875D02*
X019500Y007000D01*
X019125Y007375D01*
X019563Y007938D02*
X019563Y008375D01*
X018250Y009375D02*
X017813Y009813D01*
X015500Y009044D02*
X015474Y009019D01*
X011813Y011625D02*
X011813Y013313D01*
X011688Y013438D01*
X011688Y015375D01*
X012188Y015875D01*
X013063Y015500D02*
X012813Y015147D01*
X013313Y015125D02*
X013625Y014813D01*
X013625Y014625D01*
X013125Y014000D02*
X012813Y014313D01*
X012813Y014478D01*
X010813Y014125D02*
X010813Y015375D01*
X010563Y015625D02*
X010563Y013875D01*
X010313Y014125D02*
X010313Y015375D01*
X010063Y015625D02*
X010063Y013875D01*
X009813Y014125D02*
X009813Y015375D01*
X009563Y015625D02*
X009563Y013875D01*
X009313Y014125D02*
X009313Y015375D01*
X009063Y015625D02*
X009063Y013875D01*
X008813Y014125D02*
X008813Y015375D01*
X008563Y015625D02*
X008563Y013875D01*
X013750Y017500D02*
X014000Y017750D01*
X018063Y015000D02*
X019500Y016438D01*
X019500Y016750D01*
X022250Y017375D02*
X022625Y017375D01*
X022875Y017125D01*
X022875Y011125D01*
X022813Y011063D01*
X022813Y010688D01*
X022875Y010625D01*
X022875Y010000D01*
X022750Y009875D01*
X023313Y010500D02*
X023313Y003813D01*
X022500Y003000D01*
X022500Y002875D01*
X022000Y003250D02*
X023188Y004438D01*
X023188Y010750D01*
X023250Y010813D01*
X023250Y010875D01*
X023063Y010625D02*
X022938Y010750D01*
X022938Y011000D01*
X023063Y011125D01*
X023063Y017500D01*
X022688Y017875D01*
X023000Y018188D02*
X023000Y018875D01*
X023169Y019044D01*
X023500Y019044D01*
X024250Y018772D02*
X024250Y019625D01*
X024063Y019813D01*
X023500Y019813D01*
X022563Y018875D02*
X021875Y018875D01*
X023500Y017706D02*
X023563Y017643D01*
X023563Y017375D01*
X025250Y017375D02*
X026250Y017375D01*
X030500Y019460D02*
X030500Y020125D01*
X030500Y019460D02*
X030750Y019210D01*
X030772Y019188D01*
X031188Y019188D01*
X032500Y019210D02*
X032500Y020125D01*
X022750Y021563D02*
X022750Y021625D01*
X020250Y014375D02*
X020250Y013625D01*
X019813Y014000D02*
X019938Y014125D01*
X019813Y014000D02*
X019813Y012375D01*
X020688Y012688D02*
X020688Y010625D01*
X020688Y010250D01*
X020875Y010063D01*
X020875Y004000D01*
X021500Y004500D02*
X022500Y004500D01*
X022875Y004875D01*
X022875Y008938D01*
X023063Y009125D01*
X023063Y010625D01*
X023313Y010500D02*
X023563Y010750D01*
X023563Y011000D01*
X023313Y011250D01*
X023313Y013063D01*
X021625Y013875D02*
X021625Y012063D01*
X021188Y011625D01*
X020688Y012688D02*
X021063Y013063D01*
X019688Y014438D02*
X019563Y014313D01*
X019563Y011625D01*
X019813Y011375D01*
X017188Y012313D02*
X017125Y012250D01*
X009040Y009875D02*
X009040Y009835D01*
X006188Y006750D02*
X005875Y007063D01*
X005563Y006625D02*
X006000Y006188D01*
X005563Y005875D02*
X005313Y006125D01*
X008488Y003425D02*
X008938Y003875D01*
X009563Y003875D01*
X011875Y006188D01*
X012313Y006000D02*
X012313Y005738D01*
X010388Y003813D01*
X010388Y003375D01*
X010460Y003303D01*
X010460Y002063D01*
X009790Y002063D02*
X009790Y001915D01*
X009438Y001563D01*
X009147Y001853D01*
X009147Y002063D01*
X008478Y002063D02*
X008478Y003365D01*
X008488Y003375D01*
X008488Y003425D01*
X012125Y004875D02*
X012438Y004875D01*
X012938Y005375D01*
X012938Y005813D01*
X012790Y005960D01*
X012790Y006313D01*
X013460Y006313D02*
X013625Y006313D01*
X013938Y006000D01*
X012750Y004563D02*
X013375Y003938D01*
X014250Y003938D01*
X022000Y003250D02*
X022000Y002375D01*
X022500Y001875D01*
X024500Y002875D02*
X024500Y003000D01*
X025500Y003000D02*
X026250Y003750D01*
X026625Y003750D01*
X027063Y004188D01*
X027063Y009313D01*
X027125Y009375D01*
X027750Y008375D02*
X027813Y008375D01*
X027563Y008125D01*
X027563Y004063D01*
X026500Y003000D01*
X026500Y002875D01*
X026000Y002375D02*
X026500Y001875D01*
X025500Y002875D02*
X025500Y003000D01*
X027500Y003000D02*
X028125Y003625D01*
X028813Y003625D01*
X030500Y005313D01*
X030500Y006688D01*
X030688Y006875D01*
X031000Y005875D02*
X031000Y005313D01*
X028563Y002875D01*
X028500Y002875D01*
X027500Y002875D02*
X027500Y003000D01*
X029500Y003063D02*
X029500Y002875D01*
X029500Y003063D02*
X031313Y004875D01*
X032875Y005563D02*
X032875Y006375D01*
X033500Y007250D02*
X033375Y007375D01*
X033500Y007250D02*
X033500Y005500D01*
X031500Y003500D01*
X031500Y002875D01*
X030500Y002875D02*
X030500Y003188D01*
X032875Y005563D01*
X034000Y005250D02*
X034000Y008375D01*
X034000Y005250D02*
X032500Y003750D01*
X032500Y002875D01*
X028500Y008375D02*
X027813Y008375D01*
X027750Y010375D02*
X027500Y010625D01*
X032835Y011915D02*
X032875Y011875D01*
X002813Y008875D02*
X002313Y009375D01*
D27*
X001313Y006375D02*
X004375Y006375D01*
D28*
X025250Y020375D02*
X026000Y020375D01*
X026353Y020022D01*
X026353Y020000D01*
X027978Y021000D02*
X028000Y021000D01*
M02*
