G75*
%MOIN*%
%OFA0B0*%
%FSLAX24Y24*%
%IPPOS*%
%LPD*%
%AMOC8*
5,1,8,0,0,1.08239X$1,22.5*
%
%ADD10C,0.0000*%
D10*
X005630Y000688D02*
X031435Y000688D01*
X031574Y000690D01*
X031714Y000696D01*
X031853Y000705D01*
X031992Y000719D01*
X032130Y000736D01*
X032268Y000757D01*
X032405Y000782D01*
X032542Y000810D01*
X032677Y000843D01*
X032812Y000879D01*
X032945Y000919D01*
X033078Y000962D01*
X033209Y001009D01*
X033339Y001060D01*
X033468Y001114D01*
X033594Y001172D01*
X033720Y001233D01*
X033843Y001298D01*
X033965Y001366D01*
X034085Y001437D01*
X034203Y001512D01*
X034318Y001590D01*
X034432Y001671D01*
X034543Y001755D01*
X034652Y001842D01*
X034758Y001932D01*
X034862Y002025D01*
X034963Y002121D01*
X035062Y002220D01*
X035158Y002321D01*
X035251Y002425D01*
X035341Y002531D01*
X035428Y002640D01*
X035512Y002751D01*
X035593Y002865D01*
X035671Y002980D01*
X035746Y003098D01*
X035817Y003218D01*
X035885Y003340D01*
X035950Y003463D01*
X036011Y003589D01*
X036069Y003715D01*
X036123Y003844D01*
X036174Y003974D01*
X036221Y004105D01*
X036264Y004238D01*
X036304Y004371D01*
X036340Y004506D01*
X036373Y004641D01*
X036401Y004778D01*
X036426Y004915D01*
X036447Y005053D01*
X036464Y005191D01*
X036478Y005330D01*
X036487Y005469D01*
X036493Y005609D01*
X036495Y005748D01*
X036495Y018019D01*
X036493Y018158D01*
X036487Y018297D01*
X036478Y018435D01*
X036464Y018573D01*
X036447Y018711D01*
X036426Y018849D01*
X036402Y018985D01*
X036373Y019121D01*
X036341Y019256D01*
X036305Y019390D01*
X036265Y019524D01*
X036222Y019655D01*
X036175Y019786D01*
X036125Y019916D01*
X036070Y020044D01*
X036013Y020170D01*
X035952Y020295D01*
X035888Y020418D01*
X035820Y020539D01*
X035749Y020658D01*
X035674Y020776D01*
X035597Y020891D01*
X035516Y021004D01*
X035432Y021115D01*
X035345Y021223D01*
X035256Y021329D01*
X035163Y021432D01*
X035068Y021533D01*
X034969Y021632D01*
X034868Y021727D01*
X034765Y021820D01*
X034659Y021909D01*
X034551Y021996D01*
X034440Y022080D01*
X034327Y022161D01*
X034212Y022238D01*
X034094Y022313D01*
X033975Y022384D01*
X033854Y022452D01*
X033731Y022516D01*
X033606Y022577D01*
X033480Y022634D01*
X033352Y022689D01*
X033222Y022739D01*
X033091Y022786D01*
X032960Y022829D01*
X032826Y022869D01*
X032692Y022905D01*
X032557Y022937D01*
X032421Y022966D01*
X032285Y022990D01*
X032147Y023011D01*
X032009Y023028D01*
X031871Y023042D01*
X031733Y023051D01*
X031594Y023057D01*
X031455Y023059D01*
X005498Y023059D01*
X005497Y023058D02*
X005358Y023057D01*
X005219Y023052D01*
X005080Y023043D01*
X004941Y023030D01*
X004803Y023014D01*
X004665Y022993D01*
X004528Y022969D01*
X004391Y022940D01*
X004256Y022908D01*
X004121Y022872D01*
X003988Y022833D01*
X003855Y022790D01*
X003724Y022743D01*
X003595Y022692D01*
X003466Y022638D01*
X003340Y022580D01*
X003215Y022518D01*
X003091Y022453D01*
X002970Y022385D01*
X002850Y022313D01*
X002733Y022238D01*
X002618Y022160D01*
X002505Y022079D01*
X002394Y021994D01*
X002286Y021906D01*
X002180Y021816D01*
X002077Y021722D01*
X001977Y021626D01*
X001879Y021526D01*
X001784Y021424D01*
X001692Y021320D01*
X001603Y021213D01*
X001517Y021103D01*
X001434Y020991D01*
X001354Y020877D01*
X001278Y020760D01*
X001205Y020642D01*
X001135Y020521D01*
X001068Y020399D01*
X001005Y020275D01*
X000946Y020149D01*
X000890Y020021D01*
X000838Y019892D01*
X000789Y019762D01*
X000744Y019630D01*
X000703Y019497D01*
X000665Y019363D01*
X000632Y019227D01*
X000602Y019091D01*
X000575Y018955D01*
X000553Y018817D01*
X000535Y018679D01*
X000520Y018541D01*
X000510Y018402D01*
X000503Y018263D01*
X000500Y018123D01*
X000500Y005692D01*
X000500Y005693D02*
X000504Y005550D01*
X000512Y005409D01*
X000524Y005267D01*
X000539Y005126D01*
X000559Y004985D01*
X000582Y004845D01*
X000610Y004705D01*
X000641Y004567D01*
X000677Y004429D01*
X000716Y004292D01*
X000759Y004157D01*
X000805Y004023D01*
X000856Y003890D01*
X000910Y003758D01*
X000968Y003629D01*
X001029Y003500D01*
X001094Y003374D01*
X001163Y003249D01*
X001235Y003127D01*
X001310Y003006D01*
X001389Y002888D01*
X001471Y002772D01*
X001556Y002658D01*
X001645Y002547D01*
X001736Y002438D01*
X001831Y002332D01*
X001928Y002229D01*
X002029Y002128D01*
X002132Y002030D01*
X002237Y001935D01*
X002346Y001844D01*
X002457Y001755D01*
X002570Y001669D01*
X002686Y001587D01*
X002804Y001508D01*
X002924Y001432D01*
X003047Y001359D01*
X003171Y001290D01*
X003297Y001225D01*
X003425Y001163D01*
X003555Y001105D01*
X003686Y001050D01*
X003819Y000999D01*
X003953Y000952D01*
X004088Y000909D01*
X004224Y000869D01*
X004362Y000833D01*
X004500Y000802D01*
X004640Y000774D01*
X004780Y000750D01*
X004921Y000729D01*
X005062Y000713D01*
X005203Y000701D01*
X005345Y000693D01*
X005487Y000689D01*
X005629Y000688D01*
M02*
