G75*
%MOIN*%
%OFA0B0*%
%FSLAX24Y24*%
%IPPOS*%
%LPD*%
%AMOC8*
5,1,8,0,0,1.08239X$1,22.5*
%
%ADD10C,0.2180*%
%ADD11C,0.0560*%
%ADD12R,0.0680X0.0680*%
%ADD13OC8,0.0680*%
%ADD14R,0.0608X0.0671*%
%ADD15C,0.0560*%
%ADD16R,0.0513X0.0474*%
%ADD17OC8,0.0417*%
%ADD18R,0.0671X0.0592*%
%ADD19R,0.0474X0.0513*%
%ADD20R,0.0631X0.0474*%
%ADD21R,0.0592X0.0671*%
%ADD22R,0.0710X0.0540*%
%ADD23R,0.0720X0.0060*%
D10*
X002697Y003572D03*
X002697Y020178D03*
X034303Y020178D03*
X034303Y003572D03*
D11*
X035260Y005375D02*
X035740Y005375D01*
X035740Y006375D02*
X035260Y006375D01*
X035260Y007375D02*
X035740Y007375D01*
X035740Y008375D02*
X035260Y008375D01*
X035260Y009375D02*
X035740Y009375D01*
X035740Y010375D02*
X035260Y010375D01*
X035260Y011375D02*
X035740Y011375D01*
X035740Y012375D02*
X035260Y012375D01*
X035260Y013375D02*
X035740Y013375D01*
X035740Y014375D02*
X035260Y014375D01*
X035260Y015375D02*
X035740Y015375D01*
X035740Y016375D02*
X035260Y016375D01*
X035260Y017375D02*
X035740Y017375D01*
X035740Y018375D02*
X035260Y018375D01*
X029740Y018375D02*
X029260Y018375D01*
X028240Y018375D02*
X027760Y018375D01*
X027760Y019375D02*
X028240Y019375D01*
X028240Y020375D02*
X027760Y020375D01*
X027760Y017375D02*
X028240Y017375D01*
X029260Y017375D02*
X029740Y017375D01*
X029740Y016375D02*
X029260Y016375D01*
X028240Y016375D02*
X027760Y016375D01*
X027760Y015375D02*
X028240Y015375D01*
X029260Y015375D02*
X029740Y015375D01*
X029740Y014375D02*
X029260Y014375D01*
X028240Y014375D02*
X027760Y014375D01*
X027760Y013375D02*
X028240Y013375D01*
X029260Y013375D02*
X029740Y013375D01*
X029740Y012375D02*
X029260Y012375D01*
X028240Y012375D02*
X027760Y012375D01*
X027760Y011375D02*
X028240Y011375D01*
X029260Y011375D02*
X029740Y011375D01*
X029740Y010375D02*
X029260Y010375D01*
X028240Y010375D02*
X027760Y010375D01*
X027760Y009375D02*
X028240Y009375D01*
X029260Y009375D02*
X029740Y009375D01*
X029740Y008375D02*
X029260Y008375D01*
X028240Y008375D02*
X027760Y008375D01*
X027760Y007375D02*
X028240Y007375D01*
X029260Y007375D02*
X029740Y007375D01*
X029740Y006375D02*
X029260Y006375D01*
X028240Y006375D02*
X027760Y006375D01*
X027760Y005375D02*
X028240Y005375D01*
X029260Y005375D02*
X029740Y005375D01*
X022240Y005375D02*
X021760Y005375D01*
X021760Y006375D02*
X022240Y006375D01*
X022240Y007375D02*
X021760Y007375D01*
X021760Y008375D02*
X022240Y008375D01*
X022240Y009375D02*
X021760Y009375D01*
X021760Y010375D02*
X022240Y010375D01*
X022240Y011375D02*
X021760Y011375D01*
X021760Y012375D02*
X022240Y012375D01*
X022240Y013375D02*
X021760Y013375D01*
X021760Y014375D02*
X022240Y014375D01*
X022240Y015375D02*
X021760Y015375D01*
X021760Y016375D02*
X022240Y016375D01*
X022240Y017375D02*
X021760Y017375D01*
X021760Y018375D02*
X022240Y018375D01*
X022240Y019375D02*
X021760Y019375D01*
X021760Y020375D02*
X022240Y020375D01*
D12*
X021125Y021375D03*
X032500Y020125D03*
X006000Y021188D03*
X006000Y022188D03*
X006000Y018750D03*
X006000Y017750D03*
X004313Y017375D03*
X003313Y017375D03*
X002313Y017375D03*
X001313Y017375D03*
X005500Y002875D03*
X032500Y002875D03*
D13*
X005500Y001875D03*
X004313Y006375D03*
X003313Y006375D03*
X002313Y006375D03*
X001313Y006375D03*
X001313Y007375D03*
X002313Y007375D03*
X003313Y007375D03*
X004313Y007375D03*
X004313Y008375D03*
X003313Y008375D03*
X002313Y008375D03*
X001313Y008375D03*
X001313Y009375D03*
X002313Y009375D03*
X003313Y009375D03*
X004313Y009375D03*
X004313Y010375D03*
X003313Y010375D03*
X002313Y010375D03*
X001313Y010375D03*
X001313Y011375D03*
X002313Y011375D03*
X003313Y011375D03*
X004313Y011375D03*
X004313Y012375D03*
X003313Y012375D03*
X002313Y012375D03*
X001313Y012375D03*
X001313Y013375D03*
X002313Y013375D03*
X003313Y013375D03*
X004313Y013375D03*
X004313Y014375D03*
X003313Y014375D03*
X002313Y014375D03*
X001313Y014375D03*
X001313Y015375D03*
X002313Y015375D03*
X003313Y015375D03*
X004313Y015375D03*
X004313Y016375D03*
X003313Y016375D03*
X002313Y016375D03*
X001313Y016375D03*
X007000Y017750D03*
X008000Y017750D03*
X009000Y017750D03*
X010000Y017750D03*
X011000Y017750D03*
X012000Y017750D03*
X013000Y017750D03*
X013000Y018750D03*
X012000Y018750D03*
X011000Y018750D03*
X010000Y018750D03*
X009000Y018750D03*
X008000Y018750D03*
X007000Y018750D03*
X007500Y020188D03*
X008500Y020063D03*
X009500Y020188D03*
X010500Y020063D03*
X011500Y020188D03*
X012500Y020063D03*
X012000Y021188D03*
X011000Y021188D03*
X010000Y021188D03*
X009000Y021188D03*
X008000Y021188D03*
X007000Y021188D03*
X007000Y022188D03*
X008000Y022188D03*
X009000Y022188D03*
X010000Y022188D03*
X011000Y022188D03*
X012000Y022188D03*
X013000Y022188D03*
X013000Y021188D03*
X020125Y021375D03*
X030500Y020125D03*
X031500Y020125D03*
X031500Y002875D03*
X030500Y002875D03*
X029500Y002875D03*
X028500Y002875D03*
X027500Y002875D03*
X026500Y002875D03*
X025500Y002875D03*
X024500Y002875D03*
X023500Y002875D03*
X022500Y002875D03*
X021500Y002875D03*
X020500Y002875D03*
X019500Y002875D03*
X018500Y002875D03*
X017500Y002875D03*
X016500Y002875D03*
X015500Y002875D03*
X014500Y002875D03*
X013500Y002875D03*
X013500Y001875D03*
X014500Y001875D03*
X015500Y001875D03*
X016500Y001875D03*
X017500Y001875D03*
X018500Y001875D03*
X019500Y001875D03*
X020500Y001875D03*
X021500Y001875D03*
X022500Y001875D03*
X023500Y001875D03*
X024500Y001875D03*
X025500Y001875D03*
X026500Y001875D03*
X027500Y001875D03*
X028500Y001875D03*
X029500Y001875D03*
X030500Y001875D03*
X031500Y001875D03*
X032500Y001875D03*
D14*
X014603Y009546D03*
X013603Y009546D03*
X013603Y010589D03*
X014603Y010589D03*
X024022Y020848D03*
X025022Y020848D03*
X025022Y021892D03*
X024022Y021892D03*
D15*
X010388Y003375D03*
X008488Y003375D03*
D16*
X008478Y002063D03*
X009147Y002063D03*
X009790Y002063D03*
X010460Y002063D03*
X012625Y009103D03*
X012625Y009772D03*
X012625Y010353D03*
X012625Y011022D03*
X009710Y009875D03*
X009040Y009875D03*
X012813Y014478D03*
X012813Y015147D03*
X017478Y019063D03*
X018147Y019063D03*
X023250Y018772D03*
X023250Y018103D03*
X026375Y018165D03*
X026375Y018835D03*
X028790Y020375D03*
X029460Y020375D03*
X033978Y018375D03*
X034647Y018375D03*
D17*
X029500Y019188D03*
X022750Y019375D03*
X014500Y021375D03*
X013125Y014000D03*
X014250Y012250D03*
X014250Y011625D03*
X013563Y011625D03*
X011250Y011813D03*
X007750Y013375D03*
X007750Y014000D03*
X013438Y007750D03*
X014063Y007750D03*
X013938Y006000D03*
X013250Y005500D03*
X012625Y005563D03*
X013250Y004875D03*
X006875Y006688D03*
X006875Y007313D03*
X030625Y009875D03*
X034000Y010375D03*
D18*
X015500Y009044D03*
X015500Y008375D03*
X015500Y007706D03*
D19*
X013460Y006313D03*
X012790Y006313D03*
X015688Y010290D03*
X015688Y010960D03*
X017375Y017665D03*
X017375Y018335D03*
X016000Y019415D03*
X016000Y020085D03*
X025750Y018835D03*
X025750Y018165D03*
D20*
X024933Y018500D03*
X024067Y018126D03*
X024067Y018874D03*
D21*
X017982Y021375D03*
X017313Y021375D03*
X016643Y021375D03*
X013169Y008375D03*
X012500Y008375D03*
X011831Y008375D03*
D22*
X011813Y009138D03*
X011813Y009738D03*
D23*
X011813Y009438D03*
M02*
