%
M48
M72
T01C0.0118
T02C0.0197
T03C0.0320
T04C0.0400
T05C0.1102
%
T01
X5688Y5125
X6063Y5125
X5125Y5313
X4938Y5625
X5188Y5875
X5188Y6250
X5625Y6188
X5438Y6750
X5813Y6750
X5750Y7250
X6750Y8188
X7188Y8563
X6750Y8875
X7250Y9125
X6188Y9813
X5938Y10125
X6500Y10875
X7125Y10625
X6938Y11438
X5938Y11688
X6188Y12188
X8563Y13875
X8813Y14125
X9063Y13875
X9313Y14125
X9563Y13875
X9813Y14125
X10063Y13875
X10313Y14125
X10563Y13875
X10813Y14125
X12000Y13875
X13625Y14625
X14000Y14250
X14375Y14250
X14750Y14125
X15125Y14000
X15500Y13875
X16125Y13625
X16438Y13313
X16375Y12875
X16875Y12750
X17125Y12250
X15000Y10875
X13375Y10000
X12500Y11125
X13125Y12125
X12750Y12313
X11250Y12438
X10125Y9875
X9500Y9188
X9000Y9375
X8625Y9875
X10813Y7875
X11750Y7688
X13000Y7688
X14500Y8438
X15125Y8500
X14750Y7688
X12313Y6188
X11875Y6188
X12125Y4875
X14563Y5313
X15500Y4875
X16000Y4500
X17000Y4875
X17938Y5500
X18500Y5875
X19000Y5688
X18000Y6375
X18875Y6938
X17688Y7375
X18875Y8375
X18500Y8500
X18250Y8813
X18000Y9125
X17688Y9375
X17375Y9625
X18625Y10375
X19313Y10875
X19813Y11375
X21000Y10625
X20938Y9938
X20500Y9938
X20125Y9938
X20063Y9125
X20438Y9125
X20063Y8500
X19750Y8875
X19563Y8500
X20063Y8125
X22750Y10063
X24500Y11375
X25500Y12125
X25875Y12375
X24750Y13125
X25000Y14375
X25000Y15438
X25750Y15375
X26875Y14875
X26875Y15875
X26250Y16875
X25375Y17375
X24688Y19063
X23813Y19063
X22563Y18875
X21188Y18813
X19813Y18813
X19813Y19313
X19813Y19750
X18563Y19063
X17625Y19375
X17000Y19875
X16438Y19875
X16375Y20375
X17000Y20375
X17938Y20438
X19313Y20688
X22625Y19813
X24250Y20563
X25500Y21375
X26625Y22625
X28813Y21188
X29938Y20375
X31000Y21125
X33563Y18375
X32000Y16500
X31250Y12375
X32375Y11375
X33000Y10375
X34000Y10375
X33750Y9375
X34000Y8375
X33375Y7375
X32875Y6375
X31000Y5875
X31188Y4875
X26875Y8375
X26500Y9375
X21188Y11625
X19813Y12375
X21063Y13063
X20250Y13625
X19938Y14125
X20250Y14375
X19688Y14438
X19375Y14625
X19000Y14625
X18500Y15063
X17500Y15813
X18000Y15875
X18563Y16000
X19500Y16750
X20438Y15875
X18250Y17125
X18688Y17625
X19875Y17625
X19875Y18250
X17375Y17125
X17000Y17313
X15063Y16375
X14500Y16750
X14125Y17375
X14000Y17875
X13813Y18438
X14125Y18750
X15313Y19375
X15500Y19875
X16000Y19063
X15500Y18875
X12500Y18563
X12125Y18250
X12438Y16750
X13250Y16375
X12875Y15813
X11250Y15375
X10813Y16375
X10563Y16625
X10313Y16375
X10063Y16625
X9813Y16375
X9563Y16625
X9313Y16375
X9063Y16625
X8813Y16375
X8563Y16625
X14750Y15313
X15375Y15750
X15125Y16000
X16125Y15813
X16500Y15813
X16875Y15813
X21375Y13875
X15625Y9875
X16500Y5875
X18313Y4813
X20313Y5688
X20750Y5563
X21000Y5188
X21500Y4500
X9500Y4813
X9000Y4813
X7250Y7500
X9438Y1375
X15688Y21688
X16250Y21625
X22750Y21563
X23500Y21750
T02
X13125Y14000
X14250Y12250
X14250Y11625
X13563Y11625
X10875Y11813
X7500Y13375
X7500Y14375
X13438Y7750
X14063Y7750
X13750Y6000
X13188Y5563
X12625Y5563
X6750Y6688
X6750Y7313
T03
X8488Y3375
X10388Y3375
X22000Y5375
X22000Y6375
X22000Y7375
X22000Y8375
X22000Y9375
X22000Y10375
X22000Y11375
X22000Y12375
X22000Y13375
X22000Y14375
X22000Y15375
X22000Y16375
X22000Y17375
X22000Y18375
X22000Y19375
X22000Y20375
X28000Y20375
X28000Y19375
X28000Y18375
X28000Y17375
X28000Y16375
X28000Y15375
X29500Y15375
X29500Y16375
X29500Y17375
X29500Y18375
X35500Y18375
X35500Y17375
X35500Y16375
X35500Y15375
X35500Y14375
X35500Y13375
X35500Y12375
X35500Y11375
X35500Y10375
X35500Y9375
X35500Y8375
X35500Y7375
X35500Y6375
X35500Y5375
X29500Y5375
X28000Y5375
X28000Y6375
X28000Y7375
X28000Y8375
X28000Y9375
X28000Y10375
X29500Y10375
X29500Y9375
X29500Y8375
X29500Y7375
X29500Y6375
X29500Y11375
X29500Y12375
X29500Y13375
X29500Y14375
X28000Y14375
X28000Y13375
X28000Y12375
X28000Y11375
T04
X27500Y2875
X28500Y2875
X29500Y2875
X30500Y2875
X31500Y2875
X32500Y2875
X32500Y1875
X31500Y1875
X30500Y1875
X29500Y1875
X28500Y1875
X27500Y1875
X26500Y1875
X25500Y1875
X24500Y1875
X23500Y1875
X22500Y1875
X21500Y1875
X20500Y1875
X19500Y1875
X18500Y1875
X17500Y1875
X16500Y1875
X15500Y1875
X14500Y1875
X13500Y1875
X13500Y2875
X14500Y2875
X15500Y2875
X16500Y2875
X17500Y2875
X18500Y2875
X19500Y2875
X20500Y2875
X21500Y2875
X22500Y2875
X23500Y2875
X24500Y2875
X25500Y2875
X26500Y2875
X5500Y2875
X5500Y1875
X4063Y6375
X3063Y6375
X3063Y7375
X4063Y7375
X4063Y8375
X3063Y8375
X3063Y9375
X4063Y9375
X4063Y10375
X3063Y10375
X3063Y11375
X4063Y11375
X4063Y12375
X3063Y12375
X3063Y13375
X4063Y13375
X4063Y14375
X3063Y14375
X3063Y15375
X4063Y15375
X4063Y16375
X3063Y16375
X3063Y17375
X4063Y17375
X6000Y19563
X7000Y19563
X8000Y19563
X9000Y19563
X10000Y19563
X11000Y19563
X12000Y19563
X13000Y19563
X13000Y20563
X12000Y20563
X11000Y20563
X10000Y20563
X9000Y20563
X8000Y20563
X7000Y20563
X6000Y20563
X7500Y17563
X8500Y17438
X9500Y17563
X10500Y17438
X11500Y17563
X12500Y17438
X20125Y21375
X21125Y21375
X30500Y19875
X31500Y19875
X32500Y19875
T05
X2500Y3375
X2500Y20375
X34500Y20375
X34500Y3375
M30
