G75*
%MOIN*%
%OFA0B0*%
%FSLAX24Y24*%
%IPPOS*%
%LPD*%
%AMOC8*
5,1,8,0,0,1.08239X$1,22.5*
%
%ADD10C,0.0000*%
%ADD11C,0.0030*%
%ADD12R,0.0394X0.0433*%
%ADD13R,0.0315X0.0315*%
%ADD14R,0.0433X0.0394*%
%ADD15C,0.2100*%
%ADD16R,0.0157X0.0709*%
%ADD17R,0.0709X0.0157*%
%ADD18C,0.0480*%
%ADD19R,0.0394X0.0394*%
%ADD20R,0.0600X0.0600*%
%ADD21OC8,0.0600*%
%ADD22R,0.0591X0.0197*%
%ADD23R,0.0197X0.0591*%
%ADD24R,0.0236X0.0236*%
%ADD25C,0.0480*%
%ADD26OC8,0.0337*%
%ADD27R,0.0748X0.1339*%
%ADD28C,0.0100*%
%ADD29C,0.0258*%
%ADD30C,0.0050*%
%ADD31C,0.0500*%
%ADD32C,0.0560*%
D10*
X005630Y000688D02*
X031435Y000688D01*
X031574Y000690D01*
X031714Y000696D01*
X031853Y000705D01*
X031992Y000719D01*
X032130Y000736D01*
X032268Y000757D01*
X032405Y000782D01*
X032542Y000810D01*
X032677Y000843D01*
X032812Y000879D01*
X032945Y000919D01*
X033078Y000962D01*
X033209Y001009D01*
X033339Y001060D01*
X033468Y001114D01*
X033594Y001172D01*
X033720Y001233D01*
X033843Y001298D01*
X033965Y001366D01*
X034085Y001437D01*
X034203Y001512D01*
X034318Y001590D01*
X034432Y001671D01*
X034543Y001755D01*
X034652Y001842D01*
X034758Y001932D01*
X034862Y002025D01*
X034963Y002121D01*
X035062Y002220D01*
X035158Y002321D01*
X035251Y002425D01*
X035341Y002531D01*
X035428Y002640D01*
X035512Y002751D01*
X035593Y002865D01*
X035671Y002980D01*
X035746Y003098D01*
X035817Y003218D01*
X035885Y003340D01*
X035950Y003463D01*
X036011Y003589D01*
X036069Y003715D01*
X036123Y003844D01*
X036174Y003974D01*
X036221Y004105D01*
X036264Y004238D01*
X036304Y004371D01*
X036340Y004506D01*
X036373Y004641D01*
X036401Y004778D01*
X036426Y004915D01*
X036447Y005053D01*
X036464Y005191D01*
X036478Y005330D01*
X036487Y005469D01*
X036493Y005609D01*
X036495Y005748D01*
X036495Y018019D01*
X036493Y018158D01*
X036487Y018297D01*
X036478Y018435D01*
X036464Y018573D01*
X036447Y018711D01*
X036426Y018849D01*
X036402Y018985D01*
X036373Y019121D01*
X036341Y019256D01*
X036305Y019390D01*
X036265Y019524D01*
X036222Y019655D01*
X036175Y019786D01*
X036125Y019916D01*
X036070Y020044D01*
X036013Y020170D01*
X035952Y020295D01*
X035888Y020418D01*
X035820Y020539D01*
X035749Y020658D01*
X035674Y020776D01*
X035597Y020891D01*
X035516Y021004D01*
X035432Y021115D01*
X035345Y021223D01*
X035256Y021329D01*
X035163Y021432D01*
X035068Y021533D01*
X034969Y021632D01*
X034868Y021727D01*
X034765Y021820D01*
X034659Y021909D01*
X034551Y021996D01*
X034440Y022080D01*
X034327Y022161D01*
X034212Y022238D01*
X034094Y022313D01*
X033975Y022384D01*
X033854Y022452D01*
X033731Y022516D01*
X033606Y022577D01*
X033480Y022634D01*
X033352Y022689D01*
X033222Y022739D01*
X033091Y022786D01*
X032960Y022829D01*
X032826Y022869D01*
X032692Y022905D01*
X032557Y022937D01*
X032421Y022966D01*
X032285Y022990D01*
X032147Y023011D01*
X032009Y023028D01*
X031871Y023042D01*
X031733Y023051D01*
X031594Y023057D01*
X031455Y023059D01*
X005498Y023059D01*
X005497Y023058D02*
X005358Y023057D01*
X005219Y023052D01*
X005080Y023043D01*
X004941Y023030D01*
X004803Y023014D01*
X004665Y022993D01*
X004528Y022969D01*
X004391Y022940D01*
X004256Y022908D01*
X004121Y022872D01*
X003988Y022833D01*
X003855Y022790D01*
X003724Y022743D01*
X003595Y022692D01*
X003466Y022638D01*
X003340Y022580D01*
X003215Y022518D01*
X003091Y022453D01*
X002970Y022385D01*
X002850Y022313D01*
X002733Y022238D01*
X002618Y022160D01*
X002505Y022079D01*
X002394Y021994D01*
X002286Y021906D01*
X002180Y021816D01*
X002077Y021722D01*
X001977Y021626D01*
X001879Y021526D01*
X001784Y021424D01*
X001692Y021320D01*
X001603Y021213D01*
X001517Y021103D01*
X001434Y020991D01*
X001354Y020877D01*
X001278Y020760D01*
X001205Y020642D01*
X001135Y020521D01*
X001068Y020399D01*
X001005Y020275D01*
X000946Y020149D01*
X000890Y020021D01*
X000838Y019892D01*
X000789Y019762D01*
X000744Y019630D01*
X000703Y019497D01*
X000665Y019363D01*
X000632Y019227D01*
X000602Y019091D01*
X000575Y018955D01*
X000553Y018817D01*
X000535Y018679D01*
X000520Y018541D01*
X000510Y018402D01*
X000503Y018263D01*
X000500Y018123D01*
X000500Y005692D01*
X000500Y005693D02*
X000504Y005550D01*
X000512Y005409D01*
X000524Y005267D01*
X000539Y005126D01*
X000559Y004985D01*
X000582Y004845D01*
X000610Y004705D01*
X000641Y004567D01*
X000677Y004429D01*
X000716Y004292D01*
X000759Y004157D01*
X000805Y004023D01*
X000856Y003890D01*
X000910Y003758D01*
X000968Y003629D01*
X001029Y003500D01*
X001094Y003374D01*
X001163Y003249D01*
X001235Y003127D01*
X001310Y003006D01*
X001389Y002888D01*
X001471Y002772D01*
X001556Y002658D01*
X001645Y002547D01*
X001736Y002438D01*
X001831Y002332D01*
X001928Y002229D01*
X002029Y002128D01*
X002132Y002030D01*
X002237Y001935D01*
X002346Y001844D01*
X002457Y001755D01*
X002570Y001669D01*
X002686Y001587D01*
X002804Y001508D01*
X002924Y001432D01*
X003047Y001359D01*
X003171Y001290D01*
X003297Y001225D01*
X003425Y001163D01*
X003555Y001105D01*
X003686Y001050D01*
X003819Y000999D01*
X003953Y000952D01*
X004088Y000909D01*
X004224Y000869D01*
X004362Y000833D01*
X004500Y000802D01*
X004640Y000774D01*
X004780Y000750D01*
X004921Y000729D01*
X005062Y000713D01*
X005203Y000701D01*
X005345Y000693D01*
X005487Y000689D01*
X005629Y000688D01*
D11*
X031515Y022140D02*
X031762Y022140D01*
X031638Y022140D02*
X031638Y022510D01*
X031515Y022387D01*
D12*
X029500Y022210D03*
X029500Y021540D03*
D13*
X031000Y021580D03*
X031000Y022170D03*
D14*
X030500Y022210D03*
X030000Y022210D03*
X030000Y021540D03*
X030500Y021540D03*
X011250Y014960D03*
X011250Y014290D03*
X011500Y005710D03*
X011500Y005040D03*
X010460Y001875D03*
X009790Y001875D03*
X009147Y001875D03*
X008478Y001875D03*
D15*
X002500Y003375D03*
X002500Y020375D03*
X034500Y020375D03*
X034500Y003375D03*
D16*
X015836Y006811D03*
X015580Y006811D03*
X015324Y006811D03*
X015068Y006811D03*
X014812Y006811D03*
X014556Y006811D03*
X014300Y006811D03*
X014044Y006811D03*
X013788Y006811D03*
X013532Y006811D03*
X013277Y006811D03*
X013021Y006811D03*
X012765Y006811D03*
X012509Y006811D03*
X012253Y006811D03*
X011997Y006811D03*
X011741Y006811D03*
X011485Y006811D03*
X011229Y006811D03*
X010973Y006811D03*
X010718Y006811D03*
X010462Y006811D03*
X010206Y006811D03*
X009950Y006811D03*
X009694Y006811D03*
X009438Y006811D03*
X009182Y006811D03*
X008926Y006811D03*
X008670Y006811D03*
X008414Y006811D03*
X008414Y013189D03*
X008670Y013189D03*
X008926Y013189D03*
X009182Y013189D03*
X009438Y013189D03*
X009694Y013189D03*
X009950Y013189D03*
X010206Y013189D03*
X010462Y013189D03*
X010718Y013189D03*
X010973Y013189D03*
X011229Y013189D03*
X011485Y013189D03*
X011741Y013189D03*
X011997Y013189D03*
X012253Y013189D03*
X012509Y013189D03*
X012765Y013189D03*
X013021Y013189D03*
X013277Y013189D03*
X013532Y013189D03*
X013788Y013189D03*
X014044Y013189D03*
X014300Y013189D03*
X014556Y013189D03*
X014812Y013189D03*
X015068Y013189D03*
X015324Y013189D03*
X015580Y013189D03*
X015836Y013189D03*
D17*
X016495Y012431D03*
X016495Y012175D03*
X016495Y011919D03*
X016495Y011663D03*
X016495Y011407D03*
X016495Y011152D03*
X016495Y010896D03*
X016495Y010640D03*
X016495Y010384D03*
X016495Y010128D03*
X016495Y009872D03*
X016495Y009616D03*
X016495Y009360D03*
X016495Y009104D03*
X016495Y008848D03*
X016495Y008593D03*
X016495Y008337D03*
X016495Y008081D03*
X016495Y007825D03*
X016495Y007569D03*
X007755Y007569D03*
X007755Y007825D03*
X007755Y008081D03*
X007755Y008337D03*
X007755Y008593D03*
X007755Y008848D03*
X007755Y009104D03*
X007755Y009360D03*
X007755Y009616D03*
X007755Y009872D03*
X007755Y010128D03*
X007755Y010384D03*
X007755Y010640D03*
X007755Y010896D03*
X007755Y011152D03*
X007755Y011407D03*
X007755Y011663D03*
X007755Y011919D03*
X007755Y012175D03*
X007755Y012431D03*
D18*
X021760Y012375D02*
X022240Y012375D01*
X022240Y011375D02*
X021760Y011375D01*
X021760Y010375D02*
X022240Y010375D01*
X022240Y009375D02*
X021760Y009375D01*
X021760Y008375D02*
X022240Y008375D01*
X022240Y007375D02*
X021760Y007375D01*
X021760Y006375D02*
X022240Y006375D01*
X022240Y005375D02*
X021760Y005375D01*
X027760Y005375D02*
X028240Y005375D01*
X029260Y005375D02*
X029740Y005375D01*
X029740Y006375D02*
X029260Y006375D01*
X028240Y006375D02*
X027760Y006375D01*
X027760Y007375D02*
X028240Y007375D01*
X029260Y007375D02*
X029740Y007375D01*
X029740Y008375D02*
X029260Y008375D01*
X028240Y008375D02*
X027760Y008375D01*
X027760Y009375D02*
X028240Y009375D01*
X029260Y009375D02*
X029740Y009375D01*
X029740Y010375D02*
X029260Y010375D01*
X028240Y010375D02*
X027760Y010375D01*
X027760Y011375D02*
X028240Y011375D01*
X029260Y011375D02*
X029740Y011375D01*
X029740Y012375D02*
X029260Y012375D01*
X028240Y012375D02*
X027760Y012375D01*
X027760Y013375D02*
X028240Y013375D01*
X029260Y013375D02*
X029740Y013375D01*
X029740Y014375D02*
X029260Y014375D01*
X028240Y014375D02*
X027760Y014375D01*
X027760Y015375D02*
X028240Y015375D01*
X029260Y015375D02*
X029740Y015375D01*
X029740Y016375D02*
X029260Y016375D01*
X028240Y016375D02*
X027760Y016375D01*
X027760Y017375D02*
X028240Y017375D01*
X029260Y017375D02*
X029740Y017375D01*
X029740Y018375D02*
X029260Y018375D01*
X028240Y018375D02*
X027760Y018375D01*
X027760Y019375D02*
X028240Y019375D01*
X028240Y020375D02*
X027760Y020375D01*
X022240Y020375D02*
X021760Y020375D01*
X021760Y019375D02*
X022240Y019375D01*
X022240Y018375D02*
X021760Y018375D01*
X021760Y017375D02*
X022240Y017375D01*
X022240Y016375D02*
X021760Y016375D01*
X021760Y015375D02*
X022240Y015375D01*
X022240Y014375D02*
X021760Y014375D01*
X021760Y013375D02*
X022240Y013375D01*
X035260Y013375D02*
X035740Y013375D01*
X035740Y012375D02*
X035260Y012375D01*
X035260Y011375D02*
X035740Y011375D01*
X035740Y010375D02*
X035260Y010375D01*
X035260Y009375D02*
X035740Y009375D01*
X035740Y008375D02*
X035260Y008375D01*
X035260Y007375D02*
X035740Y007375D01*
X035740Y006375D02*
X035260Y006375D01*
X035260Y005375D02*
X035740Y005375D01*
X035740Y014375D02*
X035260Y014375D01*
X035260Y015375D02*
X035740Y015375D01*
X035740Y016375D02*
X035260Y016375D01*
X035260Y017375D02*
X035740Y017375D01*
X035740Y018375D02*
X035260Y018375D01*
D19*
X028827Y021560D03*
X028827Y022190D03*
X027173Y022190D03*
X027173Y021560D03*
D20*
X032500Y019875D03*
X021125Y021375D03*
X006000Y020563D03*
X006000Y019563D03*
X004063Y017375D03*
X003063Y017375D03*
X005500Y002875D03*
X032500Y002875D03*
D21*
X031500Y002875D03*
X030500Y002875D03*
X029500Y002875D03*
X028500Y002875D03*
X027500Y002875D03*
X026500Y002875D03*
X025500Y002875D03*
X024500Y002875D03*
X023500Y002875D03*
X022500Y002875D03*
X021500Y002875D03*
X020500Y002875D03*
X019500Y002875D03*
X018500Y002875D03*
X017500Y002875D03*
X016500Y002875D03*
X015500Y002875D03*
X014500Y002875D03*
X013500Y002875D03*
X013500Y001875D03*
X014500Y001875D03*
X015500Y001875D03*
X016500Y001875D03*
X017500Y001875D03*
X018500Y001875D03*
X019500Y001875D03*
X020500Y001875D03*
X021500Y001875D03*
X022500Y001875D03*
X023500Y001875D03*
X024500Y001875D03*
X025500Y001875D03*
X026500Y001875D03*
X027500Y001875D03*
X028500Y001875D03*
X029500Y001875D03*
X030500Y001875D03*
X031500Y001875D03*
X032500Y001875D03*
X012500Y017438D03*
X011500Y017563D03*
X010500Y017438D03*
X009500Y017563D03*
X008500Y017438D03*
X007500Y017563D03*
X007000Y019563D03*
X008000Y019563D03*
X009000Y019563D03*
X010000Y019563D03*
X011000Y019563D03*
X012000Y019563D03*
X013000Y019563D03*
X013000Y020563D03*
X012000Y020563D03*
X011000Y020563D03*
X010000Y020563D03*
X009000Y020563D03*
X008000Y020563D03*
X007000Y020563D03*
X004063Y016375D03*
X003063Y016375D03*
X003063Y015375D03*
X004063Y015375D03*
X004063Y014375D03*
X003063Y014375D03*
X003063Y013375D03*
X004063Y013375D03*
X004063Y012375D03*
X003063Y012375D03*
X003063Y011375D03*
X004063Y011375D03*
X004063Y010375D03*
X003063Y010375D03*
X003063Y009375D03*
X004063Y009375D03*
X004063Y008375D03*
X003063Y008375D03*
X003063Y007375D03*
X004063Y007375D03*
X004063Y006375D03*
X003063Y006375D03*
X005500Y001875D03*
X030500Y019875D03*
X031500Y019875D03*
X020125Y021375D03*
D22*
X019283Y020325D03*
X019283Y020010D03*
X019283Y019695D03*
X019283Y019380D03*
X019283Y019065D03*
X019283Y018750D03*
X019283Y018435D03*
X019283Y018120D03*
X019283Y017805D03*
X019283Y017490D03*
X019283Y017175D03*
X014717Y017175D03*
X014717Y017490D03*
X014717Y017805D03*
X014717Y018120D03*
X014717Y018435D03*
X014717Y018750D03*
X014717Y019065D03*
X014717Y019380D03*
X014717Y019695D03*
X014717Y020010D03*
X014717Y020325D03*
D23*
X015425Y021033D03*
X015740Y021033D03*
X016055Y021033D03*
X016370Y021033D03*
X016685Y021033D03*
X017000Y021033D03*
X017315Y021033D03*
X017630Y021033D03*
X017945Y021033D03*
X018260Y021033D03*
X018575Y021033D03*
X018575Y016467D03*
X018260Y016467D03*
X017945Y016467D03*
X017630Y016467D03*
X017315Y016467D03*
X017000Y016467D03*
X016685Y016467D03*
X016370Y016467D03*
X016055Y016467D03*
X015740Y016467D03*
X015425Y016467D03*
D24*
X014250Y006121D03*
X014250Y005254D03*
D25*
X010388Y003375D03*
X008488Y003375D03*
D26*
X012625Y005563D03*
X013188Y005563D03*
X013750Y006000D03*
X013438Y007750D03*
X014063Y007750D03*
X014250Y011625D03*
X014250Y012250D03*
X013563Y011625D03*
X010875Y011813D03*
X013125Y014000D03*
X007500Y014375D03*
X007500Y013375D03*
X006750Y007313D03*
X006750Y006688D03*
D27*
X005893Y004063D03*
X004357Y004063D03*
D28*
X011500Y005040D02*
X011960Y005040D01*
X012125Y004875D01*
X011500Y005710D02*
X011485Y005724D01*
X011741Y006811D02*
X011741Y007679D01*
X011750Y007688D01*
X008625Y009875D02*
X008622Y009872D01*
X007755Y009872D01*
X011229Y014270D02*
X011250Y014290D01*
X011250Y014960D02*
X011250Y015375D01*
X017000Y016467D02*
X017000Y017313D01*
X018563Y019063D02*
X018565Y019065D01*
X019283Y019065D01*
X016375Y020375D02*
X016370Y020380D01*
X016370Y021033D01*
X027173Y021560D02*
X028827Y021560D01*
X028827Y021540D01*
X029500Y021540D01*
X030000Y021540D02*
X030500Y021540D01*
X031000Y021580D02*
X031000Y021125D01*
X030961Y022210D02*
X030500Y022210D01*
X030000Y022210D02*
X029500Y022210D01*
X029480Y022190D02*
X028827Y022190D01*
X027173Y022190D01*
X028813Y021560D02*
X028813Y021188D01*
X028827Y021560D02*
X028813Y021560D01*
X016495Y009872D02*
X015690Y009872D01*
X015625Y009875D01*
D29*
X015625Y009875D03*
X017375Y009625D03*
X017688Y009375D03*
X018000Y009125D03*
X018250Y008813D03*
X018500Y008500D03*
X018875Y008375D03*
X019563Y008500D03*
X019750Y008875D03*
X020063Y009125D03*
X020438Y009125D03*
X020063Y008500D03*
X020063Y008125D03*
X018875Y006938D03*
X018000Y006375D03*
X018500Y005875D03*
X017938Y005500D03*
X018313Y004813D03*
X019000Y005688D03*
X020313Y005688D03*
X020750Y005563D03*
X021000Y005188D03*
X021500Y004500D03*
X017000Y004875D03*
X016000Y004500D03*
X015500Y004875D03*
X014563Y005313D03*
X016500Y005875D03*
X017688Y007375D03*
X015125Y008500D03*
X014500Y008438D03*
X014750Y007688D03*
X013000Y007688D03*
X011750Y007688D03*
X010813Y007875D03*
X009500Y009188D03*
X009000Y009375D03*
X008625Y009875D03*
X010125Y009875D03*
X012500Y011125D03*
X013125Y012125D03*
X012750Y012313D03*
X011250Y012438D03*
X010563Y013875D03*
X010813Y014125D03*
X010313Y014125D03*
X010063Y013875D03*
X009813Y014125D03*
X009563Y013875D03*
X009313Y014125D03*
X009063Y013875D03*
X008813Y014125D03*
X008563Y013875D03*
X006188Y012188D03*
X005938Y011688D03*
X006500Y010875D03*
X007125Y010625D03*
X006938Y011438D03*
X005938Y010125D03*
X006188Y009813D03*
X007250Y009125D03*
X006750Y008875D03*
X007188Y008563D03*
X006750Y008188D03*
X007250Y007500D03*
X005750Y007250D03*
X005813Y006750D03*
X005438Y006750D03*
X005188Y006250D03*
X005188Y005875D03*
X004938Y005625D03*
X005125Y005313D03*
X005688Y005125D03*
X006063Y005125D03*
X005625Y006188D03*
X009000Y004813D03*
X009500Y004813D03*
X011875Y006188D03*
X012313Y006188D03*
X012125Y004875D03*
X009438Y001375D03*
X013375Y010000D03*
X015000Y010875D03*
X017125Y012250D03*
X016875Y012750D03*
X016375Y012875D03*
X016438Y013313D03*
X016125Y013625D03*
X015500Y013875D03*
X015125Y014000D03*
X014750Y014125D03*
X014375Y014250D03*
X014000Y014250D03*
X013625Y014625D03*
X014750Y015313D03*
X015375Y015750D03*
X015125Y016000D03*
X015063Y016375D03*
X014500Y016750D03*
X014125Y017375D03*
X014000Y017875D03*
X013813Y018438D03*
X014125Y018750D03*
X015313Y019375D03*
X015500Y019875D03*
X016438Y019875D03*
X017000Y019875D03*
X017000Y020375D03*
X016375Y020375D03*
X017938Y020438D03*
X017625Y019375D03*
X018563Y019063D03*
X019813Y019313D03*
X019813Y019750D03*
X019813Y018813D03*
X019875Y018250D03*
X019875Y017625D03*
X018688Y017625D03*
X018250Y017125D03*
X017375Y017125D03*
X017000Y017313D03*
X018000Y015875D03*
X017500Y015813D03*
X016875Y015813D03*
X016500Y015813D03*
X016125Y015813D03*
X018500Y015063D03*
X019000Y014625D03*
X019375Y014625D03*
X019688Y014438D03*
X020250Y014375D03*
X019938Y014125D03*
X020250Y013625D03*
X021063Y013063D03*
X021375Y013875D03*
X019813Y012375D03*
X019813Y011375D03*
X019313Y010875D03*
X018625Y010375D03*
X020125Y009938D03*
X020500Y009938D03*
X020938Y009938D03*
X021000Y010625D03*
X021188Y011625D03*
X022750Y010063D03*
X024500Y011375D03*
X025500Y012125D03*
X025875Y012375D03*
X024750Y013125D03*
X025000Y014375D03*
X025000Y015438D03*
X025750Y015375D03*
X026875Y014875D03*
X026875Y015875D03*
X026250Y016875D03*
X025375Y017375D03*
X024688Y019063D03*
X023813Y019063D03*
X022563Y018875D03*
X021188Y018813D03*
X022625Y019813D03*
X024250Y020563D03*
X025500Y021375D03*
X026625Y022625D03*
X028813Y021188D03*
X029938Y020375D03*
X031000Y021125D03*
X033563Y018375D03*
X032000Y016500D03*
X031250Y012375D03*
X032375Y011375D03*
X033000Y010375D03*
X034000Y010375D03*
X033750Y009375D03*
X034000Y008375D03*
X033375Y007375D03*
X032875Y006375D03*
X031000Y005875D03*
X031188Y004875D03*
X026875Y008375D03*
X026500Y009375D03*
X020438Y015875D03*
X019500Y016750D03*
X018563Y016000D03*
X015500Y018875D03*
X016000Y019063D03*
X019313Y020688D03*
X016250Y021625D03*
X015688Y021688D03*
X012500Y018563D03*
X012125Y018250D03*
X012438Y016750D03*
X013250Y016375D03*
X012875Y015813D03*
X011250Y015375D03*
X010813Y016375D03*
X010563Y016625D03*
X010313Y016375D03*
X010063Y016625D03*
X009813Y016375D03*
X009563Y016625D03*
X009313Y016375D03*
X009063Y016625D03*
X008813Y016375D03*
X008563Y016625D03*
X012000Y013875D03*
X022750Y021563D03*
X023500Y021750D03*
D30*
X023438Y021750D01*
X023063Y022125D01*
X018313Y022125D01*
X017630Y021442D01*
X017630Y021033D01*
X017945Y021033D02*
X017945Y020445D01*
X017938Y020438D01*
X017697Y020010D02*
X017188Y019500D01*
X015875Y019500D01*
X015500Y019875D01*
X015308Y019380D02*
X014717Y019380D01*
X014717Y019695D02*
X014320Y019695D01*
X013375Y018750D01*
X013375Y017250D01*
X011625Y015500D01*
X011625Y013750D01*
X011741Y013634D01*
X011741Y013189D01*
X011485Y013189D02*
X011485Y012640D01*
X011563Y012563D01*
X011563Y012125D01*
X011250Y011813D01*
X010875Y011813D01*
X011250Y012438D02*
X011229Y012458D01*
X011229Y013189D01*
X011229Y014270D01*
X010813Y014125D02*
X010813Y013750D01*
X010973Y013589D01*
X010973Y013189D01*
X010718Y013189D02*
X010718Y013595D01*
X010563Y013750D01*
X010563Y013875D01*
X010313Y013750D02*
X010313Y014125D01*
X010063Y013875D02*
X010063Y013750D01*
X010206Y013607D01*
X010206Y013189D01*
X010462Y013189D02*
X010462Y013601D01*
X010313Y013750D01*
X009950Y013613D02*
X009813Y013750D01*
X009813Y014125D01*
X009563Y013875D02*
X009563Y013750D01*
X009694Y013619D01*
X009694Y013189D01*
X009950Y013189D02*
X009950Y013613D01*
X009438Y013625D02*
X009313Y013750D01*
X009313Y014125D01*
X009063Y013875D02*
X009063Y013750D01*
X009182Y013630D01*
X009182Y013189D01*
X008926Y013189D02*
X008926Y013636D01*
X008813Y013750D01*
X008813Y014125D01*
X008563Y013875D02*
X008563Y013750D01*
X008670Y013642D01*
X008670Y013189D01*
X008414Y013189D02*
X008186Y013189D01*
X008000Y013375D01*
X008000Y013875D01*
X007500Y014375D01*
X007500Y013375D02*
X007755Y013120D01*
X007755Y012431D01*
X007755Y012175D02*
X006200Y012175D01*
X006188Y012188D01*
X005938Y011688D02*
X007063Y011688D01*
X007343Y011407D01*
X007755Y011407D01*
X007755Y011152D02*
X007223Y011152D01*
X006938Y011438D01*
X006521Y010896D02*
X006500Y010875D01*
X006521Y010896D02*
X007755Y010896D01*
X007755Y010640D02*
X007140Y010640D01*
X007125Y010625D01*
X007321Y010384D02*
X007250Y010313D01*
X006125Y010313D01*
X005938Y010125D01*
X006188Y009813D02*
X006563Y009438D01*
X007250Y009438D01*
X007327Y009360D01*
X007755Y009360D01*
X007755Y009104D02*
X007271Y009104D01*
X007250Y009125D01*
X006777Y008848D02*
X006750Y008875D01*
X006777Y008848D02*
X007755Y008848D01*
X007755Y008593D02*
X007220Y008593D01*
X007188Y008563D01*
X007337Y008337D02*
X007250Y008250D01*
X006813Y008250D01*
X006750Y008188D01*
X007337Y008337D02*
X007755Y008337D01*
X007755Y008081D02*
X008500Y008081D01*
X008544Y008125D01*
X014750Y008125D01*
X015068Y007807D01*
X015068Y006811D01*
X015313Y006822D02*
X015313Y007875D01*
X015580Y007608D01*
X015580Y006811D01*
X015836Y006811D02*
X015836Y006352D01*
X016313Y005875D01*
X016500Y005875D01*
X015500Y005438D02*
X014556Y006381D01*
X014556Y006811D01*
X014300Y006811D02*
X014300Y006171D01*
X014250Y006121D01*
X014044Y006419D02*
X013750Y006125D01*
X013750Y006000D01*
X014044Y006419D02*
X014044Y006811D01*
X013788Y006811D02*
X013788Y007476D01*
X014063Y007750D01*
X013532Y007655D02*
X013438Y007750D01*
X013250Y007938D01*
X010875Y007938D01*
X010813Y007875D01*
X010718Y006811D02*
X010718Y006405D01*
X009688Y005375D01*
X005188Y005375D01*
X005125Y005313D01*
X005375Y005500D02*
X005250Y005625D01*
X004938Y005625D01*
X005188Y005875D02*
X005438Y005625D01*
X009438Y005625D01*
X010206Y006393D01*
X010206Y006811D01*
X010462Y006811D02*
X010462Y006399D01*
X009563Y005500D01*
X005375Y005500D01*
X005688Y005750D02*
X005188Y006250D01*
X005625Y006188D02*
X005938Y005875D01*
X009188Y005875D01*
X009694Y006381D01*
X009694Y006811D01*
X009950Y006811D02*
X009950Y006387D01*
X009313Y005750D01*
X005688Y005750D01*
X006188Y006000D02*
X005438Y006750D01*
X005813Y006750D02*
X006438Y006125D01*
X008938Y006125D01*
X009182Y006370D01*
X009182Y006811D01*
X008926Y006811D02*
X008926Y006364D01*
X008813Y006250D01*
X006563Y006250D01*
X006188Y006625D01*
X006188Y006938D01*
X005875Y007250D01*
X005750Y007250D01*
X006750Y007313D02*
X006875Y007188D01*
X008063Y007188D01*
X008250Y007375D01*
X008563Y007375D01*
X008670Y007267D01*
X008670Y006811D01*
X008414Y006811D02*
X007251Y006811D01*
X007128Y006688D01*
X006750Y006688D01*
X006188Y006000D02*
X009063Y006000D01*
X009438Y006375D01*
X009438Y006811D01*
X010973Y006811D02*
X010973Y006411D01*
X009813Y005250D01*
X006188Y005250D01*
X006063Y005125D01*
X006188Y004875D02*
X005938Y004875D01*
X005688Y005125D01*
X006188Y004875D02*
X006438Y005125D01*
X009938Y005125D01*
X011229Y006417D01*
X011229Y006811D01*
X011485Y006811D02*
X011485Y005724D01*
X011500Y005710D02*
X011522Y005688D01*
X011938Y005688D01*
X013750Y003875D01*
X019500Y003875D01*
X020500Y002875D01*
X021500Y002875D02*
X020250Y004125D01*
X014438Y004125D01*
X014250Y004313D01*
X014250Y005254D01*
X014504Y005254D01*
X014563Y005313D01*
X015500Y005438D02*
X015500Y004875D01*
X016000Y004500D02*
X021500Y004500D01*
X020938Y005125D02*
X017875Y005125D01*
X017625Y004875D01*
X017000Y004875D01*
X017938Y005500D02*
X018063Y005375D01*
X020625Y005375D01*
X020750Y005500D01*
X020750Y005563D01*
X020313Y005688D02*
X019000Y005688D01*
X018563Y005938D02*
X018500Y005875D01*
X018563Y005938D02*
X023563Y005938D01*
X024000Y006375D01*
X028000Y006375D01*
X028500Y006375D01*
X029000Y005875D01*
X031000Y005875D01*
X034500Y005875D01*
X035000Y006375D01*
X035500Y006375D01*
X034500Y006875D02*
X029000Y006875D01*
X028500Y007375D01*
X028000Y007375D01*
X024000Y007375D01*
X023563Y006938D01*
X018875Y006938D01*
X018000Y006375D02*
X022000Y006375D01*
X023500Y006375D01*
X024000Y006875D01*
X028500Y006875D01*
X029000Y006375D01*
X029500Y006375D01*
X032875Y006375D01*
X033375Y007375D02*
X029500Y007375D01*
X029000Y007375D01*
X028500Y007875D01*
X024000Y007875D01*
X023500Y007375D01*
X022000Y007375D01*
X017688Y007375D01*
X017500Y008250D02*
X018750Y008250D01*
X018875Y008375D01*
X018500Y008500D02*
X017560Y008500D01*
X017468Y008593D01*
X016495Y008593D01*
X016495Y008848D02*
X018214Y008848D01*
X018250Y008813D01*
X018438Y009125D02*
X020063Y009125D01*
X020438Y009125D02*
X021000Y009125D01*
X021250Y009375D01*
X022000Y009375D01*
X023500Y009375D01*
X024000Y009875D01*
X028500Y009875D01*
X029000Y009375D01*
X029500Y009375D01*
X033750Y009375D01*
X034500Y008875D02*
X029000Y008875D01*
X028500Y009375D01*
X028000Y009375D01*
X026500Y009375D01*
X024000Y009375D01*
X023500Y008875D01*
X019750Y008875D01*
X019813Y008813D01*
X019813Y008375D01*
X019262Y007825D01*
X016495Y007825D01*
X016495Y008081D02*
X019143Y008081D01*
X019563Y008500D01*
X020063Y008500D02*
X020188Y008375D01*
X022000Y008375D01*
X023500Y008375D01*
X024000Y008875D01*
X028500Y008875D01*
X029000Y008375D01*
X029500Y008375D01*
X034000Y008375D01*
X034500Y007875D02*
X029000Y007875D01*
X028500Y008375D01*
X028000Y008375D01*
X026875Y008375D01*
X024000Y008375D01*
X023563Y007938D01*
X020250Y007938D01*
X020063Y008125D01*
X020375Y009375D02*
X018500Y009375D01*
X017747Y010128D01*
X016495Y010128D01*
X016492Y010125D01*
X016495Y010384D02*
X017804Y010384D01*
X018563Y009625D01*
X020188Y009625D01*
X020500Y009938D01*
X020125Y009938D02*
X018563Y009938D01*
X017860Y010640D01*
X016495Y010640D01*
X016495Y010896D02*
X018104Y010896D01*
X018625Y010375D01*
X018813Y010188D01*
X021313Y010188D01*
X021563Y009938D01*
X022625Y009938D01*
X022750Y010063D01*
X022000Y010375D02*
X019813Y010375D01*
X019313Y010875D01*
X019473Y011152D02*
X016495Y011152D01*
X016495Y011407D02*
X019405Y011407D01*
X019938Y010875D01*
X023500Y010875D01*
X024000Y011375D01*
X024500Y011375D01*
X028000Y011375D01*
X028500Y011375D01*
X029000Y010875D01*
X034500Y010875D01*
X035000Y011375D01*
X035500Y011375D01*
X034500Y011875D02*
X029000Y011875D01*
X028500Y012375D01*
X028000Y012375D01*
X025875Y012375D01*
X024000Y012375D01*
X023563Y011938D01*
X021563Y011938D01*
X021438Y012063D01*
X019438Y012063D01*
X018500Y013063D01*
X016563Y013063D01*
X016375Y012875D01*
X016875Y012750D02*
X016938Y012688D01*
X016938Y012500D01*
X016869Y012431D01*
X016495Y012431D01*
X016495Y012175D02*
X017050Y012175D01*
X017125Y012250D01*
X016495Y011919D02*
X021331Y011919D01*
X021438Y011813D01*
X023688Y011813D01*
X024000Y012125D01*
X025500Y012125D01*
X024750Y013125D02*
X024000Y013125D01*
X023625Y012813D01*
X020250Y012813D01*
X019750Y013313D01*
X016438Y013313D01*
X016125Y013625D02*
X020250Y013625D01*
X020563Y013875D02*
X021063Y013375D01*
X022000Y013375D01*
X023500Y013375D01*
X024000Y013875D01*
X028500Y013875D01*
X029000Y013375D01*
X029500Y013375D01*
X029000Y012875D02*
X028500Y013375D01*
X028000Y013375D01*
X024000Y013375D01*
X023500Y012938D01*
X021188Y012938D01*
X021063Y013063D01*
X021375Y013875D02*
X023500Y013875D01*
X024000Y014375D01*
X025000Y014375D01*
X028000Y014375D01*
X028500Y014375D01*
X029000Y013875D01*
X034500Y013875D01*
X035000Y014375D01*
X035500Y014375D01*
X034500Y014875D02*
X029000Y014875D01*
X028500Y015375D01*
X028000Y015375D01*
X025750Y015375D01*
X025000Y015438D02*
X024000Y015438D01*
X023500Y014938D01*
X021125Y014938D01*
X020750Y015313D01*
X014750Y015313D01*
X013938Y015313D01*
X012765Y014140D01*
X012765Y013189D01*
X013021Y013189D02*
X013021Y012729D01*
X013563Y012188D01*
X013563Y011625D01*
X013875Y012000D02*
X014250Y011625D01*
X013875Y012000D02*
X013875Y012188D01*
X013532Y012530D01*
X013532Y013189D01*
X013277Y013189D02*
X013277Y013848D01*
X013125Y014000D01*
X013625Y014063D02*
X013625Y014625D01*
X013750Y014375D02*
X013750Y014125D01*
X014044Y013831D01*
X014044Y013189D01*
X013788Y013189D02*
X013788Y013899D01*
X013625Y014063D01*
X013750Y014375D02*
X014250Y014875D01*
X018313Y014875D01*
X018500Y015063D01*
X018625Y015563D02*
X019438Y016375D01*
X022000Y016375D01*
X023500Y016375D01*
X024000Y016875D01*
X026250Y016875D01*
X028500Y016875D01*
X029000Y016375D01*
X029500Y016375D01*
X029000Y015875D02*
X028500Y016375D01*
X028000Y016375D01*
X024000Y016375D01*
X023500Y015875D01*
X020438Y015875D01*
X021438Y015438D02*
X016500Y015438D01*
X016125Y015813D01*
X016055Y015882D01*
X016055Y016467D01*
X015740Y016467D02*
X015740Y016115D01*
X015375Y015750D01*
X015250Y016000D02*
X015125Y016000D01*
X015250Y016000D02*
X015425Y016175D01*
X015425Y016467D01*
X015063Y016375D02*
X013250Y016375D01*
X013563Y017063D02*
X012375Y015875D01*
X012375Y013813D01*
X012253Y013690D01*
X012253Y013189D01*
X012253Y012560D01*
X012500Y012313D01*
X012750Y012313D01*
X012875Y012625D02*
X012563Y012625D01*
X012509Y012679D01*
X012509Y013189D01*
X011997Y013189D02*
X011997Y013872D01*
X012000Y013875D01*
X012875Y012625D02*
X013125Y012375D01*
X013125Y012125D01*
X014250Y012250D02*
X014300Y012300D01*
X014300Y013189D01*
X014556Y013189D02*
X014556Y013631D01*
X014000Y014188D01*
X014000Y014250D01*
X014375Y014625D01*
X019000Y014625D01*
X019125Y014375D02*
X019375Y014625D01*
X019125Y014375D02*
X014500Y014375D01*
X014375Y014250D01*
X014375Y014063D01*
X014812Y013625D01*
X014812Y013189D01*
X015068Y013189D02*
X015068Y013620D01*
X014750Y013938D01*
X014750Y014125D01*
X014875Y014250D01*
X019500Y014250D01*
X019688Y014438D01*
X020250Y014375D02*
X022000Y014375D01*
X023500Y014375D01*
X024000Y014875D01*
X026875Y014875D01*
X028500Y014875D01*
X029000Y014375D01*
X029500Y014375D01*
X029500Y015375D02*
X029000Y015375D01*
X028500Y015875D01*
X026875Y015875D01*
X024000Y015875D01*
X023500Y015375D01*
X022000Y015375D01*
X021500Y015375D01*
X021438Y015438D01*
X019625Y016875D02*
X019500Y016750D01*
X019625Y016875D02*
X019625Y017125D01*
X019575Y017175D01*
X019283Y017175D01*
X019283Y017490D02*
X018822Y017490D01*
X018688Y017625D01*
X019283Y017805D02*
X019695Y017805D01*
X019875Y017625D01*
X019283Y018120D02*
X016255Y018120D01*
X015500Y018875D01*
X014717Y018750D02*
X014125Y018750D01*
X014065Y019065D02*
X013563Y018563D01*
X013563Y017063D01*
X013188Y017375D02*
X012563Y016750D01*
X012438Y016750D01*
X012500Y017438D02*
X012500Y018563D01*
X012125Y018250D02*
X011500Y017625D01*
X011500Y017563D01*
X010500Y017438D02*
X010500Y018375D01*
X011500Y019375D01*
X011500Y019813D01*
X011750Y020063D01*
X013188Y020063D01*
X013450Y020325D01*
X014717Y020325D01*
X014717Y020010D02*
X014135Y020010D01*
X013188Y019063D01*
X013188Y017375D01*
X014000Y017875D02*
X014245Y018120D01*
X014717Y018120D01*
X014717Y018435D02*
X013815Y018435D01*
X013813Y018438D01*
X014065Y019065D02*
X014717Y019065D01*
X015308Y019380D02*
X015313Y019375D01*
X016438Y019875D02*
X016685Y020123D01*
X016685Y021033D01*
X017000Y021033D02*
X017000Y021375D01*
X018063Y022438D01*
X026188Y022438D01*
X026438Y022188D01*
X027171Y022188D01*
X027173Y022190D01*
X026625Y022625D02*
X016125Y022625D01*
X015313Y021813D01*
X015313Y021563D01*
X015425Y021450D01*
X015425Y021033D01*
X015740Y021033D02*
X015740Y021635D01*
X015688Y021688D01*
X016055Y021430D02*
X016250Y021625D01*
X016055Y021430D02*
X016055Y021033D01*
X017000Y021033D02*
X017000Y020375D01*
X017315Y020190D02*
X017000Y019875D01*
X017315Y020190D02*
X017315Y021033D01*
X018260Y021033D02*
X018260Y021447D01*
X018688Y021875D01*
X021938Y021875D01*
X024000Y019813D01*
X028438Y019813D01*
X029500Y018750D01*
X029500Y018375D01*
X028500Y017875D02*
X023938Y017875D01*
X023438Y017375D01*
X022000Y017375D01*
X022000Y018375D02*
X020750Y018375D01*
X019813Y019313D01*
X019745Y019380D01*
X019283Y019380D01*
X019283Y019695D02*
X019757Y019695D01*
X019813Y019750D01*
X019283Y020010D02*
X017697Y020010D01*
X019283Y020325D02*
X019637Y020325D01*
X021150Y018813D01*
X021188Y018813D01*
X020875Y019375D02*
X019563Y020688D01*
X019313Y020688D01*
X018575Y021033D02*
X018575Y021450D01*
X018688Y021563D01*
X019000Y021563D01*
X020750Y019813D01*
X022625Y019813D01*
X022000Y019375D02*
X020875Y019375D01*
X019813Y018813D02*
X019750Y018750D01*
X019283Y018750D01*
X019283Y018435D02*
X019690Y018435D01*
X019875Y018250D01*
X018260Y017115D02*
X018250Y017125D01*
X018260Y017115D02*
X018260Y016467D01*
X018575Y016467D02*
X018575Y016012D01*
X018563Y016000D01*
X018625Y015563D02*
X016750Y015563D01*
X016500Y015813D01*
X016370Y015942D01*
X016370Y016467D01*
X016685Y016467D02*
X016685Y016002D01*
X016875Y015813D01*
X017500Y015813D02*
X017630Y015942D01*
X017630Y016467D01*
X017945Y016467D02*
X017945Y015930D01*
X018000Y015875D01*
X017315Y016467D02*
X017315Y017065D01*
X017375Y017125D01*
X016688Y016464D02*
X016685Y016467D01*
X014717Y017175D02*
X014425Y017175D01*
X014375Y017125D01*
X014375Y016875D01*
X014500Y016750D01*
X014125Y017375D02*
X014240Y017490D01*
X014717Y017490D01*
X010813Y016375D02*
X009813Y015375D01*
X005813Y015375D01*
X005438Y015000D01*
X005438Y009000D01*
X004313Y007875D01*
X003563Y007875D01*
X003063Y008375D01*
X003563Y008875D02*
X004313Y008875D01*
X005313Y009875D01*
X005313Y015063D01*
X005750Y015500D01*
X009563Y015500D01*
X010313Y016250D01*
X010313Y016375D01*
X010063Y016250D02*
X009438Y015625D01*
X005688Y015625D01*
X005188Y015125D01*
X005188Y010750D01*
X004313Y009875D01*
X003563Y009875D01*
X003063Y010375D01*
X003563Y010875D02*
X004313Y010875D01*
X005063Y011625D01*
X005063Y015188D01*
X005625Y015750D01*
X009313Y015750D01*
X009813Y016250D01*
X009813Y016375D01*
X010063Y016250D02*
X010063Y016625D01*
X010313Y016875D02*
X010563Y016625D01*
X010313Y016875D02*
X003563Y016875D01*
X003063Y017375D01*
X003063Y016375D02*
X003563Y015875D01*
X004313Y015875D01*
X004938Y016500D01*
X008438Y016500D01*
X008563Y016625D01*
X008813Y016375D02*
X005500Y016375D01*
X004563Y015438D01*
X004563Y015125D01*
X004313Y014875D01*
X003563Y014875D01*
X003063Y015375D01*
X004688Y015375D02*
X004688Y014250D01*
X004313Y013875D01*
X003563Y013875D01*
X003063Y014375D01*
X003063Y013375D02*
X003563Y012875D01*
X004313Y012875D01*
X004813Y013375D01*
X004813Y015313D01*
X005500Y016000D01*
X009063Y016000D01*
X009313Y016250D01*
X009313Y016375D01*
X009563Y016250D02*
X009188Y015875D01*
X005563Y015875D01*
X004938Y015250D01*
X004938Y012563D01*
X004250Y011875D01*
X003563Y011875D01*
X003063Y012375D01*
X003063Y011375D02*
X003563Y010875D01*
X003063Y009375D02*
X003563Y008875D01*
X007250Y007500D02*
X007319Y007569D01*
X007755Y007569D01*
X007749Y007563D01*
X007755Y007825D02*
X008244Y007825D01*
X008500Y008081D01*
X009500Y009188D02*
X009500Y009875D01*
X009000Y010375D01*
X008688Y010375D01*
X008438Y010125D01*
X007758Y010125D01*
X007755Y010128D01*
X007755Y010384D02*
X007321Y010384D01*
X007755Y009616D02*
X008446Y009616D01*
X008688Y009375D01*
X009000Y009375D01*
X009038Y011125D02*
X012500Y011125D01*
X015324Y013189D02*
X015324Y013614D01*
X015125Y013813D01*
X015125Y014000D01*
X015250Y014125D01*
X019938Y014125D01*
X020563Y013875D02*
X016375Y013875D01*
X016250Y014000D01*
X015625Y014000D01*
X015500Y013875D01*
X015580Y013795D01*
X015580Y013189D01*
X015836Y013189D02*
X015836Y013586D01*
X015875Y013625D01*
X016125Y013625D01*
X016495Y011663D02*
X021149Y011663D01*
X021188Y011625D01*
X022000Y011375D02*
X019813Y011375D01*
X019473Y011152D02*
X020000Y010625D01*
X021000Y010625D01*
X020938Y009938D02*
X020375Y009375D01*
X022000Y010375D02*
X023500Y010375D01*
X024000Y010875D01*
X028500Y010875D01*
X029000Y010375D01*
X029500Y010375D01*
X033000Y010375D01*
X034000Y010375D02*
X035500Y010375D01*
X035500Y009375D02*
X035000Y009375D01*
X034500Y008875D01*
X035000Y008375D02*
X034500Y007875D01*
X035000Y007375D02*
X034500Y006875D01*
X035000Y007375D02*
X035500Y007375D01*
X035500Y008375D02*
X035000Y008375D01*
X035000Y005375D02*
X034500Y004875D01*
X031188Y004875D01*
X029000Y004875D01*
X028500Y005375D01*
X028000Y005375D01*
X024000Y005375D01*
X023500Y004875D01*
X018375Y004875D01*
X018313Y004813D01*
X017750Y003625D02*
X018500Y002875D01*
X017500Y002875D02*
X017000Y003375D01*
X012438Y003375D01*
X011563Y004250D01*
X009563Y004250D01*
X009000Y004813D01*
X009500Y004813D02*
X009813Y004500D01*
X011813Y004500D01*
X012688Y003625D01*
X017750Y003625D01*
X020938Y005125D02*
X021000Y005188D01*
X016495Y007569D02*
X015994Y007569D01*
X015125Y008438D01*
X015125Y008500D01*
X014750Y008438D02*
X014500Y008438D01*
X014750Y008438D02*
X015313Y007875D01*
X014812Y007625D02*
X014750Y007688D01*
X014812Y007625D02*
X014812Y006811D01*
X015313Y006822D02*
X015324Y006811D01*
X013532Y006811D02*
X013532Y007655D01*
X013021Y007667D02*
X013000Y007688D01*
X013021Y007667D02*
X013021Y006811D01*
X012765Y006811D02*
X012765Y006360D01*
X013188Y005938D01*
X013188Y005563D01*
X012625Y005563D02*
X012625Y006250D01*
X012509Y006366D01*
X012509Y006811D01*
X012253Y006811D02*
X012253Y006247D01*
X012313Y006188D01*
X011997Y006310D02*
X011875Y006188D01*
X011997Y006310D02*
X011997Y006811D01*
X016495Y008337D02*
X017413Y008337D01*
X017500Y008250D01*
X017979Y009104D02*
X016495Y009104D01*
X016495Y009360D02*
X017673Y009360D01*
X017688Y009375D01*
X017938Y009625D02*
X017375Y009625D01*
X017366Y009616D01*
X016495Y009616D01*
X017938Y009625D02*
X018438Y009125D01*
X018000Y009125D02*
X017979Y009104D01*
X022000Y011375D02*
X023500Y011375D01*
X024000Y011875D01*
X028500Y011875D01*
X029000Y011375D01*
X029500Y011375D01*
X032375Y011375D01*
X031250Y012375D02*
X029500Y012375D01*
X029000Y012375D01*
X028500Y012875D01*
X024000Y012875D01*
X023500Y012375D01*
X022000Y012375D01*
X019813Y012375D01*
X025375Y017375D02*
X028000Y017375D01*
X028500Y017875D02*
X029000Y017375D01*
X029500Y017375D01*
X029000Y015875D02*
X034500Y015875D01*
X035000Y016375D01*
X035500Y016375D01*
X035500Y015375D02*
X035000Y015375D01*
X034500Y014875D01*
X032000Y016500D02*
X032000Y017500D01*
X029563Y019938D01*
X024375Y019938D01*
X022750Y021563D01*
X022000Y021375D02*
X024313Y019063D01*
X024688Y019063D01*
X026313Y018625D02*
X027063Y019375D01*
X028000Y019375D01*
X028000Y020375D02*
X029500Y020375D01*
X030000Y020875D01*
X030000Y021540D01*
X029480Y022190D02*
X029500Y022210D01*
X030961Y022210D02*
X031000Y022170D01*
X030961Y022170D01*
X031500Y019875D02*
X031500Y018875D01*
X033000Y017375D01*
X035500Y017375D01*
X035500Y013375D02*
X035000Y013375D01*
X034500Y012875D01*
X029000Y012875D01*
X034500Y011875D02*
X035000Y012375D01*
X035500Y012375D01*
X026313Y018625D02*
X022813Y018625D01*
X022563Y018875D01*
X022000Y021375D02*
X021125Y021375D01*
X009563Y016625D02*
X009563Y016250D01*
X009063Y016250D02*
X008938Y016125D01*
X005438Y016125D01*
X004688Y015375D01*
X009063Y016250D02*
X009063Y016625D01*
X009438Y013625D02*
X009438Y013189D01*
X008244Y011919D02*
X007755Y011919D01*
X007755Y011663D02*
X008500Y011663D01*
X009038Y011125D01*
X008500Y011663D02*
X008244Y011919D01*
X008488Y003375D02*
X008478Y003365D01*
X008478Y001875D01*
X009147Y001875D02*
X009147Y001665D01*
X009438Y001375D01*
X009790Y001728D01*
X009790Y001875D01*
X010460Y001875D02*
X010460Y003303D01*
X010388Y003375D01*
X035000Y005375D02*
X035500Y005375D01*
D31*
X004357Y004063D02*
X003500Y004920D01*
X003500Y005853D01*
X003500Y005875D01*
X003500Y006313D01*
X003438Y006375D01*
X004063Y006375D01*
X003438Y006375D02*
X003063Y006375D01*
D32*
X005893Y004063D02*
X005893Y003268D01*
X005500Y002875D01*
M02*
