G75*
%MOIN*%
%OFA0B0*%
%FSLAX24Y24*%
%IPPOS*%
%LPD*%
%AMOC8*
5,1,8,0,0,1.08239X$1,22.5*
%
%ADD10C,0.0040*%
%ADD11C,0.0060*%
%ADD12C,0.0030*%
%ADD13R,0.0098X0.0098*%
%ADD14C,0.0050*%
%ADD15C,0.0020*%
%ADD16C,0.0080*%
%ADD17C,0.0100*%
%ADD18C,0.0070*%
%ADD19C,0.0160*%
D10*
X006207Y001028D02*
X006284Y000951D01*
X006591Y000951D01*
X006668Y001028D01*
X006668Y001182D01*
X006591Y001258D01*
X006437Y001258D01*
X006437Y001105D01*
X006284Y001258D02*
X006207Y001182D01*
X006207Y001028D01*
X006207Y001412D02*
X006668Y001719D01*
X006207Y001719D01*
X006207Y001872D02*
X006207Y002102D01*
X006284Y002179D01*
X006591Y002179D01*
X006668Y002102D01*
X006668Y001872D01*
X006207Y001872D01*
X006207Y001412D02*
X006668Y001412D01*
X007983Y001402D02*
X008136Y001555D01*
X008136Y001095D01*
X007983Y001095D02*
X008289Y001095D01*
X008443Y001172D02*
X008520Y001095D01*
X008673Y001095D01*
X008750Y001172D01*
X008750Y001325D01*
X008673Y001402D01*
X008596Y001402D01*
X008443Y001325D01*
X008443Y001555D01*
X008750Y001555D01*
X008903Y001402D02*
X009133Y001402D01*
X009210Y001325D01*
X009210Y001172D01*
X009133Y001095D01*
X008903Y001095D01*
X008903Y000942D02*
X008903Y001402D01*
X009795Y001402D02*
X009948Y001555D01*
X009948Y001095D01*
X009795Y001095D02*
X010102Y001095D01*
X010255Y001172D02*
X010332Y001095D01*
X010486Y001095D01*
X010562Y001172D01*
X010562Y001325D01*
X010486Y001402D01*
X010409Y001402D01*
X010255Y001325D01*
X010255Y001555D01*
X010562Y001555D01*
X010716Y001402D02*
X010946Y001402D01*
X011023Y001325D01*
X011023Y001172D01*
X010946Y001095D01*
X010716Y001095D01*
X010716Y000942D02*
X010716Y001402D01*
X013500Y003458D02*
X013500Y003764D01*
X013500Y003918D02*
X013270Y003918D01*
X013270Y004225D01*
X013270Y004378D02*
X013577Y004378D01*
X013730Y004532D01*
X013577Y004685D01*
X013270Y004685D01*
X013500Y004225D02*
X013653Y004225D01*
X013730Y004148D01*
X013730Y003995D01*
X013653Y003918D01*
X013500Y003918D02*
X013423Y004071D01*
X013423Y004148D01*
X013500Y004225D01*
X013653Y003611D02*
X013346Y003611D01*
X014270Y003688D02*
X014270Y003534D01*
X014346Y003458D01*
X014653Y003458D01*
X014730Y003534D01*
X014730Y003688D01*
X014653Y003764D01*
X014500Y003764D01*
X014500Y003611D01*
X014346Y003764D02*
X014270Y003688D01*
X014270Y003918D02*
X014730Y004225D01*
X014270Y004225D01*
X014270Y004378D02*
X014270Y004608D01*
X014346Y004685D01*
X014653Y004685D01*
X014730Y004608D01*
X014730Y004378D01*
X014270Y004378D01*
X014270Y003918D02*
X014730Y003918D01*
X011155Y005088D02*
X010695Y005088D01*
X010925Y004858D01*
X010925Y005164D01*
X011002Y005318D02*
X010848Y005548D01*
X010695Y005702D02*
X010695Y006008D01*
X010771Y006008D01*
X011078Y005702D01*
X011155Y005702D01*
X011155Y005548D02*
X011002Y005318D01*
X011155Y005318D02*
X010695Y005318D01*
X006668Y003526D02*
X006514Y003679D01*
X006207Y003679D01*
X006207Y003372D02*
X006514Y003372D01*
X006668Y003526D01*
X006591Y003219D02*
X006668Y003142D01*
X006668Y002988D01*
X006591Y002912D01*
X006437Y002912D02*
X006361Y003065D01*
X006361Y003142D01*
X006437Y003219D01*
X006591Y003219D01*
X006437Y002912D02*
X006207Y002912D01*
X006207Y003219D01*
X006437Y002758D02*
X006437Y002451D01*
X006284Y002605D02*
X006591Y002605D01*
X005612Y004545D02*
X005305Y004545D01*
X005152Y004545D02*
X004845Y004545D01*
X004845Y005005D01*
X005305Y004852D02*
X005459Y005005D01*
X005459Y004545D01*
X009426Y009042D02*
X009733Y009042D01*
X009886Y009118D02*
X009886Y009195D01*
X009963Y009272D01*
X010116Y009272D01*
X010193Y009195D01*
X010193Y009118D01*
X010116Y009042D01*
X009963Y009042D01*
X009886Y009118D01*
X009963Y009272D02*
X009886Y009349D01*
X009886Y009425D01*
X009963Y009502D01*
X010116Y009502D01*
X010193Y009425D01*
X010193Y009349D01*
X010116Y009272D01*
X010346Y009272D02*
X010653Y009272D01*
X010807Y009425D02*
X010807Y009118D01*
X010884Y009042D01*
X011037Y009042D01*
X011114Y009118D01*
X011267Y009042D02*
X011574Y009042D01*
X011421Y009042D02*
X011421Y009502D01*
X011267Y009349D01*
X011114Y009425D02*
X011037Y009502D01*
X010884Y009502D01*
X010807Y009425D01*
X010577Y009502D02*
X010577Y009042D01*
X010346Y009272D02*
X010577Y009502D01*
X009733Y009502D02*
X009733Y009425D01*
X009426Y009118D01*
X009426Y009042D01*
X009426Y009502D02*
X009733Y009502D01*
X011728Y009502D02*
X011728Y009272D01*
X011881Y009349D01*
X011958Y009349D01*
X012034Y009272D01*
X012034Y009118D01*
X011958Y009042D01*
X011804Y009042D01*
X011728Y009118D01*
X012188Y009118D02*
X012265Y009042D01*
X012418Y009042D01*
X012495Y009118D01*
X012495Y009195D01*
X012418Y009272D01*
X012265Y009272D01*
X012188Y009349D01*
X012188Y009425D01*
X012265Y009502D01*
X012418Y009502D01*
X012495Y009425D01*
X012648Y009425D02*
X012648Y009118D01*
X012725Y009042D01*
X012879Y009042D01*
X012955Y009118D01*
X012955Y009425D01*
X012879Y009502D01*
X012725Y009502D01*
X012648Y009425D01*
X012802Y009195D02*
X012955Y009042D01*
X013109Y009042D02*
X013109Y009502D01*
X013416Y009502D01*
X013569Y009502D02*
X013799Y009502D01*
X013876Y009425D01*
X013876Y009272D01*
X013799Y009195D01*
X013569Y009195D01*
X013569Y009042D02*
X013569Y009502D01*
X013262Y009272D02*
X013109Y009272D01*
X014030Y009349D02*
X014183Y009502D01*
X014183Y009042D01*
X014030Y009042D02*
X014336Y009042D01*
X014490Y009118D02*
X014797Y009425D01*
X014797Y009118D01*
X014720Y009042D01*
X014567Y009042D01*
X014490Y009118D01*
X014490Y009425D01*
X014567Y009502D01*
X014720Y009502D01*
X014797Y009425D01*
X014950Y009425D02*
X014950Y009118D01*
X015257Y009425D01*
X015257Y009118D01*
X015180Y009042D01*
X015027Y009042D01*
X014950Y009118D01*
X014950Y009425D02*
X015027Y009502D01*
X015180Y009502D01*
X015257Y009425D01*
X012034Y009502D02*
X011728Y009502D01*
X011800Y014295D02*
X011800Y014602D01*
X011877Y014755D02*
X011723Y014986D01*
X011570Y015139D02*
X011570Y015446D01*
X011646Y015446D01*
X011953Y015139D01*
X012030Y015139D01*
X012030Y014986D02*
X011877Y014755D01*
X012030Y014755D02*
X011570Y014755D01*
X011570Y014525D02*
X011800Y014295D01*
X012030Y014525D02*
X011570Y014525D01*
X010627Y017823D02*
X010790Y017986D01*
X010790Y018094D01*
X010573Y018311D01*
X010464Y018311D01*
X010301Y018149D01*
X010627Y017823D01*
X010898Y018203D02*
X011007Y018203D01*
X011115Y018311D01*
X011115Y018420D01*
X011278Y018474D02*
X010952Y018800D01*
X011115Y018963D01*
X011224Y018963D01*
X011441Y018745D01*
X011441Y018637D01*
X011278Y018474D01*
X010898Y018637D02*
X010790Y018637D01*
X010681Y018528D01*
X010681Y018420D01*
X010898Y018203D01*
X009441Y018637D02*
X009441Y018745D01*
X009224Y018963D01*
X009115Y018963D01*
X008952Y018800D01*
X009278Y018474D01*
X009441Y018637D01*
X009115Y018420D02*
X009115Y018311D01*
X009007Y018203D01*
X008898Y018203D01*
X008681Y018420D01*
X008681Y018528D01*
X008790Y018637D01*
X008898Y018637D01*
X008573Y018311D02*
X008464Y018311D01*
X008301Y018149D01*
X008627Y017823D01*
X008790Y017986D01*
X008790Y018094D01*
X008573Y018311D01*
X005367Y019409D02*
X005290Y019333D01*
X005060Y019333D01*
X005060Y019793D01*
X005290Y019793D01*
X005367Y019716D01*
X005367Y019639D01*
X005290Y019563D01*
X005060Y019563D01*
X005290Y019563D02*
X005367Y019486D01*
X005367Y019409D01*
X005367Y020333D02*
X005367Y020639D01*
X005213Y020793D01*
X005060Y020639D01*
X005060Y020333D01*
X005060Y020563D02*
X005367Y020563D01*
X004216Y018242D02*
X004293Y018165D01*
X004293Y017935D01*
X003832Y017935D01*
X003832Y018165D01*
X003909Y018242D01*
X003986Y018242D01*
X004062Y018165D01*
X004062Y017935D01*
X004062Y018165D02*
X004139Y018242D01*
X004216Y018242D01*
X003293Y018242D02*
X002986Y018242D01*
X002832Y018088D01*
X002986Y017935D01*
X003293Y017935D01*
X003062Y017935D02*
X003062Y018242D01*
X014770Y021823D02*
X015077Y021823D01*
X015230Y021823D02*
X015230Y022284D01*
X015461Y022284D01*
X015537Y022207D01*
X015537Y022053D01*
X015461Y021977D01*
X015230Y021977D01*
X014923Y022053D02*
X014770Y022053D01*
X014770Y021823D02*
X014770Y022284D01*
X015077Y022284D01*
X015691Y022284D02*
X015691Y021823D01*
X015998Y021823D02*
X015998Y022284D01*
X015844Y022130D01*
X015691Y022284D01*
X016151Y022284D02*
X016458Y022284D01*
X016458Y022207D01*
X016151Y021900D01*
X016151Y021823D01*
X016612Y021900D02*
X016918Y022207D01*
X016918Y021900D01*
X016842Y021823D01*
X016688Y021823D01*
X016612Y021900D01*
X016612Y022207D01*
X016688Y022284D01*
X016842Y022284D01*
X016918Y022207D01*
X017072Y022053D02*
X017302Y022053D01*
X017379Y021977D01*
X017379Y021900D01*
X017302Y021823D01*
X017149Y021823D01*
X017072Y021900D01*
X017072Y022053D01*
X017225Y022207D01*
X017379Y022284D01*
X017532Y022053D02*
X017839Y022053D01*
X017763Y021823D02*
X017763Y022284D01*
X017532Y022053D01*
X017993Y022284D02*
X018300Y022284D01*
X018146Y022284D02*
X018146Y021823D01*
X018453Y022053D02*
X018760Y022053D01*
X018914Y022053D02*
X019220Y022053D01*
X019144Y021823D02*
X019144Y022284D01*
X018914Y022053D01*
X018683Y021823D02*
X018683Y022284D01*
X018453Y022053D01*
X024468Y022020D02*
X024468Y022480D01*
X024698Y022480D01*
X024775Y022404D01*
X024775Y022250D01*
X024698Y022173D01*
X024468Y022173D01*
X024621Y022173D02*
X024775Y022020D01*
X024928Y022020D02*
X025235Y022020D01*
X025389Y022097D02*
X025466Y022020D01*
X025619Y022020D01*
X025696Y022097D01*
X025696Y022173D01*
X025619Y022250D01*
X025466Y022250D01*
X025389Y022327D01*
X025389Y022404D01*
X025466Y022480D01*
X025619Y022480D01*
X025696Y022404D01*
X025849Y022480D02*
X025849Y022020D01*
X026156Y022020D01*
X026003Y022250D02*
X025849Y022250D01*
X025849Y022480D02*
X026156Y022480D01*
X026310Y022480D02*
X026617Y022480D01*
X026463Y022480D02*
X026463Y022020D01*
X025235Y022480D02*
X024928Y022480D01*
X024928Y022020D01*
X024928Y022250D02*
X025082Y022250D01*
D11*
X025400Y020875D02*
X025398Y020836D01*
X025392Y020797D01*
X025383Y020759D01*
X025370Y020722D01*
X025353Y020686D01*
X025333Y020653D01*
X025309Y020621D01*
X025283Y020592D01*
X025254Y020566D01*
X025222Y020542D01*
X025189Y020522D01*
X025153Y020505D01*
X025116Y020492D01*
X025078Y020483D01*
X025039Y020477D01*
X025000Y020475D01*
X024961Y020477D01*
X024922Y020483D01*
X024884Y020492D01*
X024847Y020505D01*
X024811Y020522D01*
X024778Y020542D01*
X024746Y020566D01*
X024717Y020592D01*
X024691Y020621D01*
X024667Y020653D01*
X024647Y020686D01*
X024630Y020722D01*
X024617Y020759D01*
X024608Y020797D01*
X024602Y020836D01*
X024600Y020875D01*
X022350Y020875D01*
X022350Y004875D01*
X027650Y004875D01*
X027650Y020875D01*
X025400Y020875D01*
X021625Y021125D02*
X021375Y020875D01*
X020875Y020875D01*
X020625Y021125D01*
X020375Y020875D01*
X019875Y020875D01*
X019625Y021125D01*
X019625Y021625D01*
X019875Y021875D01*
X020375Y021875D01*
X020625Y021625D01*
X020875Y021875D01*
X021375Y021875D01*
X021625Y021625D01*
X021625Y021125D01*
X020625Y021125D02*
X020625Y021625D01*
X013500Y020813D02*
X013500Y020313D01*
X013250Y020063D01*
X013500Y019813D01*
X013500Y019313D01*
X013250Y019063D01*
X012750Y019063D01*
X012500Y019313D01*
X012250Y019063D01*
X011750Y019063D01*
X011500Y019313D01*
X011250Y019063D01*
X010750Y019063D01*
X010500Y019313D01*
X010250Y019063D01*
X009750Y019063D01*
X009500Y019313D01*
X009250Y019063D01*
X008750Y019063D01*
X008500Y019313D01*
X008250Y019063D01*
X007750Y019063D01*
X007500Y019313D01*
X007250Y019063D01*
X006750Y019063D01*
X006500Y019313D01*
X006250Y019063D01*
X005750Y019063D01*
X005500Y019313D01*
X005500Y019813D01*
X005750Y020063D01*
X006250Y020063D01*
X006500Y019813D01*
X006750Y020063D01*
X007250Y020063D01*
X007500Y019813D01*
X007500Y019313D01*
X007500Y019813D02*
X007750Y020063D01*
X008250Y020063D01*
X008500Y019813D01*
X008750Y020063D01*
X009250Y020063D01*
X009500Y019813D01*
X009750Y020063D01*
X010250Y020063D01*
X010500Y019813D01*
X010500Y019313D01*
X010500Y019813D02*
X010750Y020063D01*
X011250Y020063D01*
X011500Y019813D01*
X011750Y020063D01*
X012250Y020063D01*
X012500Y019813D01*
X012750Y020063D01*
X013250Y020063D01*
X012750Y020063D01*
X012500Y020313D01*
X012250Y020063D01*
X011750Y020063D01*
X011500Y020313D01*
X011250Y020063D01*
X010750Y020063D01*
X010500Y020313D01*
X010250Y020063D01*
X009750Y020063D01*
X009500Y020313D01*
X009250Y020063D01*
X008750Y020063D01*
X008500Y020313D01*
X008250Y020063D01*
X007750Y020063D01*
X007500Y020313D01*
X007250Y020063D01*
X006750Y020063D01*
X006500Y020313D01*
X006250Y020063D01*
X005750Y020063D01*
X005500Y020313D01*
X005500Y020813D01*
X005750Y021063D01*
X006250Y021063D01*
X006500Y020813D01*
X006750Y021063D01*
X007250Y021063D01*
X007500Y020813D01*
X007500Y020313D01*
X007500Y020813D02*
X007750Y021063D01*
X008250Y021063D01*
X008500Y020813D01*
X008750Y021063D01*
X009250Y021063D01*
X009500Y020813D01*
X009750Y021063D01*
X010250Y021063D01*
X010500Y020813D01*
X010500Y020313D01*
X010500Y020813D02*
X010750Y021063D01*
X011250Y021063D01*
X011500Y020813D01*
X011750Y021063D01*
X012250Y021063D01*
X012500Y020813D01*
X012750Y021063D01*
X013250Y021063D01*
X013500Y020813D01*
X012500Y020813D02*
X012500Y020313D01*
X012500Y019813D02*
X012500Y019313D01*
X011500Y019313D02*
X011500Y019813D01*
X011500Y020313D02*
X011500Y020813D01*
X009500Y020813D02*
X009500Y020313D01*
X009500Y019813D02*
X009500Y019313D01*
X008500Y019313D02*
X008500Y019813D01*
X008500Y020313D02*
X008500Y020813D01*
X006500Y020813D02*
X006500Y020313D01*
X006500Y019813D02*
X006500Y019313D01*
X007250Y018063D02*
X007000Y017813D01*
X007000Y017313D01*
X007250Y017063D01*
X007750Y017063D01*
X008000Y017313D01*
X008000Y017813D01*
X007750Y018063D01*
X007250Y018063D01*
X006559Y017689D02*
X006559Y017582D01*
X006452Y017475D01*
X006132Y017475D01*
X006452Y017475D02*
X006559Y017369D01*
X006559Y017262D01*
X006452Y017155D01*
X006132Y017155D01*
X006132Y017796D01*
X006452Y017796D01*
X006559Y017689D01*
X005914Y017796D02*
X005487Y017796D01*
X005701Y017796D02*
X005701Y017155D01*
X005807Y016796D02*
X005914Y016689D01*
X005487Y016262D01*
X005594Y016155D01*
X005807Y016155D01*
X005914Y016262D01*
X005914Y016689D01*
X005807Y016796D02*
X005594Y016796D01*
X005487Y016689D01*
X005487Y016262D01*
X005270Y016262D02*
X005270Y016689D01*
X005163Y016796D01*
X004843Y016796D01*
X004843Y016155D01*
X005163Y016155D01*
X005270Y016262D01*
X005163Y015796D02*
X004843Y015796D01*
X004843Y015155D01*
X005163Y015155D01*
X005270Y015262D01*
X005270Y015689D01*
X005163Y015796D01*
X005487Y015582D02*
X005701Y015796D01*
X005701Y015155D01*
X005914Y015155D02*
X005487Y015155D01*
X005594Y014796D02*
X005487Y014689D01*
X005594Y014796D02*
X005807Y014796D01*
X005914Y014689D01*
X005914Y014582D01*
X005487Y014155D01*
X005914Y014155D01*
X005807Y013796D02*
X005914Y013689D01*
X005914Y013582D01*
X005807Y013475D01*
X005914Y013369D01*
X005914Y013262D01*
X005807Y013155D01*
X005594Y013155D01*
X005487Y013262D01*
X005270Y013262D02*
X005270Y013689D01*
X005163Y013796D01*
X004843Y013796D01*
X004843Y013155D01*
X005163Y013155D01*
X005270Y013262D01*
X005487Y013689D02*
X005594Y013796D01*
X005807Y013796D01*
X005807Y013475D02*
X005701Y013475D01*
X005163Y014155D02*
X005270Y014262D01*
X005270Y014689D01*
X005163Y014796D01*
X004843Y014796D01*
X004843Y014155D01*
X005163Y014155D01*
X004563Y014125D02*
X004313Y013875D01*
X004563Y013625D01*
X004563Y013125D01*
X004313Y012875D01*
X003813Y012875D01*
X003563Y013125D01*
X003563Y013625D01*
X003813Y013875D01*
X003563Y014125D01*
X003563Y014625D01*
X003813Y014875D01*
X003563Y015125D01*
X003563Y015625D01*
X003813Y015875D01*
X003563Y016125D01*
X003563Y016625D01*
X003813Y016875D01*
X003563Y017125D01*
X003563Y017625D01*
X003813Y017875D01*
X004313Y017875D01*
X004563Y017625D01*
X004563Y017125D01*
X004313Y016875D01*
X004563Y016625D01*
X004563Y016125D01*
X004313Y015875D01*
X003813Y015875D01*
X003563Y015625D02*
X003563Y015125D01*
X003313Y014875D01*
X003563Y014625D01*
X003563Y014125D01*
X003313Y013875D01*
X003563Y013625D01*
X003563Y013125D01*
X003313Y012875D01*
X002813Y012875D01*
X002563Y013125D01*
X002563Y013625D01*
X002813Y013875D01*
X002563Y014125D01*
X002563Y014625D01*
X002813Y014875D01*
X002563Y015125D01*
X002563Y015625D01*
X002813Y015875D01*
X002563Y016125D01*
X002563Y016625D01*
X002813Y016875D01*
X002563Y017125D01*
X002563Y017625D01*
X002813Y017875D01*
X003313Y017875D01*
X003563Y017625D01*
X003563Y017125D01*
X003313Y016875D01*
X003563Y016625D01*
X003563Y016125D01*
X003313Y015875D01*
X002813Y015875D01*
X003313Y015875D02*
X003563Y015625D01*
X004313Y015875D02*
X004563Y015625D01*
X004563Y015125D01*
X004313Y014875D01*
X004563Y014625D01*
X004563Y014125D01*
X004313Y013875D02*
X003813Y013875D01*
X003313Y013875D02*
X002813Y013875D01*
X002813Y012875D02*
X002563Y012625D01*
X002563Y012125D01*
X002813Y011875D01*
X002563Y011625D01*
X002563Y011125D01*
X002813Y010875D01*
X002563Y010625D01*
X002563Y010125D01*
X002813Y009875D01*
X003313Y009875D01*
X003563Y010125D01*
X003563Y010625D01*
X003813Y010875D01*
X003563Y011125D01*
X003563Y011625D01*
X003813Y011875D01*
X003563Y012125D01*
X003563Y012625D01*
X003813Y012875D01*
X003563Y012625D02*
X003563Y012125D01*
X003313Y011875D01*
X003563Y011625D01*
X003563Y011125D01*
X003313Y010875D01*
X003563Y010625D01*
X003563Y010125D01*
X003813Y009875D01*
X004313Y009875D01*
X004563Y010125D01*
X004563Y010625D01*
X004313Y010875D01*
X003813Y010875D01*
X004313Y010875D02*
X004563Y011125D01*
X004563Y011625D01*
X004313Y011875D01*
X003813Y011875D01*
X004313Y011875D02*
X004563Y012125D01*
X004563Y012625D01*
X004313Y012875D01*
X004843Y012796D02*
X005163Y012796D01*
X005270Y012689D01*
X005270Y012262D01*
X005163Y012155D01*
X004843Y012155D01*
X004843Y012796D01*
X005487Y012475D02*
X005914Y012475D01*
X005807Y012155D02*
X005807Y012796D01*
X005487Y012475D01*
X005487Y011796D02*
X005487Y011475D01*
X005701Y011582D01*
X005807Y011582D01*
X005914Y011475D01*
X005914Y011262D01*
X005807Y011155D01*
X005594Y011155D01*
X005487Y011262D01*
X005270Y011262D02*
X005270Y011689D01*
X005163Y011796D01*
X004843Y011796D01*
X004843Y011155D01*
X005163Y011155D01*
X005270Y011262D01*
X005163Y010796D02*
X004843Y010796D01*
X004843Y010155D01*
X005163Y010155D01*
X005270Y010262D01*
X005270Y010689D01*
X005163Y010796D01*
X005487Y010475D02*
X005807Y010475D01*
X005914Y010369D01*
X005914Y010262D01*
X005807Y010155D01*
X005594Y010155D01*
X005487Y010262D01*
X005487Y010475D01*
X005701Y010689D01*
X005914Y010796D01*
X005914Y011796D02*
X005487Y011796D01*
X003563Y012625D02*
X003313Y012875D01*
X003313Y011875D02*
X002813Y011875D01*
X002813Y010875D02*
X003313Y010875D01*
X003313Y009875D02*
X003563Y009625D01*
X003813Y009875D01*
X003563Y009625D02*
X003563Y009125D01*
X003813Y008875D01*
X003563Y008625D01*
X003563Y008125D01*
X003813Y007875D01*
X003563Y007625D01*
X003563Y007125D01*
X003813Y006875D01*
X003563Y006625D01*
X003563Y006125D01*
X003813Y005875D01*
X004313Y005875D01*
X004563Y006125D01*
X004563Y006625D01*
X004313Y006875D01*
X003813Y006875D01*
X003563Y006625D02*
X003563Y006125D01*
X003313Y005875D01*
X002813Y005875D01*
X002563Y006125D01*
X002563Y006625D01*
X002813Y006875D01*
X002563Y007125D01*
X002563Y007625D01*
X002813Y007875D01*
X002563Y008125D01*
X002563Y008625D01*
X002813Y008875D01*
X002563Y009125D01*
X002563Y009625D01*
X002813Y009875D01*
X003563Y009625D02*
X003563Y009125D01*
X003313Y008875D01*
X003563Y008625D01*
X003563Y008125D01*
X003313Y007875D01*
X003563Y007625D01*
X003563Y007125D01*
X003313Y006875D01*
X003563Y006625D01*
X003313Y006875D02*
X002813Y006875D01*
X002813Y007875D02*
X003313Y007875D01*
X003813Y007875D02*
X004313Y007875D01*
X004563Y007625D01*
X004563Y007125D01*
X004313Y006875D01*
X004843Y007262D02*
X004949Y007155D01*
X005163Y007155D01*
X005270Y007262D01*
X005270Y007475D01*
X005056Y007475D01*
X004843Y007689D02*
X004843Y007262D01*
X005487Y007155D02*
X005487Y007796D01*
X005914Y007155D01*
X005914Y007796D01*
X006132Y007796D02*
X006452Y007796D01*
X006559Y007689D01*
X006559Y007262D01*
X006452Y007155D01*
X006132Y007155D01*
X006132Y007796D01*
X006345Y008155D02*
X006345Y008475D01*
X006559Y008689D01*
X006559Y008796D01*
X006345Y008475D02*
X006132Y008689D01*
X006132Y008796D01*
X005914Y008689D02*
X005807Y008796D01*
X005487Y008796D01*
X005487Y008155D01*
X005807Y008155D01*
X005914Y008262D01*
X005914Y008689D01*
X005270Y008689D02*
X005270Y008475D01*
X005163Y008369D01*
X004843Y008369D01*
X005056Y008369D02*
X005270Y008155D01*
X005163Y007796D02*
X004949Y007796D01*
X004843Y007689D01*
X005163Y007796D02*
X005270Y007689D01*
X004843Y008155D02*
X004843Y008796D01*
X005163Y008796D01*
X005270Y008689D01*
X005163Y009155D02*
X005270Y009262D01*
X005270Y009689D01*
X005163Y009796D01*
X004843Y009796D01*
X004843Y009155D01*
X005163Y009155D01*
X005487Y009155D02*
X005487Y009262D01*
X005914Y009689D01*
X005914Y009796D01*
X005487Y009796D01*
X004563Y009625D02*
X004563Y009125D01*
X004313Y008875D01*
X004563Y008625D01*
X004563Y008125D01*
X004313Y007875D01*
X004313Y008875D02*
X003813Y008875D01*
X003313Y008875D02*
X002813Y008875D01*
X004313Y009875D02*
X004563Y009625D01*
X005487Y006796D02*
X005487Y006475D01*
X005701Y006582D01*
X005807Y006582D01*
X005914Y006475D01*
X005914Y006262D01*
X005807Y006155D01*
X005594Y006155D01*
X005487Y006262D01*
X005270Y006475D02*
X004843Y006475D01*
X005056Y006689D02*
X005056Y006262D01*
X005487Y006796D02*
X005914Y006796D01*
X006132Y006796D02*
X006132Y006369D01*
X006345Y006155D01*
X006559Y006369D01*
X006559Y006796D01*
X008288Y004075D02*
X010588Y004075D01*
X009688Y003725D02*
X009688Y003375D01*
X009938Y003375D01*
X009688Y003375D02*
X009688Y003025D01*
X009538Y003025D02*
X009538Y003725D01*
X009338Y003725D01*
X009338Y003025D01*
X009538Y003025D01*
X009188Y003025D02*
X009188Y003375D01*
X008938Y003375D01*
X009188Y003375D02*
X009188Y003725D01*
X008288Y004075D02*
X008237Y004073D01*
X008186Y004068D01*
X008136Y004058D01*
X008086Y004045D01*
X008038Y004029D01*
X007991Y004009D01*
X007945Y003985D01*
X007902Y003959D01*
X007860Y003929D01*
X007821Y003896D01*
X007784Y003861D01*
X007750Y003823D01*
X007719Y003782D01*
X007690Y003740D01*
X007665Y003695D01*
X007644Y003649D01*
X007625Y003601D01*
X007611Y003552D01*
X007600Y003502D01*
X007592Y003452D01*
X007588Y003401D01*
X007588Y003349D01*
X007592Y003298D01*
X007600Y003248D01*
X007611Y003198D01*
X007625Y003149D01*
X007644Y003101D01*
X007665Y003055D01*
X007690Y003010D01*
X007719Y002968D01*
X007750Y002927D01*
X007784Y002889D01*
X007821Y002854D01*
X007860Y002821D01*
X007902Y002791D01*
X007945Y002765D01*
X007991Y002741D01*
X008038Y002721D01*
X008086Y002705D01*
X008136Y002692D01*
X008186Y002682D01*
X008237Y002677D01*
X008288Y002675D01*
X010588Y002675D01*
X010639Y002677D01*
X010690Y002682D01*
X010740Y002692D01*
X010790Y002705D01*
X010838Y002721D01*
X010885Y002741D01*
X010931Y002765D01*
X010974Y002791D01*
X011016Y002821D01*
X011055Y002854D01*
X011092Y002889D01*
X011126Y002927D01*
X011157Y002968D01*
X011186Y003010D01*
X011211Y003055D01*
X011232Y003101D01*
X011251Y003149D01*
X011265Y003198D01*
X011276Y003248D01*
X011284Y003298D01*
X011288Y003349D01*
X011288Y003401D01*
X011284Y003452D01*
X011276Y003502D01*
X011265Y003552D01*
X011251Y003601D01*
X011232Y003649D01*
X011211Y003695D01*
X011186Y003740D01*
X011157Y003782D01*
X011126Y003823D01*
X011092Y003861D01*
X011055Y003896D01*
X011016Y003929D01*
X010974Y003959D01*
X010931Y003985D01*
X010885Y004009D01*
X010838Y004029D01*
X010790Y004045D01*
X010740Y004058D01*
X010690Y004068D01*
X010639Y004073D01*
X010588Y004075D01*
X013000Y003125D02*
X013000Y001625D01*
X013250Y001375D01*
X013750Y001375D01*
X014000Y001625D01*
X014000Y003125D01*
X013750Y003375D01*
X013250Y003375D01*
X013000Y003125D01*
X014000Y003125D02*
X014250Y003375D01*
X014750Y003375D01*
X015000Y003125D01*
X015000Y001625D01*
X014750Y001375D01*
X014250Y001375D01*
X014000Y001625D01*
X015000Y001625D02*
X015250Y001375D01*
X015750Y001375D01*
X016000Y001625D01*
X016000Y003125D01*
X016250Y003375D01*
X016750Y003375D01*
X017000Y003125D01*
X017000Y001625D01*
X016750Y001375D01*
X016250Y001375D01*
X016000Y001625D01*
X017000Y001625D02*
X017250Y001375D01*
X017750Y001375D01*
X018000Y001625D01*
X018000Y003125D01*
X018250Y003375D01*
X018750Y003375D01*
X019000Y003125D01*
X019000Y001625D01*
X018750Y001375D01*
X018250Y001375D01*
X018000Y001625D01*
X019000Y001625D02*
X019250Y001375D01*
X019750Y001375D01*
X020000Y001625D01*
X020000Y003125D01*
X020250Y003375D01*
X020750Y003375D01*
X021000Y003125D01*
X021000Y001625D01*
X020750Y001375D01*
X020250Y001375D01*
X020000Y001625D01*
X021000Y001625D02*
X021250Y001375D01*
X021750Y001375D01*
X022000Y001625D01*
X022000Y003125D01*
X022250Y003375D01*
X022750Y003375D01*
X023000Y003125D01*
X023000Y001625D01*
X022750Y001375D01*
X022250Y001375D01*
X022000Y001625D01*
X023000Y001625D02*
X023250Y001375D01*
X023750Y001375D01*
X024000Y001625D01*
X024000Y003125D01*
X024250Y003375D01*
X024750Y003375D01*
X025000Y003125D01*
X025000Y001625D01*
X024750Y001375D01*
X024250Y001375D01*
X024000Y001625D01*
X025000Y001625D02*
X025250Y001375D01*
X025750Y001375D01*
X026000Y001625D01*
X026000Y003125D01*
X026250Y003375D01*
X026750Y003375D01*
X027000Y003125D01*
X027000Y001625D01*
X026750Y001375D01*
X026250Y001375D01*
X026000Y001625D01*
X027000Y001625D02*
X027250Y001375D01*
X027750Y001375D01*
X028000Y001625D01*
X028000Y003125D01*
X027750Y003375D01*
X027250Y003375D01*
X027000Y003125D01*
X026000Y003125D02*
X025750Y003375D01*
X025250Y003375D01*
X025000Y003125D01*
X024000Y003125D02*
X023750Y003375D01*
X023250Y003375D01*
X023000Y003125D01*
X022000Y003125D02*
X021750Y003375D01*
X021250Y003375D01*
X021000Y003125D01*
X020000Y003125D02*
X019750Y003375D01*
X019250Y003375D01*
X019000Y003125D01*
X018000Y003125D02*
X017750Y003375D01*
X017250Y003375D01*
X017000Y003125D01*
X016000Y003125D02*
X015750Y003375D01*
X015250Y003375D01*
X015000Y003125D01*
X006000Y003125D02*
X006000Y002625D01*
X005750Y002375D01*
X006000Y002125D01*
X006000Y001625D01*
X005750Y001375D01*
X005250Y001375D01*
X005000Y001625D01*
X005000Y002125D01*
X005250Y002375D01*
X005000Y002625D01*
X005000Y003125D01*
X005250Y003375D01*
X005750Y003375D01*
X006000Y003125D01*
X005750Y002375D02*
X005250Y002375D01*
X001350Y003375D02*
X001352Y003442D01*
X001358Y003510D01*
X001368Y003577D01*
X001382Y003643D01*
X001399Y003708D01*
X001421Y003772D01*
X001446Y003835D01*
X001475Y003896D01*
X001507Y003955D01*
X001543Y004012D01*
X001582Y004067D01*
X001624Y004120D01*
X001669Y004170D01*
X001717Y004217D01*
X001768Y004262D01*
X001821Y004303D01*
X001877Y004342D01*
X001935Y004377D01*
X001995Y004408D01*
X002056Y004436D01*
X002119Y004460D01*
X002183Y004481D01*
X002249Y004497D01*
X002315Y004510D01*
X002382Y004519D01*
X002449Y004524D01*
X002517Y004525D01*
X002584Y004522D01*
X002651Y004515D01*
X002718Y004504D01*
X002784Y004489D01*
X002849Y004471D01*
X002913Y004448D01*
X002975Y004422D01*
X003036Y004393D01*
X003094Y004359D01*
X003151Y004323D01*
X003206Y004283D01*
X003258Y004240D01*
X003307Y004194D01*
X003354Y004145D01*
X003398Y004094D01*
X003438Y004040D01*
X003476Y003984D01*
X003510Y003925D01*
X003540Y003865D01*
X003567Y003803D01*
X003591Y003740D01*
X003610Y003675D01*
X003626Y003610D01*
X003638Y003543D01*
X003646Y003476D01*
X003650Y003409D01*
X003650Y003341D01*
X003646Y003274D01*
X003638Y003207D01*
X003626Y003140D01*
X003610Y003075D01*
X003591Y003010D01*
X003567Y002947D01*
X003540Y002885D01*
X003510Y002825D01*
X003476Y002766D01*
X003438Y002710D01*
X003398Y002656D01*
X003354Y002605D01*
X003307Y002556D01*
X003258Y002510D01*
X003206Y002467D01*
X003151Y002427D01*
X003094Y002391D01*
X003036Y002357D01*
X002975Y002328D01*
X002913Y002302D01*
X002849Y002279D01*
X002784Y002261D01*
X002718Y002246D01*
X002651Y002235D01*
X002584Y002228D01*
X002517Y002225D01*
X002449Y002226D01*
X002382Y002231D01*
X002315Y002240D01*
X002249Y002253D01*
X002183Y002269D01*
X002119Y002290D01*
X002056Y002314D01*
X001995Y002342D01*
X001935Y002373D01*
X001877Y002408D01*
X001821Y002447D01*
X001768Y002488D01*
X001717Y002533D01*
X001669Y002580D01*
X001624Y002630D01*
X001582Y002683D01*
X001543Y002738D01*
X001507Y002795D01*
X001475Y002854D01*
X001446Y002915D01*
X001421Y002978D01*
X001399Y003042D01*
X001382Y003107D01*
X001368Y003173D01*
X001358Y003240D01*
X001352Y003308D01*
X001350Y003375D01*
X002813Y014875D02*
X003313Y014875D01*
X003813Y014875D02*
X004313Y014875D01*
X004313Y016875D02*
X003813Y016875D01*
X003313Y016875D02*
X002813Y016875D01*
X004843Y017262D02*
X004949Y017155D01*
X005163Y017155D01*
X005270Y017262D01*
X005270Y017369D01*
X005163Y017475D01*
X004949Y017475D01*
X004843Y017582D01*
X004843Y017689D01*
X004949Y017796D01*
X005163Y017796D01*
X005270Y017689D01*
X008000Y017688D02*
X008000Y017188D01*
X008250Y016938D01*
X008750Y016938D01*
X009000Y017188D01*
X009000Y017688D01*
X008750Y017938D01*
X008250Y017938D01*
X008000Y017688D01*
X009000Y017813D02*
X009000Y017313D01*
X009250Y017063D01*
X009750Y017063D01*
X010000Y017313D01*
X010000Y017813D01*
X009750Y018063D01*
X009250Y018063D01*
X009000Y017813D01*
X010000Y017688D02*
X010250Y017938D01*
X010750Y017938D01*
X011000Y017688D01*
X011000Y017188D01*
X010750Y016938D01*
X010250Y016938D01*
X010000Y017188D01*
X010000Y017688D01*
X011000Y017813D02*
X011000Y017313D01*
X011250Y017063D01*
X011750Y017063D01*
X012000Y017313D01*
X012000Y017813D01*
X011750Y018063D01*
X011250Y018063D01*
X011000Y017813D01*
X012000Y017688D02*
X012000Y017188D01*
X012250Y016938D01*
X012750Y016938D01*
X013000Y017188D01*
X013000Y017688D01*
X012750Y017938D01*
X012250Y017938D01*
X012000Y017688D01*
X001350Y020375D02*
X001352Y020442D01*
X001358Y020510D01*
X001368Y020577D01*
X001382Y020643D01*
X001399Y020708D01*
X001421Y020772D01*
X001446Y020835D01*
X001475Y020896D01*
X001507Y020955D01*
X001543Y021012D01*
X001582Y021067D01*
X001624Y021120D01*
X001669Y021170D01*
X001717Y021217D01*
X001768Y021262D01*
X001821Y021303D01*
X001877Y021342D01*
X001935Y021377D01*
X001995Y021408D01*
X002056Y021436D01*
X002119Y021460D01*
X002183Y021481D01*
X002249Y021497D01*
X002315Y021510D01*
X002382Y021519D01*
X002449Y021524D01*
X002517Y021525D01*
X002584Y021522D01*
X002651Y021515D01*
X002718Y021504D01*
X002784Y021489D01*
X002849Y021471D01*
X002913Y021448D01*
X002975Y021422D01*
X003036Y021393D01*
X003094Y021359D01*
X003151Y021323D01*
X003206Y021283D01*
X003258Y021240D01*
X003307Y021194D01*
X003354Y021145D01*
X003398Y021094D01*
X003438Y021040D01*
X003476Y020984D01*
X003510Y020925D01*
X003540Y020865D01*
X003567Y020803D01*
X003591Y020740D01*
X003610Y020675D01*
X003626Y020610D01*
X003638Y020543D01*
X003646Y020476D01*
X003650Y020409D01*
X003650Y020341D01*
X003646Y020274D01*
X003638Y020207D01*
X003626Y020140D01*
X003610Y020075D01*
X003591Y020010D01*
X003567Y019947D01*
X003540Y019885D01*
X003510Y019825D01*
X003476Y019766D01*
X003438Y019710D01*
X003398Y019656D01*
X003354Y019605D01*
X003307Y019556D01*
X003258Y019510D01*
X003206Y019467D01*
X003151Y019427D01*
X003094Y019391D01*
X003036Y019357D01*
X002975Y019328D01*
X002913Y019302D01*
X002849Y019279D01*
X002784Y019261D01*
X002718Y019246D01*
X002651Y019235D01*
X002584Y019228D01*
X002517Y019225D01*
X002449Y019226D01*
X002382Y019231D01*
X002315Y019240D01*
X002249Y019253D01*
X002183Y019269D01*
X002119Y019290D01*
X002056Y019314D01*
X001995Y019342D01*
X001935Y019373D01*
X001877Y019408D01*
X001821Y019447D01*
X001768Y019488D01*
X001717Y019533D01*
X001669Y019580D01*
X001624Y019630D01*
X001582Y019683D01*
X001543Y019738D01*
X001507Y019795D01*
X001475Y019854D01*
X001446Y019915D01*
X001421Y019978D01*
X001399Y020042D01*
X001382Y020107D01*
X001368Y020173D01*
X001358Y020240D01*
X001352Y020308D01*
X001350Y020375D01*
X023879Y016431D02*
X023879Y016217D01*
X023986Y016110D01*
X023879Y016431D02*
X023986Y016537D01*
X024093Y016537D01*
X024520Y016110D01*
X024520Y016537D01*
X024520Y015893D02*
X024520Y015466D01*
X024520Y015679D02*
X023879Y015679D01*
X024093Y015466D01*
X024093Y015248D02*
X024200Y015142D01*
X024200Y014928D01*
X024093Y014821D01*
X023986Y014821D01*
X023879Y014928D01*
X023879Y015142D01*
X023986Y015248D01*
X024093Y015248D01*
X024200Y015142D02*
X024306Y015248D01*
X024413Y015248D01*
X024520Y015142D01*
X024520Y014928D01*
X024413Y014821D01*
X024306Y014821D01*
X024200Y014928D01*
X024093Y014604D02*
X023986Y014604D01*
X023879Y014497D01*
X023879Y014284D01*
X023986Y014177D01*
X023879Y013959D02*
X023986Y013746D01*
X024200Y013532D01*
X024200Y013853D01*
X024306Y013959D01*
X024413Y013959D01*
X024520Y013853D01*
X024520Y013639D01*
X024413Y013532D01*
X024200Y013532D01*
X024520Y014177D02*
X024093Y014604D01*
X024520Y014604D02*
X024520Y014177D01*
X029900Y018825D02*
X029900Y004925D01*
X035100Y004925D01*
X035100Y018825D01*
X033000Y018825D01*
X032998Y018781D01*
X032992Y018738D01*
X032983Y018696D01*
X032970Y018654D01*
X032953Y018614D01*
X032933Y018575D01*
X032910Y018538D01*
X032883Y018504D01*
X032854Y018471D01*
X032821Y018442D01*
X032787Y018415D01*
X032750Y018392D01*
X032711Y018372D01*
X032671Y018355D01*
X032629Y018342D01*
X032587Y018333D01*
X032544Y018327D01*
X032500Y018325D01*
X032456Y018327D01*
X032413Y018333D01*
X032371Y018342D01*
X032329Y018355D01*
X032289Y018372D01*
X032250Y018392D01*
X032213Y018415D01*
X032179Y018442D01*
X032146Y018471D01*
X032117Y018504D01*
X032090Y018538D01*
X032067Y018575D01*
X032047Y018614D01*
X032030Y018654D01*
X032017Y018696D01*
X032008Y018738D01*
X032002Y018781D01*
X032000Y018825D01*
X029900Y018825D01*
X030250Y019375D02*
X030000Y019625D01*
X030000Y020125D01*
X030250Y020375D01*
X030750Y020375D01*
X031000Y020125D01*
X031250Y020375D01*
X031750Y020375D01*
X032000Y020125D01*
X032250Y020375D01*
X032750Y020375D01*
X033000Y020125D01*
X033000Y019625D01*
X032750Y019375D01*
X032250Y019375D01*
X032000Y019625D01*
X031750Y019375D01*
X031250Y019375D01*
X031000Y019625D01*
X030750Y019375D01*
X030250Y019375D01*
X031000Y019625D02*
X031000Y020125D01*
X032000Y020125D02*
X032000Y019625D01*
X033350Y020375D02*
X033352Y020442D01*
X033358Y020510D01*
X033368Y020577D01*
X033382Y020643D01*
X033399Y020708D01*
X033421Y020772D01*
X033446Y020835D01*
X033475Y020896D01*
X033507Y020955D01*
X033543Y021012D01*
X033582Y021067D01*
X033624Y021120D01*
X033669Y021170D01*
X033717Y021217D01*
X033768Y021262D01*
X033821Y021303D01*
X033877Y021342D01*
X033935Y021377D01*
X033995Y021408D01*
X034056Y021436D01*
X034119Y021460D01*
X034183Y021481D01*
X034249Y021497D01*
X034315Y021510D01*
X034382Y021519D01*
X034449Y021524D01*
X034517Y021525D01*
X034584Y021522D01*
X034651Y021515D01*
X034718Y021504D01*
X034784Y021489D01*
X034849Y021471D01*
X034913Y021448D01*
X034975Y021422D01*
X035036Y021393D01*
X035094Y021359D01*
X035151Y021323D01*
X035206Y021283D01*
X035258Y021240D01*
X035307Y021194D01*
X035354Y021145D01*
X035398Y021094D01*
X035438Y021040D01*
X035476Y020984D01*
X035510Y020925D01*
X035540Y020865D01*
X035567Y020803D01*
X035591Y020740D01*
X035610Y020675D01*
X035626Y020610D01*
X035638Y020543D01*
X035646Y020476D01*
X035650Y020409D01*
X035650Y020341D01*
X035646Y020274D01*
X035638Y020207D01*
X035626Y020140D01*
X035610Y020075D01*
X035591Y020010D01*
X035567Y019947D01*
X035540Y019885D01*
X035510Y019825D01*
X035476Y019766D01*
X035438Y019710D01*
X035398Y019656D01*
X035354Y019605D01*
X035307Y019556D01*
X035258Y019510D01*
X035206Y019467D01*
X035151Y019427D01*
X035094Y019391D01*
X035036Y019357D01*
X034975Y019328D01*
X034913Y019302D01*
X034849Y019279D01*
X034784Y019261D01*
X034718Y019246D01*
X034651Y019235D01*
X034584Y019228D01*
X034517Y019225D01*
X034449Y019226D01*
X034382Y019231D01*
X034315Y019240D01*
X034249Y019253D01*
X034183Y019269D01*
X034119Y019290D01*
X034056Y019314D01*
X033995Y019342D01*
X033935Y019373D01*
X033877Y019408D01*
X033821Y019447D01*
X033768Y019488D01*
X033717Y019533D01*
X033669Y019580D01*
X033624Y019630D01*
X033582Y019683D01*
X033543Y019738D01*
X033507Y019795D01*
X033475Y019854D01*
X033446Y019915D01*
X033421Y019978D01*
X033399Y020042D01*
X033382Y020107D01*
X033368Y020173D01*
X033358Y020240D01*
X033352Y020308D01*
X033350Y020375D01*
X032750Y003375D02*
X032250Y003375D01*
X032000Y003125D01*
X032000Y001625D01*
X031750Y001375D01*
X031250Y001375D01*
X031000Y001625D01*
X031000Y003125D01*
X030750Y003375D01*
X030250Y003375D01*
X030000Y003125D01*
X030000Y001625D01*
X029750Y001375D01*
X029250Y001375D01*
X029000Y001625D01*
X029000Y003125D01*
X028750Y003375D01*
X028250Y003375D01*
X028000Y003125D01*
X029000Y003125D02*
X029250Y003375D01*
X029750Y003375D01*
X030000Y003125D01*
X031000Y003125D02*
X031250Y003375D01*
X031750Y003375D01*
X032000Y003125D01*
X032750Y003375D02*
X033000Y003125D01*
X033000Y001625D01*
X032750Y001375D01*
X032250Y001375D01*
X032000Y001625D01*
X031000Y001625D02*
X030750Y001375D01*
X030250Y001375D01*
X030000Y001625D01*
X029000Y001625D02*
X028750Y001375D01*
X028250Y001375D01*
X028000Y001625D01*
X033350Y003375D02*
X033352Y003442D01*
X033358Y003510D01*
X033368Y003577D01*
X033382Y003643D01*
X033399Y003708D01*
X033421Y003772D01*
X033446Y003835D01*
X033475Y003896D01*
X033507Y003955D01*
X033543Y004012D01*
X033582Y004067D01*
X033624Y004120D01*
X033669Y004170D01*
X033717Y004217D01*
X033768Y004262D01*
X033821Y004303D01*
X033877Y004342D01*
X033935Y004377D01*
X033995Y004408D01*
X034056Y004436D01*
X034119Y004460D01*
X034183Y004481D01*
X034249Y004497D01*
X034315Y004510D01*
X034382Y004519D01*
X034449Y004524D01*
X034517Y004525D01*
X034584Y004522D01*
X034651Y004515D01*
X034718Y004504D01*
X034784Y004489D01*
X034849Y004471D01*
X034913Y004448D01*
X034975Y004422D01*
X035036Y004393D01*
X035094Y004359D01*
X035151Y004323D01*
X035206Y004283D01*
X035258Y004240D01*
X035307Y004194D01*
X035354Y004145D01*
X035398Y004094D01*
X035438Y004040D01*
X035476Y003984D01*
X035510Y003925D01*
X035540Y003865D01*
X035567Y003803D01*
X035591Y003740D01*
X035610Y003675D01*
X035626Y003610D01*
X035638Y003543D01*
X035646Y003476D01*
X035650Y003409D01*
X035650Y003341D01*
X035646Y003274D01*
X035638Y003207D01*
X035626Y003140D01*
X035610Y003075D01*
X035591Y003010D01*
X035567Y002947D01*
X035540Y002885D01*
X035510Y002825D01*
X035476Y002766D01*
X035438Y002710D01*
X035398Y002656D01*
X035354Y002605D01*
X035307Y002556D01*
X035258Y002510D01*
X035206Y002467D01*
X035151Y002427D01*
X035094Y002391D01*
X035036Y002357D01*
X034975Y002328D01*
X034913Y002302D01*
X034849Y002279D01*
X034784Y002261D01*
X034718Y002246D01*
X034651Y002235D01*
X034584Y002228D01*
X034517Y002225D01*
X034449Y002226D01*
X034382Y002231D01*
X034315Y002240D01*
X034249Y002253D01*
X034183Y002269D01*
X034119Y002290D01*
X034056Y002314D01*
X033995Y002342D01*
X033935Y002373D01*
X033877Y002408D01*
X033821Y002447D01*
X033768Y002488D01*
X033717Y002533D01*
X033669Y002580D01*
X033624Y002630D01*
X033582Y002683D01*
X033543Y002738D01*
X033507Y002795D01*
X033475Y002854D01*
X033446Y002915D01*
X033421Y002978D01*
X033399Y003042D01*
X033382Y003107D01*
X033368Y003173D01*
X033358Y003240D01*
X033352Y003308D01*
X033350Y003375D01*
D12*
X032753Y003626D02*
X032705Y003578D01*
X032608Y003578D01*
X032560Y003626D01*
X032753Y003819D01*
X032753Y003626D01*
X032560Y003626D02*
X032560Y003819D01*
X032608Y003868D01*
X032705Y003868D01*
X032753Y003819D01*
X032705Y004058D02*
X032608Y004058D01*
X032560Y004106D01*
X032753Y004299D01*
X032753Y004106D01*
X032705Y004058D01*
X032560Y004106D02*
X032560Y004299D01*
X032608Y004348D01*
X032705Y004348D01*
X032753Y004299D01*
X032458Y004299D02*
X032458Y004106D01*
X032410Y004058D01*
X032265Y004058D01*
X032265Y004348D01*
X032410Y004348D01*
X032458Y004299D01*
X032362Y003868D02*
X032458Y003771D01*
X032458Y003578D01*
X032458Y003723D02*
X032265Y003723D01*
X032265Y003771D02*
X032362Y003868D01*
X032265Y003771D02*
X032265Y003578D01*
X031753Y003578D02*
X031560Y003578D01*
X031656Y003578D02*
X031656Y003868D01*
X031560Y003771D01*
X031458Y003771D02*
X031362Y003868D01*
X031265Y003771D01*
X031265Y003578D01*
X031265Y003723D02*
X031458Y003723D01*
X031458Y003771D02*
X031458Y003578D01*
X031410Y004058D02*
X031458Y004106D01*
X031458Y004299D01*
X031410Y004348D01*
X031265Y004348D01*
X031265Y004058D01*
X031410Y004058D01*
X031560Y004058D02*
X031753Y004058D01*
X031656Y004058D02*
X031656Y004348D01*
X031560Y004251D01*
X030753Y004251D02*
X030560Y004058D01*
X030753Y004058D01*
X030753Y004251D02*
X030753Y004299D01*
X030705Y004348D01*
X030608Y004348D01*
X030560Y004299D01*
X030458Y004299D02*
X030410Y004348D01*
X030265Y004348D01*
X030265Y004058D01*
X030410Y004058D01*
X030458Y004106D01*
X030458Y004299D01*
X030362Y003868D02*
X030458Y003771D01*
X030458Y003578D01*
X030560Y003578D02*
X030753Y003771D01*
X030753Y003819D01*
X030705Y003868D01*
X030608Y003868D01*
X030560Y003819D01*
X030458Y003723D02*
X030265Y003723D01*
X030265Y003771D02*
X030362Y003868D01*
X030265Y003771D02*
X030265Y003578D01*
X030560Y003578D02*
X030753Y003578D01*
X029753Y003626D02*
X029705Y003578D01*
X029608Y003578D01*
X029560Y003626D01*
X029458Y003578D02*
X029458Y003771D01*
X029362Y003868D01*
X029265Y003771D01*
X029265Y003578D01*
X029265Y003723D02*
X029458Y003723D01*
X029560Y003819D02*
X029608Y003868D01*
X029705Y003868D01*
X029753Y003819D01*
X029753Y003771D01*
X029705Y003723D01*
X029753Y003674D01*
X029753Y003626D01*
X029705Y003723D02*
X029656Y003723D01*
X029608Y004058D02*
X029560Y004106D01*
X029608Y004058D02*
X029705Y004058D01*
X029753Y004106D01*
X029753Y004154D01*
X029705Y004203D01*
X029656Y004203D01*
X029705Y004203D02*
X029753Y004251D01*
X029753Y004299D01*
X029705Y004348D01*
X029608Y004348D01*
X029560Y004299D01*
X029458Y004299D02*
X029410Y004348D01*
X029265Y004348D01*
X029265Y004058D01*
X029410Y004058D01*
X029458Y004106D01*
X029458Y004299D01*
X028753Y004203D02*
X028560Y004203D01*
X028705Y004348D01*
X028705Y004058D01*
X028705Y003868D02*
X028560Y003723D01*
X028753Y003723D01*
X028705Y003578D02*
X028705Y003868D01*
X028458Y003771D02*
X028458Y003578D01*
X028458Y003723D02*
X028265Y003723D01*
X028265Y003771D02*
X028362Y003868D01*
X028458Y003771D01*
X028265Y003771D02*
X028265Y003578D01*
X028265Y004058D02*
X028410Y004058D01*
X028458Y004106D01*
X028458Y004299D01*
X028410Y004348D01*
X028265Y004348D01*
X028265Y004058D01*
X027753Y004106D02*
X027705Y004058D01*
X027608Y004058D01*
X027560Y004106D01*
X027560Y004203D02*
X027656Y004251D01*
X027705Y004251D01*
X027753Y004203D01*
X027753Y004106D01*
X027560Y004203D02*
X027560Y004348D01*
X027753Y004348D01*
X027458Y004299D02*
X027458Y004106D01*
X027410Y004058D01*
X027265Y004058D01*
X027265Y004348D01*
X027410Y004348D01*
X027458Y004299D01*
X026753Y004348D02*
X026656Y004299D01*
X026560Y004203D01*
X026705Y004203D01*
X026753Y004154D01*
X026753Y004106D01*
X026705Y004058D01*
X026608Y004058D01*
X026560Y004106D01*
X026560Y004203D01*
X026458Y004106D02*
X026458Y004299D01*
X026410Y004348D01*
X026265Y004348D01*
X026265Y004058D01*
X026410Y004058D01*
X026458Y004106D01*
X026362Y003868D02*
X026458Y003771D01*
X026458Y003578D01*
X026560Y003626D02*
X026608Y003578D01*
X026705Y003578D01*
X026753Y003626D01*
X026753Y003674D01*
X026705Y003723D01*
X026560Y003723D01*
X026560Y003626D01*
X026560Y003723D02*
X026656Y003819D01*
X026753Y003868D01*
X026458Y003723D02*
X026265Y003723D01*
X026265Y003771D02*
X026362Y003868D01*
X026265Y003771D02*
X026265Y003578D01*
X025753Y003819D02*
X025560Y003626D01*
X025560Y003578D01*
X025458Y003578D02*
X025458Y003771D01*
X025362Y003868D01*
X025265Y003771D01*
X025265Y003578D01*
X025265Y003723D02*
X025458Y003723D01*
X025560Y003868D02*
X025753Y003868D01*
X025753Y003819D01*
X025560Y004058D02*
X025560Y004106D01*
X025753Y004299D01*
X025753Y004348D01*
X025560Y004348D01*
X025458Y004299D02*
X025410Y004348D01*
X025265Y004348D01*
X025265Y004058D01*
X025410Y004058D01*
X025458Y004106D01*
X025458Y004299D01*
X024753Y004299D02*
X024753Y004106D01*
X024705Y004058D01*
X024560Y004058D01*
X024560Y004348D01*
X024705Y004348D01*
X024753Y004299D01*
X024458Y004299D02*
X024458Y004203D01*
X024410Y004154D01*
X024265Y004154D01*
X024265Y004058D02*
X024265Y004348D01*
X024410Y004348D01*
X024458Y004299D01*
X024362Y004154D02*
X024458Y004058D01*
X024362Y003868D02*
X024458Y003771D01*
X024458Y003578D01*
X024560Y003626D02*
X024560Y003674D01*
X024608Y003723D01*
X024705Y003723D01*
X024753Y003674D01*
X024753Y003626D01*
X024705Y003578D01*
X024608Y003578D01*
X024560Y003626D01*
X024608Y003723D02*
X024560Y003771D01*
X024560Y003819D01*
X024608Y003868D01*
X024705Y003868D01*
X024753Y003819D01*
X024753Y003771D01*
X024705Y003723D01*
X024458Y003723D02*
X024265Y003723D01*
X024265Y003771D02*
X024362Y003868D01*
X024265Y003771D02*
X024265Y003578D01*
X023753Y003626D02*
X023753Y003819D01*
X023705Y003868D01*
X023608Y003868D01*
X023560Y003819D01*
X023560Y003771D01*
X023608Y003723D01*
X023753Y003723D01*
X023753Y003626D02*
X023705Y003578D01*
X023608Y003578D01*
X023560Y003626D01*
X023458Y003578D02*
X023458Y003771D01*
X023362Y003868D01*
X023265Y003771D01*
X023265Y003578D01*
X023265Y003723D02*
X023458Y003723D01*
X023458Y004058D02*
X023362Y004154D01*
X023265Y004058D01*
X023265Y004348D01*
X023079Y004299D02*
X023079Y004106D01*
X023031Y004058D01*
X022934Y004058D01*
X022886Y004106D01*
X022886Y004299D01*
X022934Y004348D01*
X023031Y004348D01*
X023079Y004299D01*
X022982Y004154D02*
X023079Y004058D01*
X022932Y003868D02*
X022981Y003819D01*
X022787Y003626D01*
X022836Y003578D01*
X022932Y003578D01*
X022981Y003626D01*
X022981Y003819D01*
X022932Y003868D02*
X022836Y003868D01*
X022787Y003819D01*
X022787Y003626D01*
X022686Y003578D02*
X022493Y003578D01*
X022589Y003578D02*
X022589Y003868D01*
X022493Y003771D01*
X022392Y003771D02*
X022392Y003578D01*
X022392Y003723D02*
X022198Y003723D01*
X022198Y003771D02*
X022295Y003868D01*
X022392Y003771D01*
X022198Y003771D02*
X022198Y003578D01*
X022048Y003578D02*
X021854Y003578D01*
X021951Y003578D02*
X021951Y003868D01*
X021854Y003771D01*
X021753Y003578D02*
X021560Y003578D01*
X021656Y003578D02*
X021656Y003868D01*
X021560Y003771D01*
X021458Y003771D02*
X021362Y003868D01*
X021265Y003771D01*
X021265Y003578D01*
X021265Y003723D02*
X021458Y003723D01*
X021458Y003771D02*
X021458Y003578D01*
X021048Y003578D02*
X020854Y003578D01*
X021048Y003771D01*
X021048Y003819D01*
X020999Y003868D01*
X020903Y003868D01*
X020854Y003819D01*
X020656Y003868D02*
X020656Y003578D01*
X020560Y003578D02*
X020753Y003578D01*
X020560Y003771D02*
X020656Y003868D01*
X020560Y004058D02*
X020560Y004348D01*
X020656Y004251D01*
X020753Y004348D01*
X020753Y004058D01*
X020854Y004058D02*
X020951Y004058D01*
X020903Y004058D02*
X020903Y004348D01*
X020951Y004348D02*
X020854Y004348D01*
X020458Y004348D02*
X020458Y004058D01*
X020265Y004348D01*
X020265Y004058D01*
X020362Y003868D02*
X020458Y003771D01*
X020458Y003578D01*
X020458Y003723D02*
X020265Y003723D01*
X020265Y003771D02*
X020362Y003868D01*
X020265Y003771D02*
X020265Y003578D01*
X020048Y003626D02*
X019999Y003578D01*
X019903Y003578D01*
X019854Y003626D01*
X019753Y003578D02*
X019560Y003578D01*
X019656Y003578D02*
X019656Y003868D01*
X019560Y003771D01*
X019458Y003771D02*
X019458Y003578D01*
X019458Y003723D02*
X019265Y003723D01*
X019265Y003771D02*
X019362Y003868D01*
X019458Y003771D01*
X019265Y003771D02*
X019265Y003578D01*
X019048Y003723D02*
X018854Y003723D01*
X018999Y003868D01*
X018999Y003578D01*
X018753Y003578D02*
X018560Y003578D01*
X018656Y003578D02*
X018656Y003868D01*
X018560Y003771D01*
X018458Y003771D02*
X018458Y003578D01*
X018458Y003723D02*
X018265Y003723D01*
X018265Y003771D02*
X018362Y003868D01*
X018458Y003771D01*
X018265Y003771D02*
X018265Y003578D01*
X018048Y003626D02*
X017999Y003578D01*
X017903Y003578D01*
X017854Y003626D01*
X017854Y003723D02*
X017951Y003771D01*
X017999Y003771D01*
X018048Y003723D01*
X018048Y003626D01*
X017854Y003723D02*
X017854Y003868D01*
X018048Y003868D01*
X018048Y004058D02*
X017854Y004058D01*
X017951Y004058D02*
X017951Y004348D01*
X017854Y004251D01*
X017753Y004299D02*
X017705Y004348D01*
X017608Y004348D01*
X017560Y004299D01*
X017560Y004251D01*
X017608Y004203D01*
X017705Y004203D01*
X017753Y004154D01*
X017753Y004106D01*
X017705Y004058D01*
X017608Y004058D01*
X017560Y004106D01*
X017458Y004106D02*
X017410Y004058D01*
X017313Y004058D01*
X017265Y004106D01*
X017265Y004299D01*
X017313Y004348D01*
X017410Y004348D01*
X017458Y004299D01*
X017164Y004563D02*
X017164Y004757D01*
X017115Y004805D01*
X017019Y004805D01*
X016970Y004757D01*
X016970Y004563D01*
X017019Y004515D01*
X017115Y004515D01*
X017164Y004563D01*
X016871Y004515D02*
X016774Y004515D01*
X016822Y004515D02*
X016822Y004805D01*
X016774Y004805D02*
X016871Y004805D01*
X016872Y004995D02*
X017066Y004995D01*
X016969Y004995D02*
X016969Y005285D01*
X016872Y005188D01*
X016771Y005140D02*
X016674Y005140D01*
X016771Y005140D02*
X016771Y005043D01*
X016723Y004995D01*
X016626Y004995D01*
X016578Y005043D01*
X016578Y005237D01*
X016626Y005285D01*
X016723Y005285D01*
X016771Y005237D01*
X016476Y005237D02*
X016476Y005140D01*
X016428Y005092D01*
X016283Y005092D01*
X016380Y005092D02*
X016476Y004995D01*
X016479Y004805D02*
X016673Y004805D01*
X016576Y004805D02*
X016576Y004515D01*
X016378Y004515D02*
X016185Y004805D01*
X016083Y004805D02*
X015890Y004805D01*
X015890Y004515D01*
X016083Y004515D01*
X016185Y004515D02*
X016378Y004805D01*
X016283Y004995D02*
X016283Y005285D01*
X016428Y005285D01*
X016476Y005237D01*
X016182Y005285D02*
X015988Y005285D01*
X016085Y005285D02*
X016085Y004995D01*
X016104Y005422D02*
X016055Y005470D01*
X016055Y005519D01*
X016104Y005567D01*
X016200Y005567D01*
X016249Y005519D01*
X016249Y005470D01*
X016200Y005422D01*
X016104Y005422D01*
X016104Y005567D02*
X016055Y005615D01*
X016055Y005664D01*
X016104Y005712D01*
X016200Y005712D01*
X016249Y005664D01*
X016249Y005615D01*
X016200Y005567D01*
X015954Y005567D02*
X015761Y005567D01*
X015906Y005712D01*
X015906Y005422D01*
X015659Y005422D02*
X015466Y005422D01*
X015563Y005422D02*
X015563Y005712D01*
X015466Y005615D01*
X015365Y005567D02*
X015171Y005567D01*
X015316Y005712D01*
X015316Y005422D01*
X015070Y005422D02*
X015070Y005712D01*
X014877Y005712D02*
X015070Y005422D01*
X014877Y005422D02*
X014877Y005712D01*
X014679Y005712D02*
X014582Y005615D01*
X014679Y005712D02*
X014679Y005422D01*
X014775Y005422D02*
X014582Y005422D01*
X015890Y004660D02*
X015987Y004660D01*
X015822Y004348D02*
X015822Y004058D01*
X015918Y004058D02*
X015725Y004058D01*
X015624Y004106D02*
X015575Y004058D01*
X015479Y004058D01*
X015430Y004106D01*
X015430Y004299D01*
X015479Y004348D01*
X015575Y004348D01*
X015624Y004299D01*
X015725Y004251D02*
X015822Y004348D01*
X015329Y004348D02*
X015136Y004348D01*
X015232Y004348D02*
X015232Y004058D01*
X015182Y003868D02*
X015182Y003819D01*
X015085Y003723D01*
X015085Y003578D01*
X015085Y003723D02*
X014988Y003819D01*
X014988Y003868D01*
X014887Y003819D02*
X014839Y003868D01*
X014742Y003868D01*
X014694Y003819D01*
X014694Y003771D01*
X014742Y003723D01*
X014839Y003723D01*
X014887Y003674D01*
X014887Y003626D01*
X014839Y003578D01*
X014742Y003578D01*
X014694Y003626D01*
X015283Y003626D02*
X015331Y003578D01*
X015428Y003578D01*
X015476Y003626D01*
X015476Y003674D01*
X015428Y003723D01*
X015331Y003723D01*
X015283Y003771D01*
X015283Y003819D01*
X015331Y003868D01*
X015428Y003868D01*
X015476Y003819D01*
X015578Y003819D02*
X015578Y003626D01*
X015626Y003578D01*
X015723Y003578D01*
X015771Y003626D01*
X015872Y003578D02*
X016066Y003578D01*
X016167Y003578D02*
X016167Y003868D01*
X016215Y003723D02*
X016360Y003578D01*
X016167Y003674D02*
X016360Y003868D01*
X015872Y003868D02*
X015872Y003578D01*
X015771Y003819D02*
X015723Y003868D01*
X015626Y003868D01*
X015578Y003819D01*
X017265Y003771D02*
X017362Y003868D01*
X017458Y003771D01*
X017458Y003578D01*
X017560Y003578D02*
X017753Y003578D01*
X017656Y003578D02*
X017656Y003868D01*
X017560Y003771D01*
X017458Y003723D02*
X017265Y003723D01*
X017265Y003771D02*
X017265Y003578D01*
X018265Y004106D02*
X018265Y004299D01*
X018313Y004348D01*
X018410Y004348D01*
X018458Y004299D01*
X018560Y004299D02*
X018560Y004251D01*
X018608Y004203D01*
X018705Y004203D01*
X018753Y004154D01*
X018753Y004106D01*
X018705Y004058D01*
X018608Y004058D01*
X018560Y004106D01*
X018458Y004106D02*
X018410Y004058D01*
X018313Y004058D01*
X018265Y004106D01*
X018560Y004299D02*
X018608Y004348D01*
X018705Y004348D01*
X018753Y004299D01*
X018854Y004299D02*
X018903Y004348D01*
X018999Y004348D01*
X019048Y004299D01*
X018854Y004106D01*
X018903Y004058D01*
X018999Y004058D01*
X019048Y004106D01*
X019048Y004299D01*
X018854Y004299D02*
X018854Y004106D01*
X019265Y004058D02*
X019265Y004348D01*
X019362Y004251D01*
X019458Y004348D01*
X019458Y004058D01*
X019560Y004058D02*
X019753Y004058D01*
X019656Y004058D02*
X019656Y004348D01*
X019560Y004251D01*
X019903Y003868D02*
X019999Y003868D01*
X020048Y003819D01*
X020048Y003771D01*
X019999Y003723D01*
X020048Y003674D01*
X020048Y003626D01*
X019999Y003723D02*
X019951Y003723D01*
X019854Y003819D02*
X019903Y003868D01*
X021265Y004058D02*
X021362Y004058D01*
X021313Y004058D02*
X021313Y004348D01*
X021265Y004348D02*
X021362Y004348D01*
X021461Y004348D02*
X021655Y004058D01*
X021655Y004348D01*
X021756Y004348D02*
X021950Y004348D01*
X021853Y004348D02*
X021853Y004058D01*
X022100Y004058D02*
X022197Y004058D01*
X022148Y004058D02*
X022148Y004348D01*
X022100Y004348D02*
X022197Y004348D01*
X022296Y004299D02*
X022296Y004106D01*
X022345Y004058D01*
X022441Y004058D01*
X022490Y004106D01*
X022490Y004299D01*
X022441Y004348D01*
X022345Y004348D01*
X022296Y004299D01*
X022591Y004348D02*
X022736Y004348D01*
X022784Y004299D01*
X022784Y004203D01*
X022736Y004154D01*
X022591Y004154D01*
X022591Y004058D02*
X022591Y004348D01*
X022688Y004154D02*
X022784Y004058D01*
X023458Y004058D02*
X023458Y004348D01*
X023560Y004348D02*
X023705Y004348D01*
X023753Y004299D01*
X023753Y004203D01*
X023705Y004154D01*
X023560Y004154D01*
X023656Y004154D02*
X023753Y004058D01*
X023560Y004058D02*
X023560Y004348D01*
X021461Y004348D02*
X021461Y004058D01*
X027265Y003771D02*
X027362Y003868D01*
X027458Y003771D01*
X027458Y003578D01*
X027560Y003626D02*
X027608Y003578D01*
X027705Y003578D01*
X027753Y003626D01*
X027753Y003723D01*
X027705Y003771D01*
X027656Y003771D01*
X027560Y003723D01*
X027560Y003868D01*
X027753Y003868D01*
X027458Y003723D02*
X027265Y003723D01*
X027265Y003771D02*
X027265Y003578D01*
X012795Y018126D02*
X012882Y018213D01*
X012882Y018300D01*
X012795Y018126D02*
X012708Y018126D01*
X012533Y018300D01*
X012533Y018388D01*
X012621Y018475D01*
X012708Y018475D01*
X012750Y018604D02*
X012925Y018779D01*
X012837Y018692D02*
X013099Y018430D01*
X013229Y018647D02*
X013316Y018647D01*
X013403Y018734D01*
X013403Y018821D01*
X013360Y018865D01*
X013272Y018865D01*
X013185Y018777D01*
X013098Y018777D01*
X013054Y018821D01*
X013054Y018908D01*
X013141Y018996D01*
X013229Y018996D01*
X012447Y018777D02*
X012272Y018777D01*
X012316Y018821D02*
X012185Y018690D01*
X012272Y018603D02*
X012011Y018865D01*
X012141Y018996D01*
X012229Y018996D01*
X012316Y018908D01*
X012316Y018821D01*
X011925Y018779D02*
X011750Y018604D01*
X011837Y018692D02*
X012099Y018430D01*
X011882Y018300D02*
X011708Y018475D01*
X011621Y018475D01*
X011490Y018344D01*
X011752Y018082D01*
X011882Y018213D01*
X011882Y018300D01*
X010403Y018734D02*
X010316Y018647D01*
X010229Y018647D01*
X010185Y018777D02*
X010272Y018865D01*
X010360Y018865D01*
X010403Y018821D01*
X010403Y018734D01*
X010185Y018777D02*
X010098Y018777D01*
X010054Y018821D01*
X010054Y018908D01*
X010141Y018996D01*
X010229Y018996D01*
X009925Y018779D02*
X009750Y018604D01*
X009837Y018692D02*
X010099Y018430D01*
X009926Y018257D02*
X009752Y018257D01*
X009795Y018300D02*
X009664Y018169D01*
X009752Y018082D02*
X009490Y018344D01*
X009621Y018475D01*
X009708Y018475D01*
X009795Y018388D01*
X009795Y018300D01*
X008403Y018734D02*
X008272Y018603D01*
X008011Y018865D01*
X008141Y018996D01*
X008229Y018996D01*
X008403Y018821D01*
X008403Y018734D01*
X008187Y018517D02*
X007750Y018604D01*
X007708Y018475D02*
X007795Y018388D01*
X007795Y018300D01*
X007664Y018169D01*
X007752Y018082D02*
X007490Y018344D01*
X007621Y018475D01*
X007708Y018475D01*
X007752Y018257D02*
X007926Y018257D01*
X008012Y018342D02*
X007925Y018779D01*
X007403Y018821D02*
X007229Y018996D01*
X007141Y018996D01*
X007011Y018865D01*
X007272Y018603D01*
X007403Y018734D01*
X007403Y018821D01*
X007187Y018517D02*
X006750Y018604D01*
X006664Y018518D02*
X006490Y018344D01*
X006577Y018431D02*
X006839Y018169D01*
X007012Y018342D02*
X006925Y018779D01*
X006403Y018821D02*
X006229Y018996D01*
X006141Y018996D01*
X006011Y018865D01*
X006272Y018603D01*
X006403Y018734D01*
X006403Y018821D01*
X006143Y018561D02*
X006143Y018473D01*
X006056Y018386D01*
X005968Y018386D01*
X005794Y018561D01*
X005794Y018648D01*
X005881Y018735D01*
X005968Y018735D01*
X005708Y018475D02*
X005621Y018475D01*
X005490Y018344D01*
X005752Y018082D01*
X005882Y018213D01*
X005882Y018300D01*
X005708Y018475D01*
X029202Y020478D02*
X029493Y020478D01*
X029493Y020381D02*
X029493Y020575D01*
X029444Y020676D02*
X029493Y020724D01*
X029493Y020821D01*
X029444Y020869D01*
X029202Y020869D01*
X029202Y020970D02*
X029202Y021164D01*
X029347Y021067D02*
X029347Y020970D01*
X029202Y020970D02*
X029493Y020970D01*
X029444Y020676D02*
X029202Y020676D01*
X029202Y020478D02*
X029299Y020381D01*
X029827Y020429D02*
X029827Y020526D01*
X029876Y020575D01*
X029924Y020575D01*
X029972Y020526D01*
X029972Y020429D01*
X029924Y020381D01*
X029876Y020381D01*
X029827Y020429D01*
X029972Y020429D02*
X030021Y020381D01*
X030069Y020381D01*
X030118Y020429D01*
X030118Y020526D01*
X030069Y020575D01*
X030021Y020575D01*
X029972Y020526D01*
X029876Y020676D02*
X029827Y020724D01*
X029827Y020821D01*
X029876Y020869D01*
X029924Y020869D01*
X030118Y020676D01*
X030118Y020869D01*
X030118Y020970D02*
X029827Y020970D01*
X029972Y021019D02*
X030118Y021164D01*
X030327Y021115D02*
X030376Y021164D01*
X030569Y020970D01*
X030618Y021019D01*
X030618Y021115D01*
X030569Y021164D01*
X030376Y021164D01*
X030327Y021115D02*
X030327Y021019D01*
X030376Y020970D01*
X030569Y020970D01*
X030569Y020869D02*
X030618Y020821D01*
X030618Y020724D01*
X030569Y020676D01*
X030569Y020575D02*
X030618Y020526D01*
X030618Y020429D01*
X030569Y020381D01*
X030472Y020478D02*
X030472Y020526D01*
X030521Y020575D01*
X030569Y020575D01*
X030472Y020526D02*
X030424Y020575D01*
X030376Y020575D01*
X030327Y020526D01*
X030327Y020429D01*
X030376Y020381D01*
X030376Y020676D02*
X030327Y020724D01*
X030327Y020821D01*
X030376Y020869D01*
X030424Y020869D01*
X030472Y020821D01*
X030521Y020869D01*
X030569Y020869D01*
X030472Y020821D02*
X030472Y020772D01*
X030021Y020970D02*
X029827Y021164D01*
D13*
X031000Y021826D03*
D14*
X031275Y021790D02*
X031275Y021565D01*
X031725Y021565D01*
X031575Y021565D02*
X031575Y021790D01*
X031500Y021865D01*
X031350Y021865D01*
X031275Y021790D01*
X031575Y021715D02*
X031725Y021865D01*
X031725Y021404D02*
X031275Y021404D01*
X031275Y021104D02*
X031725Y021104D01*
X031575Y021254D01*
X031725Y021404D01*
X031500Y020944D02*
X031575Y020869D01*
X031575Y020644D01*
X031725Y020644D02*
X031275Y020644D01*
X031275Y020869D01*
X031350Y020944D01*
X031500Y020944D01*
X032430Y021030D02*
X032505Y020955D01*
X032805Y020955D01*
X032880Y021030D01*
X032880Y021181D01*
X032805Y021256D01*
X032505Y021256D01*
X032430Y021181D01*
X032430Y021030D01*
X032505Y020795D02*
X032655Y020795D01*
X032730Y020720D01*
X032730Y020495D01*
X032880Y020495D02*
X032430Y020495D01*
X032430Y020720D01*
X032505Y020795D01*
X032730Y020645D02*
X032880Y020795D01*
X032880Y021416D02*
X032430Y021416D01*
X032580Y021566D01*
X032430Y021716D01*
X032880Y021716D01*
X032880Y021876D02*
X032730Y022026D01*
X032880Y022176D01*
X032430Y022176D01*
X032430Y022337D02*
X032430Y022562D01*
X032505Y022637D01*
X032655Y022637D01*
X032730Y022562D01*
X032730Y022337D01*
X032730Y022487D02*
X032880Y022637D01*
X032880Y022337D02*
X032430Y022337D01*
X032430Y021876D02*
X032880Y021876D01*
X031375Y023075D02*
X005375Y023075D01*
X005235Y023073D01*
X005095Y023067D01*
X004955Y023057D01*
X004815Y023044D01*
X004676Y023026D01*
X004537Y023004D01*
X004400Y022979D01*
X004262Y022950D01*
X004126Y022917D01*
X003991Y022880D01*
X003857Y022839D01*
X003724Y022794D01*
X003592Y022746D01*
X003462Y022694D01*
X003333Y022639D01*
X003206Y022580D01*
X003080Y022517D01*
X002956Y022451D01*
X002835Y022382D01*
X002715Y022309D01*
X002597Y022232D01*
X002482Y022153D01*
X002368Y022070D01*
X002258Y021984D01*
X002149Y021895D01*
X002043Y021803D01*
X001940Y021708D01*
X001839Y021611D01*
X001742Y021510D01*
X001647Y021407D01*
X001555Y021301D01*
X001466Y021192D01*
X001380Y021082D01*
X001297Y020968D01*
X001218Y020853D01*
X001141Y020735D01*
X001068Y020615D01*
X000999Y020494D01*
X000933Y020370D01*
X000870Y020244D01*
X000811Y020117D01*
X000756Y019988D01*
X000704Y019858D01*
X000656Y019726D01*
X000611Y019593D01*
X000570Y019459D01*
X000533Y019324D01*
X000500Y019188D01*
X000471Y019050D01*
X000446Y018913D01*
X000424Y018774D01*
X000406Y018635D01*
X000393Y018495D01*
X000383Y018355D01*
X000377Y018215D01*
X000375Y018075D01*
X000375Y005675D01*
X004305Y003437D02*
X004380Y003512D01*
X004530Y003512D01*
X004605Y003437D01*
X004605Y003212D01*
X004605Y003362D02*
X004755Y003512D01*
X004755Y003212D02*
X004305Y003212D01*
X004305Y003437D01*
X004305Y003051D02*
X004305Y002751D01*
X004755Y002751D01*
X004755Y003051D01*
X004530Y002901D02*
X004530Y002751D01*
X004755Y002591D02*
X004305Y002591D01*
X004305Y002291D02*
X004755Y002291D01*
X004605Y002441D01*
X004755Y002591D01*
X004680Y002131D02*
X004380Y002131D01*
X004305Y002056D01*
X004305Y001905D01*
X004380Y001830D01*
X004680Y001830D01*
X004755Y001905D01*
X004755Y002056D01*
X004680Y002131D01*
X004530Y001670D02*
X004380Y001670D01*
X004305Y001595D01*
X004305Y001370D01*
X004755Y001370D01*
X004605Y001370D02*
X004605Y001595D01*
X004530Y001670D01*
X005375Y000675D02*
X031375Y000675D01*
X031515Y000677D01*
X031655Y000683D01*
X031795Y000693D01*
X031935Y000706D01*
X032074Y000724D01*
X032213Y000746D01*
X032350Y000771D01*
X032488Y000800D01*
X032624Y000833D01*
X032759Y000870D01*
X032893Y000911D01*
X033026Y000956D01*
X033158Y001004D01*
X033288Y001056D01*
X033417Y001111D01*
X033544Y001170D01*
X033670Y001233D01*
X033794Y001299D01*
X033915Y001368D01*
X034035Y001441D01*
X034153Y001518D01*
X034268Y001597D01*
X034382Y001680D01*
X034492Y001766D01*
X034601Y001855D01*
X034707Y001947D01*
X034810Y002042D01*
X034911Y002139D01*
X035008Y002240D01*
X035103Y002343D01*
X035195Y002449D01*
X035284Y002558D01*
X035370Y002668D01*
X035453Y002782D01*
X035532Y002897D01*
X035609Y003015D01*
X035682Y003135D01*
X035751Y003256D01*
X035817Y003380D01*
X035880Y003506D01*
X035939Y003633D01*
X035994Y003762D01*
X036046Y003892D01*
X036094Y004024D01*
X036139Y004157D01*
X036180Y004291D01*
X036217Y004426D01*
X036250Y004562D01*
X036279Y004700D01*
X036304Y004837D01*
X036326Y004976D01*
X036344Y005115D01*
X036357Y005255D01*
X036367Y005395D01*
X036373Y005535D01*
X036375Y005675D01*
X036375Y018075D01*
X036373Y018215D01*
X036367Y018355D01*
X036357Y018495D01*
X036344Y018635D01*
X036326Y018774D01*
X036304Y018913D01*
X036279Y019050D01*
X036250Y019188D01*
X036217Y019324D01*
X036180Y019459D01*
X036139Y019593D01*
X036094Y019726D01*
X036046Y019858D01*
X035994Y019988D01*
X035939Y020117D01*
X035880Y020244D01*
X035817Y020370D01*
X035751Y020494D01*
X035682Y020615D01*
X035609Y020735D01*
X035532Y020853D01*
X035453Y020968D01*
X035370Y021082D01*
X035284Y021192D01*
X035195Y021301D01*
X035103Y021407D01*
X035008Y021510D01*
X034911Y021611D01*
X034810Y021708D01*
X034707Y021803D01*
X034601Y021895D01*
X034492Y021984D01*
X034382Y022070D01*
X034268Y022153D01*
X034153Y022232D01*
X034035Y022309D01*
X033915Y022382D01*
X033794Y022451D01*
X033670Y022517D01*
X033544Y022580D01*
X033417Y022639D01*
X033288Y022694D01*
X033158Y022746D01*
X033026Y022794D01*
X032893Y022839D01*
X032759Y022880D01*
X032624Y022917D01*
X032488Y022950D01*
X032350Y022979D01*
X032213Y023004D01*
X032074Y023026D01*
X031935Y023044D01*
X031795Y023057D01*
X031655Y023067D01*
X031515Y023073D01*
X031375Y023075D01*
X028591Y022466D02*
X027409Y022466D01*
X027409Y021284D02*
X028591Y021284D01*
X020945Y020345D02*
X020495Y020345D01*
X020495Y020570D01*
X020570Y020645D01*
X020720Y020645D01*
X020795Y020570D01*
X020795Y020345D01*
X020945Y020184D02*
X020945Y019884D01*
X020495Y019884D01*
X020495Y020184D01*
X020720Y020034D02*
X020720Y019884D01*
X020945Y019724D02*
X020945Y019424D01*
X020495Y019424D01*
X020495Y019724D01*
X020720Y019574D02*
X020720Y019424D01*
X020795Y019264D02*
X020720Y019189D01*
X020720Y018963D01*
X020945Y018963D02*
X020495Y018963D01*
X020495Y019189D01*
X020570Y019264D01*
X020645Y019264D01*
X020720Y019189D01*
X020795Y019264D02*
X020870Y019264D01*
X020945Y019189D01*
X020945Y018963D01*
X012905Y016589D02*
X012905Y016483D01*
X012799Y016377D01*
X012692Y016377D01*
X012480Y016589D01*
X012480Y016695D01*
X012586Y016801D01*
X012692Y016801D01*
X012905Y016589D01*
X012579Y016264D02*
X012367Y016476D01*
X012261Y016476D01*
X012101Y016317D01*
X012420Y015998D01*
X012579Y016157D01*
X012579Y016264D01*
X011988Y016203D02*
X011776Y015991D01*
X011882Y016097D02*
X012201Y015779D01*
X011642Y016157D02*
X011642Y016264D01*
X011642Y016157D02*
X011536Y016051D01*
X011429Y016051D01*
X011217Y016264D01*
X011217Y016370D01*
X011323Y016476D01*
X011429Y016476D01*
X011490Y016642D02*
X011808Y016324D01*
X011702Y016430D02*
X011702Y016855D01*
X011702Y016536D02*
X012020Y016536D01*
X011023Y016538D02*
X010917Y016432D01*
X010970Y016485D02*
X010651Y016804D01*
X010598Y016751D02*
X010704Y016857D01*
X010538Y016584D02*
X010432Y016584D01*
X010273Y016425D01*
X010591Y016107D01*
X010750Y016266D01*
X010750Y016372D01*
X010538Y016584D01*
X010159Y016312D02*
X009947Y016100D01*
X010053Y016206D02*
X010372Y015887D01*
X009695Y016211D02*
X009376Y016529D01*
X009376Y016317D01*
X009164Y016317D01*
X009482Y015998D01*
X009263Y015779D02*
X008945Y016097D01*
X009051Y016203D02*
X008838Y015991D01*
X008695Y016211D02*
X008376Y016529D01*
X008490Y016642D02*
X008649Y016801D01*
X008755Y016801D01*
X008967Y016589D01*
X008967Y016483D01*
X008808Y016324D01*
X008490Y016642D01*
X008164Y016317D02*
X008695Y016211D01*
X008482Y015998D02*
X008164Y016317D01*
X008104Y016150D02*
X007998Y016150D01*
X007892Y016044D01*
X007892Y015938D01*
X008104Y015726D01*
X008210Y015726D01*
X008316Y015832D01*
X008316Y015938D01*
X008210Y016044D01*
X008104Y015938D01*
X007642Y016157D02*
X007642Y016264D01*
X007642Y016157D02*
X007536Y016051D01*
X007429Y016051D01*
X007217Y016264D01*
X007217Y016370D01*
X007323Y016476D01*
X007429Y016476D01*
X007543Y016589D02*
X007755Y016377D01*
X007861Y016377D01*
X007967Y016483D01*
X007967Y016589D01*
X007755Y016801D02*
X007649Y016801D01*
X007543Y016695D01*
X007543Y016589D01*
X007051Y016203D02*
X007263Y015991D01*
X007263Y015779D01*
X007051Y015779D01*
X006838Y015991D01*
X009543Y016589D02*
X009596Y016536D01*
X009702Y016536D01*
X009808Y016642D01*
X009914Y016642D01*
X009967Y016589D01*
X009967Y016483D01*
X009861Y016377D01*
X009755Y016377D01*
X009543Y016589D02*
X009543Y016695D01*
X009649Y016801D01*
X009755Y016801D01*
X010838Y015991D02*
X011051Y016203D01*
X010945Y016097D02*
X011263Y015779D01*
X000375Y005675D02*
X000377Y005535D01*
X000383Y005395D01*
X000393Y005255D01*
X000406Y005115D01*
X000424Y004976D01*
X000446Y004837D01*
X000471Y004700D01*
X000500Y004562D01*
X000533Y004426D01*
X000570Y004291D01*
X000611Y004157D01*
X000656Y004024D01*
X000704Y003892D01*
X000756Y003762D01*
X000811Y003633D01*
X000870Y003506D01*
X000933Y003380D01*
X000999Y003256D01*
X001068Y003135D01*
X001141Y003015D01*
X001218Y002897D01*
X001297Y002782D01*
X001380Y002668D01*
X001466Y002558D01*
X001555Y002449D01*
X001647Y002343D01*
X001742Y002240D01*
X001839Y002139D01*
X001940Y002042D01*
X002043Y001947D01*
X002149Y001855D01*
X002258Y001766D01*
X002368Y001680D01*
X002482Y001597D01*
X002597Y001518D01*
X002715Y001441D01*
X002835Y001368D01*
X002956Y001299D01*
X003080Y001233D01*
X003206Y001170D01*
X003333Y001111D01*
X003462Y001056D01*
X003592Y001004D01*
X003724Y000956D01*
X003857Y000911D01*
X003991Y000870D01*
X004126Y000833D01*
X004262Y000800D01*
X004400Y000771D01*
X004537Y000746D01*
X004676Y000724D01*
X004815Y000706D01*
X004955Y000693D01*
X005095Y000683D01*
X005235Y000677D01*
X005375Y000675D01*
X008159Y004488D02*
X008159Y004938D01*
X007933Y004713D01*
X008234Y004713D01*
X008394Y004488D02*
X008394Y004938D01*
X008544Y004788D01*
X008694Y004938D01*
X008694Y004488D01*
X008854Y004488D02*
X008854Y004938D01*
X008854Y004713D02*
X009154Y004713D01*
X009315Y004788D02*
X009615Y004788D01*
X009315Y004488D01*
X009615Y004488D01*
X009154Y004488D02*
X009154Y004938D01*
D15*
X002500Y002325D02*
X002500Y002225D01*
X002500Y004425D02*
X002500Y004525D01*
X016048Y018491D02*
X016148Y018491D01*
X016198Y018591D01*
X016398Y018591D01*
X016448Y018491D01*
X016898Y018491D01*
X016898Y018916D01*
X017048Y018916D01*
X017248Y018916D01*
X017248Y018816D01*
X017048Y018816D01*
X017048Y018916D01*
X017048Y019016D01*
X017473Y019016D01*
X017448Y018916D02*
X017373Y018916D01*
X017373Y018816D01*
X017448Y018816D01*
X017461Y018818D01*
X017473Y018823D01*
X017483Y018831D01*
X017491Y018841D01*
X017496Y018853D01*
X017498Y018866D01*
X017496Y018879D01*
X017491Y018891D01*
X017483Y018901D01*
X017473Y018909D01*
X017461Y018914D01*
X017448Y018916D01*
X017474Y019015D02*
X017496Y019012D01*
X017519Y019005D01*
X017539Y018994D01*
X017558Y018981D01*
X017575Y018965D01*
X017589Y018946D01*
X017600Y018926D01*
X017608Y018904D01*
X017612Y018881D01*
X017613Y018858D01*
X017610Y018835D01*
X017604Y018813D01*
X017595Y018792D01*
X017582Y018772D01*
X017567Y018755D01*
X017549Y018740D01*
X017548Y018741D02*
X017563Y018732D01*
X017576Y018721D01*
X017586Y018707D01*
X017594Y018692D01*
X017599Y018675D01*
X017600Y018658D01*
X017598Y018641D01*
X017598Y018666D02*
X017748Y019016D01*
X017848Y019016D01*
X018048Y018491D01*
X017948Y018491D01*
X017898Y018591D01*
X017698Y018591D01*
X017648Y018491D01*
X017473Y018491D01*
X017473Y018666D01*
X017471Y018679D01*
X017466Y018691D01*
X017458Y018701D01*
X017448Y018709D01*
X017436Y018714D01*
X017423Y018716D01*
X017373Y018716D01*
X017373Y018491D01*
X016923Y018491D01*
X016798Y018591D02*
X016798Y018916D01*
X016623Y018916D01*
X016623Y018591D01*
X016798Y018591D01*
X017048Y018616D02*
X017048Y018716D01*
X017248Y018716D01*
X017248Y018616D01*
X017048Y018616D01*
X016523Y018591D02*
X016523Y019016D01*
X016623Y019016D01*
X017048Y019016D01*
X016623Y019016D02*
X016623Y018916D01*
X016348Y019016D02*
X016523Y018591D01*
X016373Y018691D02*
X016223Y018691D01*
X016298Y018916D01*
X016373Y018691D01*
X016348Y019016D02*
X016248Y019016D01*
X016048Y018491D01*
X017723Y018691D02*
X017798Y018916D01*
X017873Y018691D01*
X017723Y018691D01*
X002500Y019225D02*
X002500Y019325D01*
X002500Y021425D02*
X002500Y021525D01*
X034500Y021525D02*
X034500Y021425D01*
X034500Y019325D02*
X034500Y019225D01*
X034500Y004525D02*
X034500Y004425D01*
X034500Y002325D02*
X034500Y002225D01*
D16*
X033909Y003375D02*
X033911Y003423D01*
X033917Y003471D01*
X033927Y003518D01*
X033940Y003564D01*
X033958Y003609D01*
X033978Y003653D01*
X034003Y003695D01*
X034031Y003734D01*
X034061Y003771D01*
X034095Y003805D01*
X034132Y003837D01*
X034170Y003866D01*
X034211Y003891D01*
X034254Y003913D01*
X034299Y003931D01*
X034345Y003945D01*
X034392Y003956D01*
X034440Y003963D01*
X034488Y003966D01*
X034536Y003965D01*
X034584Y003960D01*
X034632Y003951D01*
X034678Y003939D01*
X034723Y003922D01*
X034767Y003902D01*
X034809Y003879D01*
X034849Y003852D01*
X034887Y003822D01*
X034922Y003789D01*
X034954Y003753D01*
X034984Y003715D01*
X035010Y003674D01*
X035032Y003631D01*
X035052Y003587D01*
X035067Y003542D01*
X035079Y003495D01*
X035087Y003447D01*
X035091Y003399D01*
X035091Y003351D01*
X035087Y003303D01*
X035079Y003255D01*
X035067Y003208D01*
X035052Y003163D01*
X035032Y003119D01*
X035010Y003076D01*
X034984Y003035D01*
X034954Y002997D01*
X034922Y002961D01*
X034887Y002928D01*
X034849Y002898D01*
X034809Y002871D01*
X034767Y002848D01*
X034723Y002828D01*
X034678Y002811D01*
X034632Y002799D01*
X034584Y002790D01*
X034536Y002785D01*
X034488Y002784D01*
X034440Y002787D01*
X034392Y002794D01*
X034345Y002805D01*
X034299Y002819D01*
X034254Y002837D01*
X034211Y002859D01*
X034170Y002884D01*
X034132Y002913D01*
X034095Y002945D01*
X034061Y002979D01*
X034031Y003016D01*
X034003Y003055D01*
X033978Y003097D01*
X033958Y003141D01*
X033940Y003186D01*
X033927Y003232D01*
X033917Y003279D01*
X033911Y003327D01*
X033909Y003375D01*
X015893Y007417D02*
X015893Y012583D01*
X008361Y012583D01*
X008361Y007417D01*
X015893Y007417D01*
X001909Y003375D02*
X001911Y003423D01*
X001917Y003471D01*
X001927Y003518D01*
X001940Y003564D01*
X001958Y003609D01*
X001978Y003653D01*
X002003Y003695D01*
X002031Y003734D01*
X002061Y003771D01*
X002095Y003805D01*
X002132Y003837D01*
X002170Y003866D01*
X002211Y003891D01*
X002254Y003913D01*
X002299Y003931D01*
X002345Y003945D01*
X002392Y003956D01*
X002440Y003963D01*
X002488Y003966D01*
X002536Y003965D01*
X002584Y003960D01*
X002632Y003951D01*
X002678Y003939D01*
X002723Y003922D01*
X002767Y003902D01*
X002809Y003879D01*
X002849Y003852D01*
X002887Y003822D01*
X002922Y003789D01*
X002954Y003753D01*
X002984Y003715D01*
X003010Y003674D01*
X003032Y003631D01*
X003052Y003587D01*
X003067Y003542D01*
X003079Y003495D01*
X003087Y003447D01*
X003091Y003399D01*
X003091Y003351D01*
X003087Y003303D01*
X003079Y003255D01*
X003067Y003208D01*
X003052Y003163D01*
X003032Y003119D01*
X003010Y003076D01*
X002984Y003035D01*
X002954Y002997D01*
X002922Y002961D01*
X002887Y002928D01*
X002849Y002898D01*
X002809Y002871D01*
X002767Y002848D01*
X002723Y002828D01*
X002678Y002811D01*
X002632Y002799D01*
X002584Y002790D01*
X002536Y002785D01*
X002488Y002784D01*
X002440Y002787D01*
X002392Y002794D01*
X002345Y002805D01*
X002299Y002819D01*
X002254Y002837D01*
X002211Y002859D01*
X002170Y002884D01*
X002132Y002913D01*
X002095Y002945D01*
X002061Y002979D01*
X002031Y003016D01*
X002003Y003055D01*
X001978Y003097D01*
X001958Y003141D01*
X001940Y003186D01*
X001927Y003232D01*
X001917Y003279D01*
X001911Y003327D01*
X001909Y003375D01*
X015268Y016860D02*
X015110Y017018D01*
X015110Y020482D01*
X015268Y020640D01*
X018732Y020640D01*
X018890Y020482D01*
X018890Y017018D01*
X018732Y016860D01*
X015268Y016860D01*
X001909Y020375D02*
X001911Y020423D01*
X001917Y020471D01*
X001927Y020518D01*
X001940Y020564D01*
X001958Y020609D01*
X001978Y020653D01*
X002003Y020695D01*
X002031Y020734D01*
X002061Y020771D01*
X002095Y020805D01*
X002132Y020837D01*
X002170Y020866D01*
X002211Y020891D01*
X002254Y020913D01*
X002299Y020931D01*
X002345Y020945D01*
X002392Y020956D01*
X002440Y020963D01*
X002488Y020966D01*
X002536Y020965D01*
X002584Y020960D01*
X002632Y020951D01*
X002678Y020939D01*
X002723Y020922D01*
X002767Y020902D01*
X002809Y020879D01*
X002849Y020852D01*
X002887Y020822D01*
X002922Y020789D01*
X002954Y020753D01*
X002984Y020715D01*
X003010Y020674D01*
X003032Y020631D01*
X003052Y020587D01*
X003067Y020542D01*
X003079Y020495D01*
X003087Y020447D01*
X003091Y020399D01*
X003091Y020351D01*
X003087Y020303D01*
X003079Y020255D01*
X003067Y020208D01*
X003052Y020163D01*
X003032Y020119D01*
X003010Y020076D01*
X002984Y020035D01*
X002954Y019997D01*
X002922Y019961D01*
X002887Y019928D01*
X002849Y019898D01*
X002809Y019871D01*
X002767Y019848D01*
X002723Y019828D01*
X002678Y019811D01*
X002632Y019799D01*
X002584Y019790D01*
X002536Y019785D01*
X002488Y019784D01*
X002440Y019787D01*
X002392Y019794D01*
X002345Y019805D01*
X002299Y019819D01*
X002254Y019837D01*
X002211Y019859D01*
X002170Y019884D01*
X002132Y019913D01*
X002095Y019945D01*
X002061Y019979D01*
X002031Y020016D01*
X002003Y020055D01*
X001978Y020097D01*
X001958Y020141D01*
X001940Y020186D01*
X001927Y020232D01*
X001917Y020279D01*
X001911Y020327D01*
X001909Y020375D01*
X033909Y020375D02*
X033911Y020423D01*
X033917Y020471D01*
X033927Y020518D01*
X033940Y020564D01*
X033958Y020609D01*
X033978Y020653D01*
X034003Y020695D01*
X034031Y020734D01*
X034061Y020771D01*
X034095Y020805D01*
X034132Y020837D01*
X034170Y020866D01*
X034211Y020891D01*
X034254Y020913D01*
X034299Y020931D01*
X034345Y020945D01*
X034392Y020956D01*
X034440Y020963D01*
X034488Y020966D01*
X034536Y020965D01*
X034584Y020960D01*
X034632Y020951D01*
X034678Y020939D01*
X034723Y020922D01*
X034767Y020902D01*
X034809Y020879D01*
X034849Y020852D01*
X034887Y020822D01*
X034922Y020789D01*
X034954Y020753D01*
X034984Y020715D01*
X035010Y020674D01*
X035032Y020631D01*
X035052Y020587D01*
X035067Y020542D01*
X035079Y020495D01*
X035087Y020447D01*
X035091Y020399D01*
X035091Y020351D01*
X035087Y020303D01*
X035079Y020255D01*
X035067Y020208D01*
X035052Y020163D01*
X035032Y020119D01*
X035010Y020076D01*
X034984Y020035D01*
X034954Y019997D01*
X034922Y019961D01*
X034887Y019928D01*
X034849Y019898D01*
X034809Y019871D01*
X034767Y019848D01*
X034723Y019828D01*
X034678Y019811D01*
X034632Y019799D01*
X034584Y019790D01*
X034536Y019785D01*
X034488Y019784D01*
X034440Y019787D01*
X034392Y019794D01*
X034345Y019805D01*
X034299Y019819D01*
X034254Y019837D01*
X034211Y019859D01*
X034170Y019884D01*
X034132Y019913D01*
X034095Y019945D01*
X034061Y019979D01*
X034031Y020016D01*
X034003Y020055D01*
X033978Y020097D01*
X033958Y020141D01*
X033940Y020186D01*
X033927Y020232D01*
X033917Y020279D01*
X033911Y020327D01*
X033909Y020375D01*
D17*
X015314Y020325D02*
X015316Y020345D01*
X015321Y020365D01*
X015331Y020383D01*
X015343Y020400D01*
X015358Y020414D01*
X015376Y020424D01*
X015395Y020432D01*
X015415Y020436D01*
X015435Y020436D01*
X015455Y020432D01*
X015474Y020424D01*
X015492Y020414D01*
X015507Y020400D01*
X015519Y020383D01*
X015529Y020365D01*
X015534Y020345D01*
X015536Y020325D01*
X015534Y020305D01*
X015529Y020285D01*
X015519Y020267D01*
X015507Y020250D01*
X015492Y020236D01*
X015474Y020226D01*
X015455Y020218D01*
X015435Y020214D01*
X015415Y020214D01*
X015395Y020218D01*
X015376Y020226D01*
X015358Y020236D01*
X015343Y020250D01*
X015331Y020267D01*
X015321Y020285D01*
X015316Y020305D01*
X015314Y020325D01*
X015236Y012165D02*
X015238Y012199D01*
X015244Y012233D01*
X015254Y012266D01*
X015267Y012297D01*
X015285Y012327D01*
X015305Y012355D01*
X015329Y012380D01*
X015355Y012402D01*
X015383Y012420D01*
X015414Y012436D01*
X015446Y012448D01*
X015480Y012456D01*
X015514Y012460D01*
X015548Y012460D01*
X015582Y012456D01*
X015616Y012448D01*
X015648Y012436D01*
X015678Y012420D01*
X015707Y012402D01*
X015733Y012380D01*
X015757Y012355D01*
X015777Y012327D01*
X015795Y012297D01*
X015808Y012266D01*
X015818Y012233D01*
X015824Y012199D01*
X015826Y012165D01*
X015824Y012131D01*
X015818Y012097D01*
X015808Y012064D01*
X015795Y012033D01*
X015777Y012003D01*
X015757Y011975D01*
X015733Y011950D01*
X015707Y011928D01*
X015679Y011910D01*
X015648Y011894D01*
X015616Y011882D01*
X015582Y011874D01*
X015548Y011870D01*
X015514Y011870D01*
X015480Y011874D01*
X015446Y011882D01*
X015414Y011894D01*
X015383Y011910D01*
X015355Y011928D01*
X015329Y011950D01*
X015305Y011975D01*
X015285Y012003D01*
X015267Y012033D01*
X015254Y012064D01*
X015244Y012097D01*
X015238Y012131D01*
X015236Y012165D01*
D18*
X032164Y013898D02*
X032270Y013793D01*
X032164Y013898D02*
X032164Y014108D01*
X032270Y014213D01*
X032375Y014213D01*
X032795Y013793D01*
X032795Y014213D01*
X032690Y014437D02*
X032585Y014437D01*
X032480Y014542D01*
X032480Y014753D01*
X032585Y014858D01*
X032690Y014858D01*
X032795Y014753D01*
X032795Y014542D01*
X032690Y014437D01*
X032480Y014542D02*
X032375Y014437D01*
X032270Y014437D01*
X032164Y014542D01*
X032164Y014753D01*
X032270Y014858D01*
X032375Y014858D01*
X032480Y014753D01*
X032270Y015082D02*
X032690Y015082D01*
X032795Y015187D01*
X032795Y015397D01*
X032690Y015502D01*
X032795Y015726D02*
X032375Y016147D01*
X032270Y016147D01*
X032164Y016042D01*
X032164Y015831D01*
X032270Y015726D01*
X032270Y015502D02*
X032164Y015397D01*
X032164Y015187D01*
X032270Y015082D01*
X032795Y015726D02*
X032795Y016147D01*
X032690Y016371D02*
X032795Y016476D01*
X032795Y016686D01*
X032690Y016791D01*
X032480Y016791D01*
X032375Y016686D01*
X032375Y016581D01*
X032480Y016371D01*
X032164Y016371D01*
X032164Y016791D01*
X032480Y017015D02*
X032270Y017226D01*
X032164Y017436D01*
X032480Y017331D02*
X032480Y017015D01*
X032690Y017015D01*
X032795Y017121D01*
X032795Y017331D01*
X032690Y017436D01*
X032585Y017436D01*
X032480Y017331D01*
D19*
X010588Y004275D02*
X008288Y004275D01*
X008229Y004273D01*
X008171Y004267D01*
X008112Y004258D01*
X008055Y004244D01*
X007999Y004227D01*
X007944Y004206D01*
X007890Y004182D01*
X007838Y004154D01*
X007788Y004123D01*
X007740Y004089D01*
X007695Y004052D01*
X007652Y004011D01*
X007611Y003968D01*
X007574Y003923D01*
X007540Y003875D01*
X007509Y003825D01*
X007481Y003773D01*
X007457Y003719D01*
X007436Y003664D01*
X007419Y003608D01*
X007405Y003551D01*
X007396Y003492D01*
X007390Y003434D01*
X007388Y003375D01*
X007390Y003316D01*
X007396Y003258D01*
X007405Y003199D01*
X007419Y003142D01*
X007436Y003086D01*
X007457Y003031D01*
X007481Y002977D01*
X007509Y002925D01*
X007540Y002875D01*
X007574Y002827D01*
X007611Y002782D01*
X007652Y002739D01*
X007695Y002698D01*
X007740Y002661D01*
X007788Y002627D01*
X007838Y002596D01*
X007890Y002568D01*
X007944Y002544D01*
X007999Y002523D01*
X008055Y002506D01*
X008112Y002492D01*
X008171Y002483D01*
X008229Y002477D01*
X008288Y002475D01*
X010588Y002475D01*
X010647Y002477D01*
X010705Y002483D01*
X010764Y002492D01*
X010821Y002506D01*
X010877Y002523D01*
X010932Y002544D01*
X010986Y002568D01*
X011038Y002596D01*
X011088Y002627D01*
X011136Y002661D01*
X011181Y002698D01*
X011224Y002739D01*
X011265Y002782D01*
X011302Y002827D01*
X011336Y002875D01*
X011367Y002925D01*
X011395Y002977D01*
X011419Y003031D01*
X011440Y003086D01*
X011457Y003142D01*
X011471Y003199D01*
X011480Y003258D01*
X011486Y003316D01*
X011488Y003375D01*
X011486Y003434D01*
X011480Y003492D01*
X011471Y003551D01*
X011457Y003608D01*
X011440Y003664D01*
X011419Y003719D01*
X011395Y003773D01*
X011367Y003825D01*
X011336Y003875D01*
X011302Y003923D01*
X011265Y003968D01*
X011224Y004011D01*
X011181Y004052D01*
X011136Y004089D01*
X011088Y004123D01*
X011038Y004154D01*
X010986Y004182D01*
X010932Y004206D01*
X010877Y004227D01*
X010821Y004244D01*
X010764Y004258D01*
X010705Y004267D01*
X010647Y004273D01*
X010588Y004275D01*
M02*
