%
M48
M72
T01C0.0118
T02C0.0197
T03C0.0320
T04C0.0400
T05C0.1102
%
T01
X6063Y5125
X6438Y5125
X5500Y5313
X5313Y5625
X5563Y5875
X5563Y6250
X6000Y6188
X5813Y6750
X6188Y6750
X6125Y7250
X7063Y7813
X6750Y8188
X7188Y8563
X6813Y8750
X7188Y9125
X6438Y9875
X6125Y10125
X6500Y10875
X6938Y11438
X6063Y11625
X6438Y12000
X7188Y10625
X8625Y9875
X10125Y9875
X13063Y10000
X14500Y8813
X15125Y8500
X13000Y7875
X12375Y7688
X11750Y7688
X11875Y6188
X12313Y6000
X12125Y4875
X12750Y4563
X14250Y3938
X14563Y4250
X16000Y4500
X17000Y4875
X16063Y5375
X17250Y5938
X17938Y5500
X18500Y5875
X19000Y5688
X19938Y5688
X20375Y5563
X20625Y5188
X21500Y4500
X18313Y4813
X18000Y6375
X18875Y6938
X17688Y7375
X18875Y8375
X18500Y8500
X18250Y8813
X18000Y9125
X17688Y9375
X17188Y9625
X15625Y9875
X15188Y10875
X17125Y12250
X16875Y12750
X16375Y12875
X16438Y13313
X16125Y13625
X15500Y13875
X15125Y14000
X14750Y14125
X14375Y14250
X14000Y14250
X13625Y14625
X13313Y15125
X13063Y15500
X12375Y16125
X11250Y15375
X10813Y15375
X10563Y15625
X10313Y15375
X10063Y15625
X9813Y15375
X9563Y15625
X9313Y15375
X9063Y15625
X8813Y15375
X8563Y15625
X8813Y14125
X9063Y13875
X9313Y14125
X9563Y13875
X9813Y14125
X10063Y13875
X10313Y14125
X10563Y13875
X10813Y14125
X12000Y13875
X12188Y12313
X12500Y11875
X11250Y12438
X8563Y13875
X14125Y17375
X14000Y17750
X14000Y18375
X14250Y18750
X15313Y19313
X15563Y19625
X15250Y20063
X16375Y20500
X17000Y20375
X17063Y19875
X16500Y19875
X16000Y19250
X15500Y18875
X17375Y18438
X18750Y19063
X19813Y19313
X19813Y19750
X19813Y18813
X19750Y18375
X19750Y17750
X18688Y17625
X19500Y16750
X18563Y16000
X18250Y15813
X17938Y16000
X17625Y15813
X17250Y15938
X16500Y15813
X16125Y15563
X15500Y15563
X15125Y15875
X15063Y16375
X14500Y16750
X16563Y17063
X17000Y17000
X14750Y15313
X18313Y14875
X19000Y14625
X19375Y14625
X19688Y14438
X19938Y14125
X20250Y14375
X20250Y13625
X21063Y13063
X19813Y12375
X19813Y11375
X19313Y10875
X18625Y10375
X19875Y9938
X20250Y9938
X20625Y9938
X20688Y10625
X21188Y11625
X23250Y10875
X22750Y9875
X20125Y9250
X19750Y9250
X19625Y8813
X19500Y8438
X19563Y7938
X20063Y8500
X15250Y6125
X9438Y1563
X26313Y12125
X26625Y12375
X26125Y14375
X26250Y15438
X26750Y15375
X27125Y15875
X26625Y16875
X26250Y17375
X24688Y19063
X23813Y19063
X23063Y19813
X24438Y20375
X25688Y21375
X26625Y22375
X28000Y21875
X29000Y21000
X30500Y21125
X31000Y21125
X31188Y19188
X33000Y17875
X33438Y18313
X31000Y13375
X31250Y12375
X32375Y11375
X33000Y10375
X33750Y9375
X34000Y8375
X33375Y7375
X32875Y6375
X31000Y5875
X30688Y6875
X31313Y4875
X27125Y9375
X23313Y13063
X21625Y13875
X20188Y15750
X21563Y18813
X22563Y18875
X19313Y20688
X17938Y20438
X16063Y21563
X15625Y22000
X17500Y21813
X18000Y21813
X13875Y20063
X13438Y20375
X13438Y19688
X22750Y21563
X23250Y21938
T02
X22750Y19375
X29000Y19188
X34125Y9875
X14500Y21375
X13125Y14000
X14250Y12250
X14250Y11625
X13563Y11625
X11250Y11813
X7750Y13375
X7750Y14000
X13438Y7750
X14063Y7750
X13938Y6000
X13250Y5500
X12625Y5563
X13250Y4875
X6875Y6688
X6875Y7313
T03
X8488Y3375
X10388Y3375
X22250Y5375
X22250Y6375
X22250Y7375
X22250Y8375
X22250Y9375
X22250Y10375
X22250Y11375
X22250Y12375
X22250Y13375
X22250Y14375
X22250Y15375
X22250Y16375
X22250Y17375
X22250Y18375
X22250Y19375
X22250Y20375
X28250Y20375
X28250Y19375
X28250Y18375
X29500Y18375
X29500Y17375
X28250Y17375
X28250Y16375
X29500Y16375
X29500Y15375
X28250Y15375
X28250Y14375
X29500Y14375
X29500Y13375
X28250Y13375
X28250Y12375
X29500Y12375
X29500Y11375
X28250Y11375
X28250Y10375
X29500Y10375
X29500Y9375
X28250Y9375
X28250Y8375
X29500Y8375
X29500Y7375
X28250Y7375
X28250Y6375
X29500Y6375
X29500Y5375
X28250Y5375
X35500Y5375
X35500Y6375
X35500Y7375
X35500Y8375
X35500Y9375
X35500Y10375
X35500Y11375
X35500Y12375
X35500Y13375
X35500Y14375
X35500Y15375
X35500Y16375
X35500Y17375
X35500Y18375
T04
X5500Y1875
X5500Y2875
X4313Y6375
X3313Y6375
X2313Y6375
X1313Y6375
X1313Y7375
X2313Y7375
X3313Y7375
X4313Y7375
X4313Y8375
X3313Y8375
X2313Y8375
X1313Y8375
X1313Y9375
X2313Y9375
X3313Y9375
X4313Y9375
X4313Y10375
X3313Y10375
X2313Y10375
X1313Y10375
X1313Y11375
X2313Y11375
X3313Y11375
X4313Y11375
X4313Y12375
X3313Y12375
X2313Y12375
X1313Y12375
X1313Y13375
X2313Y13375
X3313Y13375
X4313Y13375
X4313Y14375
X3313Y14375
X2313Y14375
X1313Y14375
X1313Y15375
X2313Y15375
X3313Y15375
X4313Y15375
X4313Y16375
X3313Y16375
X2313Y16375
X1313Y16375
X1313Y17375
X2313Y17375
X3313Y17375
X4313Y17375
X6000Y17750
X7000Y17750
X8000Y17750
X9000Y17750
X10000Y17750
X11000Y17750
X12000Y17750
X13000Y17750
X13000Y18750
X12000Y18750
X11000Y18750
X10000Y18750
X9000Y18750
X8000Y18750
X7000Y18750
X6000Y18750
X7500Y20188
X8500Y20063
X9500Y20188
X10500Y20063
X11500Y20188
X12500Y20063
X12000Y21188
X11000Y21188
X10000Y21188
X9000Y21188
X8000Y21188
X7000Y21188
X6000Y21188
X6000Y22188
X7000Y22188
X8000Y22188
X9000Y22188
X10000Y22188
X11000Y22188
X12000Y22188
X13000Y22188
X13000Y21188
X20125Y21375
X21125Y21375
X29500Y20125
X30500Y20125
X31500Y20125
X32500Y20125
X32500Y2875
X31500Y2875
X30500Y2875
X29500Y2875
X28500Y2875
X27500Y2875
X26500Y2875
X25500Y2875
X24500Y2875
X23500Y2875
X22500Y2875
X21500Y2875
X20500Y2875
X19500Y2875
X18500Y2875
X17500Y2875
X16500Y2875
X15500Y2875
X14500Y2875
X13500Y2875
X13500Y1875
X14500Y1875
X15500Y1875
X16500Y1875
X17500Y1875
X18500Y1875
X19500Y1875
X20500Y1875
X21500Y1875
X22500Y1875
X23500Y1875
X24500Y1875
X25500Y1875
X26500Y1875
X27500Y1875
X28500Y1875
X29500Y1875
X30500Y1875
X31500Y1875
X32500Y1875
T05
X34303Y3572
X34303Y20178
X2697Y20178
X2697Y3572
M30
