G75*
%MOIN*%
%OFA0B0*%
%FSLAX24Y24*%
%IPPOS*%
%LPD*%
%AMOC8*
5,1,8,0,0,1.08239X$1,22.5*
%
%ADD10C,0.0040*%
%ADD11C,0.0050*%
%ADD12C,0.0060*%
%ADD13C,0.0030*%
D10*
X006915Y001859D02*
X006992Y001783D01*
X007222Y001783D01*
X007222Y001629D02*
X007222Y002089D01*
X006992Y002089D01*
X006915Y002013D01*
X006915Y001859D01*
X007375Y001859D02*
X007375Y002013D01*
X007452Y002089D01*
X007529Y002089D01*
X007682Y002013D01*
X007682Y002243D01*
X007375Y002243D01*
X007375Y001859D02*
X007452Y001783D01*
X007605Y001783D01*
X007682Y001859D01*
X007836Y001783D02*
X008143Y001783D01*
X007989Y001783D02*
X007989Y002243D01*
X008143Y002089D01*
X010846Y002050D02*
X010846Y001897D01*
X010923Y001820D01*
X011153Y001820D01*
X011153Y001667D02*
X011153Y002127D01*
X010923Y002127D01*
X010846Y002050D01*
X011306Y002050D02*
X011383Y002127D01*
X011460Y002127D01*
X011613Y002050D01*
X011613Y002280D01*
X011306Y002280D01*
X011306Y002050D02*
X011306Y001897D01*
X011383Y001820D01*
X011537Y001820D01*
X011613Y001897D01*
X011767Y001820D02*
X012074Y001820D01*
X011920Y001820D02*
X011920Y002280D01*
X012074Y002127D01*
X012611Y005533D02*
X012611Y005609D01*
X012304Y005916D01*
X012304Y005993D01*
X012611Y005993D01*
X012764Y005839D02*
X012995Y005686D01*
X012764Y005533D01*
X012995Y005533D02*
X012995Y005993D01*
X013225Y005993D02*
X013455Y005763D01*
X013148Y005763D01*
X013225Y005533D02*
X013225Y005993D01*
X011168Y006386D02*
X011091Y006309D01*
X010784Y006309D01*
X010708Y006386D01*
X010708Y006539D01*
X010784Y006616D01*
X010708Y006769D02*
X010708Y007076D01*
X010708Y007230D02*
X011168Y007230D01*
X010938Y007307D02*
X010708Y007537D01*
X010708Y007690D02*
X010708Y007844D01*
X010708Y007767D02*
X011168Y007767D01*
X011168Y007690D02*
X011168Y007844D01*
X011168Y007997D02*
X010708Y008304D01*
X011168Y008304D01*
X011168Y007997D02*
X010708Y007997D01*
X010543Y007997D02*
X010083Y007997D01*
X010236Y007997D02*
X010543Y008304D01*
X010313Y008074D02*
X010083Y008304D01*
X009918Y008304D02*
X009918Y007997D01*
X009918Y007844D02*
X009534Y007844D01*
X009458Y007767D01*
X009458Y007613D01*
X009534Y007537D01*
X009918Y007537D01*
X010083Y007537D02*
X010083Y007844D01*
X010083Y007537D02*
X010543Y007537D01*
X010466Y007383D02*
X010543Y007307D01*
X010543Y007153D01*
X010466Y007076D01*
X010159Y007076D01*
X010083Y007153D01*
X010083Y007307D01*
X010159Y007383D01*
X009918Y007307D02*
X009918Y007153D01*
X009841Y007076D01*
X009534Y007076D01*
X009458Y007153D01*
X009458Y007307D01*
X009534Y007383D01*
X009841Y007383D01*
X009918Y007307D01*
X009918Y006923D02*
X009611Y006616D01*
X009688Y006693D02*
X009458Y006923D01*
X009458Y006616D02*
X009918Y006616D01*
X010083Y006693D02*
X010083Y006846D01*
X010159Y006923D01*
X010236Y006923D01*
X010313Y006846D01*
X010313Y006693D01*
X010389Y006616D01*
X010466Y006616D01*
X010543Y006693D01*
X010543Y006846D01*
X010466Y006923D01*
X010708Y006769D02*
X011168Y006769D01*
X011091Y006616D02*
X011168Y006539D01*
X011168Y006386D01*
X010543Y006462D02*
X010466Y006462D01*
X010313Y006309D01*
X010083Y006309D01*
X009918Y006156D02*
X009458Y006156D01*
X009458Y006462D01*
X009534Y006002D02*
X009458Y005925D01*
X009458Y005772D01*
X009534Y005695D01*
X009841Y005695D01*
X009918Y005772D01*
X009918Y005925D01*
X009841Y006002D01*
X010083Y005925D02*
X010083Y005772D01*
X010159Y005695D01*
X010313Y005772D02*
X010313Y005925D01*
X010236Y006002D01*
X010159Y006002D01*
X010083Y005925D01*
X010313Y005772D02*
X010389Y005695D01*
X010466Y005695D01*
X010543Y005772D01*
X010543Y005925D01*
X010466Y006002D01*
X010466Y006156D02*
X010313Y006309D01*
X010466Y006156D02*
X010543Y006156D01*
X010159Y006616D02*
X010083Y006693D01*
X010861Y007230D02*
X011168Y007537D01*
X009918Y008151D02*
X009458Y008151D01*
X009451Y008833D02*
X009144Y008833D01*
X008991Y008833D02*
X008991Y009293D01*
X008914Y009063D02*
X008684Y008833D01*
X008991Y008986D02*
X008684Y009293D01*
X009451Y009293D02*
X009451Y008833D01*
X009604Y008909D02*
X009681Y008833D01*
X009835Y008833D01*
X009911Y008909D01*
X009911Y009216D01*
X009835Y009293D01*
X009681Y009293D01*
X009604Y009216D01*
X010065Y009216D02*
X010142Y009293D01*
X010295Y009293D01*
X010372Y009216D01*
X010372Y009139D01*
X010295Y009063D01*
X010142Y009063D01*
X010065Y008986D01*
X010065Y008909D01*
X010142Y008833D01*
X010295Y008833D01*
X010372Y008909D01*
X010679Y008833D02*
X010679Y009063D01*
X010525Y009216D01*
X010525Y009293D01*
X010679Y009063D02*
X010832Y009216D01*
X010832Y009293D01*
X010986Y009216D02*
X011062Y009293D01*
X011216Y009293D01*
X011293Y009216D01*
X011293Y009139D01*
X011216Y009063D01*
X011062Y009063D01*
X010986Y008986D01*
X010986Y008909D01*
X011062Y008833D01*
X011216Y008833D01*
X011293Y008909D01*
X013033Y009079D02*
X013340Y008772D01*
X013340Y008695D01*
X013494Y008695D02*
X013724Y008848D01*
X013494Y009002D01*
X013340Y009155D02*
X013033Y009155D01*
X013033Y009079D01*
X013724Y009155D02*
X013724Y008695D01*
X013954Y008695D02*
X013954Y009155D01*
X014184Y008925D01*
X013878Y008925D01*
X015302Y009550D02*
X015379Y009473D01*
X015533Y009473D01*
X015609Y009550D01*
X015609Y009857D01*
X015533Y009933D01*
X015379Y009933D01*
X015302Y009857D01*
X015763Y009857D02*
X015839Y009933D01*
X015993Y009933D01*
X016070Y009857D01*
X016070Y009780D01*
X015993Y009703D01*
X015839Y009703D01*
X015763Y009626D01*
X015763Y009550D01*
X015839Y009473D01*
X015993Y009473D01*
X016070Y009550D01*
X016223Y009550D02*
X016223Y009857D01*
X016300Y009933D01*
X016453Y009933D01*
X016530Y009857D01*
X016530Y009550D01*
X016453Y009473D01*
X016300Y009473D01*
X016223Y009550D01*
X016148Y009293D02*
X016301Y009293D01*
X016378Y009216D01*
X016378Y008909D01*
X016301Y008833D01*
X016148Y008833D01*
X016071Y008909D01*
X016160Y008599D02*
X016314Y008599D01*
X016390Y008522D01*
X016390Y008215D01*
X016314Y008138D01*
X016160Y008138D01*
X016083Y008215D01*
X016071Y007918D02*
X016378Y007611D01*
X016301Y007688D02*
X016071Y007458D01*
X016378Y007458D02*
X016378Y007918D01*
X016544Y008138D02*
X016697Y008292D01*
X016621Y008292D02*
X016851Y008292D01*
X017004Y008292D02*
X017004Y008215D01*
X017081Y008138D01*
X017234Y008138D01*
X017311Y008215D01*
X017465Y008215D02*
X017465Y008292D01*
X017541Y008368D01*
X017618Y008368D01*
X017541Y008368D02*
X017465Y008445D01*
X017465Y008522D01*
X017541Y008599D01*
X017695Y008599D01*
X017772Y008522D01*
X017925Y008522D02*
X017925Y008445D01*
X018232Y008138D01*
X017925Y008138D01*
X017772Y008215D02*
X017695Y008138D01*
X017541Y008138D01*
X017465Y008215D01*
X017311Y008445D02*
X017234Y008368D01*
X017081Y008368D01*
X017004Y008292D01*
X016851Y008138D02*
X016851Y008599D01*
X016621Y008599D01*
X016544Y008522D01*
X016544Y008368D01*
X016621Y008292D01*
X017004Y008522D02*
X017081Y008599D01*
X017234Y008599D01*
X017311Y008522D01*
X017311Y008445D01*
X017222Y008833D02*
X017068Y008833D01*
X016992Y008909D01*
X016992Y009216D01*
X017068Y009293D01*
X017222Y009293D01*
X017299Y009216D01*
X017299Y008909D01*
X017222Y008833D01*
X016838Y008909D02*
X016762Y008833D01*
X016608Y008833D01*
X016531Y008909D01*
X016531Y008986D01*
X016608Y009063D01*
X016762Y009063D01*
X016838Y009139D01*
X016838Y009216D01*
X016762Y009293D01*
X016608Y009293D01*
X016531Y009216D01*
X016148Y009293D02*
X016071Y009216D01*
X016160Y008599D02*
X016083Y008522D01*
X016838Y007918D02*
X016838Y007458D01*
X016531Y007458D01*
X016992Y007534D02*
X017068Y007458D01*
X017222Y007458D01*
X017299Y007534D01*
X017299Y007841D01*
X017222Y007918D01*
X017068Y007918D01*
X016992Y007841D01*
X017452Y007841D02*
X017529Y007918D01*
X017682Y007918D01*
X017759Y007841D01*
X017759Y007764D01*
X017682Y007688D01*
X017529Y007688D01*
X017452Y007611D01*
X017452Y007534D01*
X017529Y007458D01*
X017682Y007458D01*
X017759Y007534D01*
X018066Y007458D02*
X018066Y007688D01*
X017913Y007841D01*
X017913Y007918D01*
X018066Y007688D02*
X018219Y007841D01*
X018219Y007918D01*
X018373Y007841D02*
X018450Y007918D01*
X018603Y007918D01*
X018680Y007841D01*
X018680Y007764D01*
X018603Y007688D01*
X018450Y007688D01*
X018373Y007611D01*
X018373Y007534D01*
X018450Y007458D01*
X018603Y007458D01*
X018680Y007534D01*
X018539Y008138D02*
X018539Y008599D01*
X018692Y008599D02*
X018385Y008599D01*
X018232Y008522D02*
X018155Y008599D01*
X018002Y008599D01*
X017925Y008522D01*
X017988Y009473D02*
X018141Y009473D01*
X018218Y009550D01*
X018141Y009703D02*
X017988Y009703D01*
X017911Y009626D01*
X017911Y009550D01*
X017988Y009473D01*
X017758Y009473D02*
X017604Y009473D01*
X017681Y009473D02*
X017681Y009933D01*
X017758Y009933D02*
X017604Y009933D01*
X017451Y009857D02*
X017451Y009550D01*
X017374Y009473D01*
X017221Y009473D01*
X017144Y009550D01*
X017144Y009857D01*
X017221Y009933D01*
X017374Y009933D01*
X017451Y009857D01*
X017911Y009857D02*
X017988Y009933D01*
X018141Y009933D01*
X018218Y009857D01*
X018218Y009780D01*
X018141Y009703D01*
X016555Y010573D02*
X016095Y010573D01*
X016095Y010420D02*
X016095Y010727D01*
X016172Y010880D02*
X016479Y011187D01*
X016172Y011187D01*
X016095Y011111D01*
X016095Y010957D01*
X016172Y010880D01*
X016479Y010880D01*
X016555Y010957D01*
X016555Y011111D01*
X016479Y011187D01*
X016479Y011341D02*
X016172Y011341D01*
X016479Y011648D01*
X016172Y011648D01*
X016095Y011571D01*
X016095Y011418D01*
X016172Y011341D01*
X016479Y011341D02*
X016555Y011418D01*
X016555Y011571D01*
X016479Y011648D01*
X016402Y011801D02*
X016095Y011801D01*
X016402Y011801D02*
X016402Y012031D01*
X016325Y012108D01*
X016095Y012108D01*
X016555Y010573D02*
X016402Y010420D01*
X012930Y011588D02*
X012700Y011358D01*
X012700Y011664D01*
X012623Y011818D02*
X012777Y012048D01*
X012930Y012202D02*
X012930Y012508D01*
X012854Y012508D01*
X012547Y012202D01*
X012470Y012202D01*
X012470Y012048D02*
X012623Y011818D01*
X012470Y011818D02*
X012930Y011818D01*
X012930Y011588D02*
X012470Y011588D01*
X012168Y011589D02*
X012168Y011819D01*
X012091Y011896D01*
X011784Y011896D01*
X011708Y011819D01*
X011708Y011589D01*
X012168Y011589D01*
X011708Y011435D02*
X011708Y011128D01*
X012168Y011128D01*
X012091Y010975D02*
X011938Y010975D01*
X011861Y010898D01*
X011861Y010668D01*
X011708Y010668D02*
X012168Y010668D01*
X012168Y010898D01*
X012091Y010975D01*
X012091Y010514D02*
X012168Y010438D01*
X012168Y010284D01*
X012091Y010208D01*
X011784Y010208D01*
X011708Y010284D01*
X011708Y010438D01*
X011784Y010514D01*
X010847Y010502D02*
X010693Y010655D01*
X010693Y010195D01*
X010540Y010195D02*
X010847Y010195D01*
X010386Y010272D02*
X010079Y010579D01*
X010079Y010272D01*
X010156Y010195D01*
X010309Y010195D01*
X010386Y010272D01*
X010386Y010579D01*
X010309Y010655D01*
X010156Y010655D01*
X010079Y010579D01*
X009926Y010579D02*
X009849Y010655D01*
X009696Y010655D01*
X009619Y010579D01*
X009926Y010272D01*
X009849Y010195D01*
X009696Y010195D01*
X009619Y010272D01*
X009619Y010579D01*
X009465Y010502D02*
X009235Y010502D01*
X009158Y010425D01*
X009158Y010195D01*
X009465Y010195D02*
X009465Y010502D01*
X009926Y010579D02*
X009926Y010272D01*
X012263Y014483D02*
X012263Y014789D01*
X012186Y014943D02*
X012339Y015173D01*
X012493Y015327D02*
X012493Y015633D01*
X012416Y015633D01*
X012109Y015327D01*
X012033Y015327D01*
X012033Y015173D02*
X012186Y014943D01*
X012033Y014943D02*
X012493Y014943D01*
X012493Y014713D02*
X012033Y014713D01*
X012263Y014483D02*
X012493Y014713D01*
X015695Y017528D02*
X015695Y017835D01*
X015695Y017682D02*
X016155Y017682D01*
X016002Y017528D01*
X016079Y017989D02*
X015772Y017989D01*
X016079Y018296D01*
X015772Y018296D01*
X015695Y018219D01*
X015695Y018066D01*
X015772Y017989D01*
X016079Y017989D02*
X016155Y018066D01*
X016155Y018219D01*
X016079Y018296D01*
X016079Y018449D02*
X015772Y018449D01*
X016079Y018756D01*
X015772Y018756D01*
X015695Y018679D01*
X015695Y018526D01*
X015772Y018449D01*
X016079Y018449D02*
X016155Y018526D01*
X016155Y018679D01*
X016079Y018756D01*
X016002Y018910D02*
X015695Y018910D01*
X015695Y019217D02*
X015925Y019217D01*
X016002Y019140D01*
X016002Y018910D01*
X017454Y019533D02*
X017454Y019763D01*
X017531Y019839D01*
X017761Y019839D01*
X017761Y019533D01*
X017915Y019609D02*
X017915Y019916D01*
X018222Y019609D01*
X018145Y019533D01*
X017992Y019533D01*
X017915Y019609D01*
X018222Y019609D02*
X018222Y019916D01*
X018145Y019993D01*
X017992Y019993D01*
X017915Y019916D01*
X018375Y019916D02*
X018375Y019609D01*
X018452Y019533D01*
X018605Y019533D01*
X018682Y019609D01*
X018375Y019916D01*
X018452Y019993D01*
X018605Y019993D01*
X018682Y019916D01*
X018682Y019609D01*
X018836Y019533D02*
X019143Y019533D01*
X018989Y019533D02*
X018989Y019993D01*
X019143Y019839D01*
X018779Y020326D02*
X018472Y020326D01*
X018395Y020403D01*
X018395Y020557D01*
X018472Y020633D01*
X018779Y020633D01*
X018855Y020557D01*
X018855Y020403D01*
X018779Y020326D01*
X018779Y020787D02*
X018702Y020787D01*
X018625Y020863D01*
X018625Y021017D01*
X018548Y021094D01*
X018472Y021094D01*
X018395Y021017D01*
X018395Y020863D01*
X018472Y020787D01*
X018779Y020787D02*
X018855Y020863D01*
X018855Y021017D01*
X018779Y021094D01*
X018779Y021247D02*
X018472Y021247D01*
X018395Y021324D01*
X018395Y021477D01*
X018472Y021554D01*
X018276Y021770D02*
X017969Y021770D01*
X017815Y021770D02*
X017585Y021770D01*
X017508Y021847D01*
X017508Y022154D01*
X017585Y022230D01*
X017815Y022230D01*
X017815Y021770D01*
X018276Y021770D02*
X018276Y022230D01*
X018429Y022154D02*
X018429Y022000D01*
X018506Y021923D01*
X018736Y021923D01*
X018736Y021770D02*
X018736Y022230D01*
X018506Y022230D01*
X018429Y022154D01*
X018890Y022154D02*
X018966Y022230D01*
X019120Y022230D01*
X019197Y022154D01*
X019197Y021847D01*
X019120Y021770D01*
X018966Y021770D01*
X018890Y021847D01*
X018779Y021554D02*
X018855Y021477D01*
X018855Y021324D01*
X018779Y021247D01*
X016918Y020904D02*
X016918Y020827D01*
X016841Y020750D01*
X016687Y020750D01*
X016611Y020673D01*
X016611Y020597D01*
X016687Y020520D01*
X016841Y020520D01*
X016918Y020597D01*
X016918Y020904D02*
X016841Y020980D01*
X016687Y020980D01*
X016611Y020904D01*
X016457Y020904D02*
X016304Y020750D01*
X016304Y020520D01*
X016304Y020750D02*
X016150Y020904D01*
X016150Y020980D01*
X015997Y020904D02*
X015997Y020827D01*
X015920Y020750D01*
X015767Y020750D01*
X015690Y020673D01*
X015690Y020597D01*
X015767Y020520D01*
X015920Y020520D01*
X015997Y020597D01*
X015997Y020904D02*
X015920Y020980D01*
X015767Y020980D01*
X015690Y020904D01*
X015536Y020904D02*
X015536Y020597D01*
X015460Y020520D01*
X015306Y020520D01*
X015229Y020597D01*
X015229Y020904D01*
X015306Y020980D01*
X015460Y020980D01*
X015536Y020904D01*
X015076Y020904D02*
X014999Y020980D01*
X014846Y020980D01*
X014769Y020904D01*
X014616Y020904D02*
X014616Y020597D01*
X014539Y020520D01*
X014385Y020520D01*
X014309Y020597D01*
X014309Y020904D02*
X014385Y020980D01*
X014539Y020980D01*
X014616Y020904D01*
X014846Y020750D02*
X014769Y020673D01*
X014769Y020597D01*
X014846Y020520D01*
X014999Y020520D01*
X015076Y020597D01*
X014999Y020750D02*
X014846Y020750D01*
X014999Y020750D02*
X015076Y020827D01*
X015076Y020904D01*
X015667Y021770D02*
X015897Y022000D01*
X015974Y021923D02*
X015667Y022230D01*
X015974Y022230D02*
X015974Y021770D01*
X016127Y021770D02*
X016434Y021770D01*
X016434Y022230D01*
X016588Y022154D02*
X016664Y022230D01*
X016818Y022230D01*
X016895Y022154D01*
X016895Y021847D01*
X016818Y021770D01*
X016664Y021770D01*
X016588Y021847D01*
X016457Y020980D02*
X016457Y020904D01*
X017720Y018046D02*
X017950Y018046D01*
X018027Y017969D01*
X018027Y017739D01*
X017720Y017739D01*
X017797Y017585D02*
X017720Y017508D01*
X017720Y017355D01*
X017797Y017278D01*
X018104Y017585D01*
X017797Y017585D01*
X018104Y017585D02*
X018180Y017508D01*
X018180Y017355D01*
X018104Y017278D01*
X017797Y017278D01*
X017797Y017125D02*
X017720Y017048D01*
X017720Y016895D01*
X017797Y016818D01*
X018104Y017125D01*
X017797Y017125D01*
X018104Y017125D02*
X018180Y017048D01*
X018180Y016895D01*
X018104Y016818D01*
X017797Y016818D01*
X017720Y016664D02*
X017720Y016358D01*
X017720Y016511D02*
X018180Y016511D01*
X018027Y016358D01*
X022883Y016733D02*
X023343Y016733D01*
X023113Y016503D01*
X023113Y016810D01*
X023036Y016963D02*
X023189Y017194D01*
X023343Y017347D02*
X023343Y017654D01*
X023266Y017654D01*
X022959Y017347D01*
X022883Y017347D01*
X022883Y017194D02*
X023036Y016963D01*
X022883Y016963D02*
X023343Y016963D01*
X025633Y016949D02*
X025633Y017256D01*
X025633Y017103D02*
X026093Y017103D01*
X025939Y016949D01*
X025939Y017410D02*
X025709Y017410D01*
X025633Y017486D01*
X025633Y017717D01*
X025939Y017717D01*
X026720Y018170D02*
X026720Y018477D01*
X026720Y018630D02*
X027180Y018630D01*
X027027Y018861D02*
X026873Y018630D01*
X026720Y018861D01*
X026720Y018323D02*
X027180Y018323D01*
X027027Y018170D01*
X030445Y017785D02*
X030522Y017785D01*
X030829Y018092D01*
X030905Y018092D01*
X030905Y017785D01*
X030905Y017631D02*
X030598Y017324D01*
X030675Y017401D02*
X030445Y017631D01*
X030445Y017324D02*
X030905Y017324D01*
X030905Y017094D02*
X030445Y017094D01*
X030675Y017171D02*
X030675Y016864D01*
X030905Y017094D01*
X032954Y017533D02*
X032954Y017763D01*
X033031Y017839D01*
X033261Y017839D01*
X033261Y017533D01*
X033415Y017609D02*
X033492Y017533D01*
X033645Y017533D01*
X033722Y017609D01*
X033415Y017916D01*
X033415Y017609D01*
X033722Y017609D02*
X033722Y017916D01*
X033645Y017993D01*
X033492Y017993D01*
X033415Y017916D01*
X033875Y017916D02*
X034182Y017609D01*
X034105Y017533D01*
X033952Y017533D01*
X033875Y017609D01*
X033875Y017916D01*
X033952Y017993D01*
X034105Y017993D01*
X034182Y017916D01*
X034182Y017609D01*
X034336Y017533D02*
X034643Y017533D01*
X034489Y017533D02*
X034489Y017993D01*
X034643Y017839D01*
X032180Y018775D02*
X031950Y018545D01*
X031950Y018852D01*
X031873Y019005D02*
X032180Y019312D01*
X032180Y019466D02*
X032180Y019773D01*
X032104Y019773D01*
X031797Y019466D01*
X031720Y019466D01*
X031720Y019312D02*
X031950Y019082D01*
X032180Y019005D02*
X031720Y019005D01*
X031720Y018775D02*
X032180Y018775D01*
X027580Y020783D02*
X027273Y020783D01*
X027427Y020783D02*
X027427Y021243D01*
X027580Y021089D01*
X027120Y021166D02*
X027120Y020859D01*
X026813Y021166D01*
X026813Y020859D01*
X026889Y020783D01*
X027043Y020783D01*
X027120Y020859D01*
X027120Y021166D02*
X027043Y021243D01*
X026889Y021243D01*
X026813Y021166D01*
X026659Y021166D02*
X026582Y021243D01*
X026429Y021243D01*
X026352Y021166D01*
X026659Y020859D01*
X026582Y020783D01*
X026429Y020783D01*
X026352Y020859D01*
X026352Y021166D01*
X026199Y021089D02*
X025969Y021089D01*
X025892Y021013D01*
X025892Y020783D01*
X026199Y020783D02*
X026199Y021089D01*
X026659Y021166D02*
X026659Y020859D01*
X023340Y020851D02*
X023340Y021004D01*
X023263Y021081D01*
X022956Y020774D01*
X022880Y020851D01*
X022880Y021004D01*
X022956Y021081D01*
X023263Y021081D01*
X023340Y021235D02*
X022880Y021235D01*
X022880Y021542D02*
X023340Y021542D01*
X023186Y021388D01*
X023340Y021235D01*
X023340Y020851D02*
X023263Y020774D01*
X022956Y020774D01*
X023110Y020621D02*
X023110Y020314D01*
X023340Y020544D01*
X022880Y020544D01*
X022880Y021695D02*
X023340Y021695D01*
X023110Y021695D02*
X023110Y022002D01*
X023186Y022155D02*
X023186Y022462D01*
X022880Y022155D01*
X022880Y022462D01*
X022880Y022002D02*
X023340Y022002D01*
D11*
X023496Y022025D02*
X023496Y020706D01*
X025524Y020706D01*
X025524Y022025D01*
X023496Y022025D01*
X023243Y019855D02*
X023393Y019780D01*
X023543Y019630D01*
X023318Y019630D01*
X023243Y019555D01*
X023243Y019480D01*
X023318Y019405D01*
X023468Y019405D01*
X023543Y019480D01*
X023543Y019630D01*
X023703Y019405D02*
X024003Y019405D01*
X023853Y019405D02*
X023853Y019855D01*
X024003Y019705D01*
X024163Y019705D02*
X024163Y019780D01*
X024238Y019855D01*
X024464Y019855D01*
X024464Y019405D01*
X024238Y019405D01*
X024163Y019480D01*
X024163Y019555D01*
X024238Y019630D01*
X024464Y019630D01*
X024238Y019630D02*
X024163Y019705D01*
X028520Y019733D02*
X028520Y019508D01*
X028970Y019508D01*
X028970Y019733D01*
X028895Y019808D01*
X028820Y019808D01*
X028745Y019733D01*
X028745Y019508D01*
X028745Y019733D02*
X028670Y019808D01*
X028595Y019808D01*
X028520Y019733D01*
X028520Y019968D02*
X028520Y020268D01*
X028520Y020118D02*
X028970Y020118D01*
X028820Y019968D01*
X028745Y020428D02*
X028745Y020729D01*
X028520Y020653D02*
X028970Y020653D01*
X028745Y020428D01*
X015243Y021770D02*
X015243Y022220D01*
X015092Y022070D01*
X014942Y022220D01*
X014942Y021770D01*
X014782Y021770D02*
X014782Y022220D01*
X014557Y022220D01*
X014482Y022145D01*
X014482Y021995D01*
X014557Y021920D01*
X014782Y021920D01*
X014632Y021920D02*
X014482Y021770D01*
X014322Y021770D02*
X014021Y021770D01*
X013861Y021845D02*
X013786Y021770D01*
X013636Y021770D01*
X013561Y021845D01*
X013561Y022145D01*
X013636Y022220D01*
X013786Y022220D01*
X013861Y022145D01*
X013861Y021845D01*
X013711Y021920D02*
X013561Y021770D01*
X014021Y022220D02*
X014322Y022220D01*
X014322Y021770D01*
X014322Y021995D02*
X014172Y021995D01*
X014058Y020395D02*
X014133Y020320D01*
X014133Y020170D01*
X014058Y020095D01*
X013758Y020095D01*
X013683Y020170D01*
X013683Y020320D01*
X013758Y020395D01*
X014058Y020395D01*
X013508Y020395D02*
X013208Y020095D01*
X013283Y020170D02*
X013058Y020395D01*
X013058Y020095D02*
X013508Y020095D01*
X013433Y019934D02*
X013508Y019859D01*
X013508Y019709D01*
X013433Y019634D01*
X013133Y019634D01*
X013058Y019709D01*
X013058Y019859D01*
X013133Y019934D01*
X013683Y019859D02*
X013683Y019634D01*
X014133Y019634D01*
X014133Y019859D01*
X014058Y019934D01*
X013758Y019934D01*
X013683Y019859D01*
X013508Y019474D02*
X013508Y019174D01*
X013508Y019324D02*
X013058Y019324D01*
X013683Y019324D02*
X014133Y019324D01*
X014133Y019174D02*
X014133Y019474D01*
X006883Y019477D02*
X006433Y019477D01*
X006258Y019474D02*
X006258Y019174D01*
X006258Y019324D02*
X005808Y019324D01*
X005633Y019399D02*
X005633Y019249D01*
X005558Y019174D01*
X005258Y019174D01*
X005183Y019249D01*
X005183Y019399D01*
X005258Y019474D01*
X005408Y019474D01*
X005408Y019324D01*
X005558Y019474D02*
X005633Y019399D01*
X005633Y019634D02*
X005183Y019934D01*
X005633Y019934D01*
X005633Y020095D02*
X005633Y020320D01*
X005558Y020395D01*
X005258Y020395D01*
X005183Y020320D01*
X005183Y020095D01*
X005633Y020095D01*
X005808Y020170D02*
X005883Y020095D01*
X005808Y020170D02*
X005808Y020320D01*
X005883Y020395D01*
X005958Y020395D01*
X006033Y020320D01*
X006033Y020170D01*
X006108Y020095D01*
X006183Y020095D01*
X006258Y020170D01*
X006258Y020320D01*
X006183Y020395D01*
X006433Y020398D02*
X006433Y020248D01*
X006433Y020323D02*
X006883Y020323D01*
X006883Y020248D02*
X006883Y020398D01*
X006808Y020088D02*
X006508Y020088D01*
X006433Y020013D01*
X006433Y019788D01*
X006883Y019788D01*
X006883Y020013D01*
X006808Y020088D01*
X006883Y019628D02*
X006883Y019327D01*
X006258Y019634D02*
X006108Y019784D01*
X006258Y019934D01*
X005808Y019934D01*
X005808Y019634D02*
X006258Y019634D01*
X005633Y019634D02*
X005183Y019634D01*
X005008Y019709D02*
X004933Y019634D01*
X004633Y019634D01*
X004558Y019709D01*
X004558Y019859D01*
X004633Y019934D01*
X004633Y020095D02*
X004558Y020170D01*
X004558Y020320D01*
X004633Y020395D01*
X004933Y020395D02*
X005008Y020320D01*
X005008Y020170D01*
X004933Y020095D01*
X004633Y020095D01*
X004933Y019934D02*
X005008Y019859D01*
X005008Y019709D01*
X005008Y019474D02*
X004708Y019474D01*
X004558Y019324D01*
X004708Y019174D01*
X005008Y019174D01*
X005774Y014158D02*
X005624Y014008D01*
X005624Y013708D01*
X005699Y013533D02*
X005849Y013533D01*
X005924Y013458D01*
X005924Y013158D01*
X005849Y013083D01*
X005699Y013083D01*
X005624Y013158D01*
X005463Y013083D02*
X005463Y013383D01*
X005313Y013533D01*
X005163Y013383D01*
X005163Y013083D01*
X005163Y013308D02*
X005463Y013308D01*
X005624Y013458D02*
X005699Y013533D01*
X005924Y013708D02*
X005924Y014008D01*
X005774Y014158D01*
X005924Y013933D02*
X005624Y013933D01*
X006084Y014083D02*
X006084Y014158D01*
X006084Y014083D02*
X006234Y013933D01*
X006234Y013708D01*
X006234Y013933D02*
X006384Y014083D01*
X006384Y014158D01*
X006544Y014083D02*
X006619Y014158D01*
X006845Y014158D01*
X006845Y013708D01*
X006619Y013708D01*
X006544Y013783D01*
X006544Y014083D01*
X007005Y014083D02*
X007005Y013933D01*
X007080Y013858D01*
X007305Y013858D01*
X007155Y013858D02*
X007005Y013708D01*
X007080Y013533D02*
X007005Y013458D01*
X007080Y013533D02*
X007230Y013533D01*
X007305Y013458D01*
X007305Y013383D01*
X007230Y013308D01*
X007080Y013308D01*
X007005Y013233D01*
X007005Y013158D01*
X007080Y013083D01*
X007230Y013083D01*
X007305Y013158D01*
X006845Y013458D02*
X006694Y013308D01*
X006694Y013083D01*
X006694Y013308D02*
X006544Y013458D01*
X006544Y013533D01*
X006384Y013533D02*
X006084Y013083D01*
X006084Y013533D01*
X006384Y013533D02*
X006384Y013083D01*
X006845Y013458D02*
X006845Y013533D01*
X007305Y013708D02*
X007305Y014158D01*
X007080Y014158D01*
X007005Y014083D01*
X009186Y011970D02*
X009486Y011970D01*
X009336Y011970D02*
X009336Y011520D01*
X009646Y011520D02*
X009947Y011520D01*
X009947Y011970D01*
X010107Y011820D02*
X010107Y011520D01*
X010107Y011745D02*
X010407Y011745D01*
X010407Y011820D02*
X010407Y011520D01*
X010567Y011520D02*
X010567Y011970D01*
X010407Y011820D02*
X010257Y011970D01*
X010107Y011820D01*
X010567Y011745D02*
X010868Y011745D01*
X010868Y011520D02*
X010868Y011970D01*
X012280Y012792D02*
X012430Y012942D01*
X012280Y013092D01*
X012730Y013092D01*
X012580Y013252D02*
X012730Y013402D01*
X012580Y013553D01*
X012280Y013553D01*
X012280Y013713D02*
X012280Y013863D01*
X012280Y013788D02*
X012730Y013788D01*
X012730Y013713D02*
X012730Y013863D01*
X012730Y014020D02*
X012730Y014320D01*
X012730Y014170D02*
X012280Y014170D01*
X012505Y013553D02*
X012505Y013252D01*
X012580Y013252D02*
X012280Y013252D01*
X012280Y012792D02*
X012730Y012792D01*
X013395Y012941D02*
X013470Y012866D01*
X013395Y012941D02*
X013395Y013091D01*
X013470Y013166D01*
X013545Y013166D01*
X013620Y013091D01*
X013620Y012941D01*
X013695Y012866D01*
X013770Y012866D01*
X013845Y012941D01*
X013845Y013091D01*
X013770Y013166D01*
X013695Y013326D02*
X013845Y013476D01*
X013695Y013626D01*
X013395Y013626D01*
X013470Y013787D02*
X013395Y013862D01*
X013395Y014012D01*
X013470Y014087D01*
X013395Y014247D02*
X013845Y014247D01*
X013770Y014087D02*
X013845Y014012D01*
X013845Y013862D01*
X013770Y013787D01*
X013470Y013787D01*
X013620Y013626D02*
X013620Y013326D01*
X013695Y013326D02*
X013395Y013326D01*
X014020Y013093D02*
X014470Y013093D01*
X014470Y013393D01*
X014395Y013553D02*
X014320Y013553D01*
X014245Y013628D01*
X014245Y013778D01*
X014170Y013854D01*
X014095Y013854D01*
X014020Y013778D01*
X014020Y013628D01*
X014095Y013553D01*
X014395Y013553D02*
X014470Y013628D01*
X014470Y013778D01*
X014395Y013854D01*
X014470Y014014D02*
X014020Y014014D01*
X014245Y014014D02*
X014245Y014314D01*
X014470Y014314D02*
X014020Y014314D01*
X013845Y014547D02*
X013545Y014247D01*
X013620Y014322D02*
X013395Y014547D01*
X014645Y014110D02*
X014795Y013960D01*
X014720Y014110D02*
X014645Y014035D01*
X014645Y013885D01*
X014720Y013809D01*
X015020Y013809D01*
X015095Y013885D01*
X015095Y014035D01*
X015020Y014110D01*
X014720Y014110D01*
X014645Y013649D02*
X014645Y013349D01*
X015095Y013349D01*
X015095Y013649D01*
X014870Y013499D02*
X014870Y013349D01*
X014870Y013189D02*
X014795Y013114D01*
X014795Y012889D01*
X014795Y013039D02*
X014645Y013189D01*
X014870Y013189D02*
X015020Y013189D01*
X015095Y013114D01*
X015095Y012889D01*
X014645Y012889D01*
X014720Y012729D02*
X014645Y012653D01*
X014645Y012503D01*
X014720Y012428D01*
X014720Y012268D02*
X015095Y012268D01*
X015020Y012428D02*
X014945Y012428D01*
X014870Y012503D01*
X014870Y012653D01*
X014795Y012729D01*
X014720Y012729D01*
X014470Y012633D02*
X014470Y012858D01*
X014395Y012933D01*
X014245Y012933D01*
X014170Y012858D01*
X014170Y012633D01*
X014170Y012783D02*
X014020Y012933D01*
X014245Y013093D02*
X014245Y013243D01*
X013845Y012706D02*
X013470Y012706D01*
X013395Y012631D01*
X013395Y012480D01*
X013470Y012405D01*
X013845Y012405D01*
X013770Y012245D02*
X013695Y012245D01*
X013620Y012170D01*
X013620Y011945D01*
X013395Y011945D02*
X013395Y012170D01*
X013470Y012245D01*
X013545Y012245D01*
X013620Y012170D01*
X013770Y012245D02*
X013845Y012170D01*
X013845Y011945D01*
X013395Y011945D01*
X014020Y012633D02*
X014470Y012633D01*
X014720Y012268D02*
X014645Y012193D01*
X014645Y012043D01*
X014720Y011968D01*
X015095Y011968D01*
X015020Y011808D02*
X014945Y011808D01*
X014870Y011733D01*
X014870Y011508D01*
X014870Y011733D02*
X014795Y011808D01*
X014720Y011808D01*
X014645Y011733D01*
X014645Y011508D01*
X015095Y011508D01*
X015095Y011733D01*
X015020Y011808D01*
X015020Y012428D02*
X015095Y012503D01*
X015095Y012653D01*
X015020Y012729D01*
X015129Y010732D02*
X013101Y010732D01*
X013101Y009413D01*
X015129Y009413D01*
X015129Y010732D01*
X013118Y007533D02*
X012967Y007533D01*
X013042Y007533D02*
X013042Y007083D01*
X012967Y007083D02*
X013118Y007083D01*
X012811Y007083D02*
X012510Y007083D01*
X012350Y007158D02*
X012275Y007083D01*
X012125Y007083D01*
X012050Y007158D01*
X012050Y007458D01*
X012125Y007533D01*
X012275Y007533D01*
X012350Y007458D01*
X012350Y007158D01*
X012660Y007308D02*
X012811Y007308D01*
X012811Y007533D02*
X012510Y007533D01*
X012811Y007533D02*
X012811Y007083D01*
X014177Y006905D02*
X014327Y006905D01*
X014252Y006905D02*
X014252Y007355D01*
X014327Y007355D02*
X014177Y007355D01*
X014487Y007355D02*
X014787Y007355D01*
X014787Y006905D01*
X014487Y006905D01*
X014637Y007130D02*
X014787Y007130D01*
X014944Y006905D02*
X015094Y006905D01*
X015019Y006905D02*
X015019Y007355D01*
X015094Y007355D02*
X014944Y007355D01*
X015066Y006230D02*
X015066Y005855D01*
X014991Y005780D01*
X014841Y005780D01*
X014766Y005855D01*
X014766Y006230D01*
X014605Y006230D02*
X014305Y006230D01*
X014455Y006230D02*
X014455Y005780D01*
X014447Y005605D02*
X014748Y005305D01*
X014673Y005380D02*
X014447Y005155D01*
X014287Y005155D02*
X014137Y005155D01*
X014212Y005155D02*
X014212Y005605D01*
X014287Y005605D02*
X014137Y005605D01*
X013980Y005605D02*
X013680Y005155D01*
X013680Y005605D01*
X013980Y005605D02*
X013980Y005155D01*
X013980Y004980D02*
X013680Y004980D01*
X013830Y004980D02*
X013830Y004530D01*
X014141Y004605D02*
X014141Y004980D01*
X014441Y004980D02*
X014441Y004605D01*
X014366Y004530D01*
X014216Y004530D01*
X014141Y004605D01*
X014601Y004605D02*
X014601Y004905D01*
X014676Y004980D01*
X014826Y004980D01*
X014901Y004905D01*
X014901Y004605D01*
X014826Y004530D01*
X014676Y004530D01*
X014601Y004605D01*
X015061Y004530D02*
X015287Y004755D01*
X015362Y004680D02*
X015061Y004980D01*
X015208Y005155D02*
X014908Y005155D01*
X014748Y005155D02*
X014748Y005605D01*
X015208Y005605D02*
X015208Y005155D01*
X015368Y005230D02*
X015443Y005155D01*
X015593Y005155D01*
X015669Y005230D01*
X015669Y005530D01*
X015593Y005605D01*
X015443Y005605D01*
X015368Y005530D01*
X015301Y005780D02*
X015226Y005855D01*
X015226Y006155D01*
X015301Y006230D01*
X015451Y006230D01*
X015526Y006155D01*
X015526Y005855D01*
X015451Y005780D01*
X015301Y005780D01*
X015836Y005780D02*
X015836Y006230D01*
X015686Y006230D02*
X015987Y006230D01*
X016147Y006155D02*
X016222Y006230D01*
X016447Y006230D01*
X016447Y005780D01*
X016222Y005780D01*
X016147Y005855D01*
X016147Y006155D01*
X016607Y006230D02*
X016607Y005780D01*
X016757Y005930D01*
X016907Y005780D01*
X016907Y006230D01*
X016207Y004980D02*
X016282Y004905D01*
X016282Y004605D01*
X016207Y004530D01*
X016057Y004530D01*
X015982Y004605D01*
X015822Y004530D02*
X015522Y004530D01*
X015362Y004530D02*
X015362Y004980D01*
X015822Y004980D02*
X015822Y004530D01*
X015982Y004905D02*
X016057Y004980D01*
X016207Y004980D01*
X012243Y005458D02*
X011942Y005458D01*
X011782Y005608D02*
X011632Y005458D01*
X011482Y005608D01*
X011482Y005908D01*
X011782Y005908D02*
X011782Y005608D01*
X012092Y005683D02*
X012243Y005683D01*
X012243Y005908D02*
X012243Y005458D01*
X012243Y005908D02*
X011942Y005908D01*
X009384Y006418D02*
X009309Y006343D01*
X009159Y006343D01*
X009084Y006418D01*
X009084Y006493D01*
X009159Y006568D01*
X009309Y006568D01*
X009384Y006643D01*
X009384Y006718D01*
X009309Y006793D01*
X009159Y006793D01*
X009084Y006718D01*
X008924Y006718D02*
X008774Y006568D01*
X008774Y006343D01*
X008774Y006568D02*
X008624Y006718D01*
X008624Y006793D01*
X008464Y006793D02*
X008163Y006343D01*
X008163Y006793D01*
X008003Y006718D02*
X008003Y006418D01*
X007928Y006343D01*
X007778Y006343D01*
X007703Y006418D01*
X007543Y006343D02*
X007318Y006343D01*
X007243Y006418D01*
X007243Y006493D01*
X007318Y006568D01*
X007543Y006568D01*
X007703Y006718D02*
X007778Y006793D01*
X007928Y006793D01*
X008003Y006718D01*
X007853Y006968D02*
X007853Y007193D01*
X007703Y007343D01*
X007703Y007418D01*
X007543Y007418D02*
X007318Y007418D01*
X007243Y007343D01*
X007243Y007268D01*
X007318Y007193D01*
X007543Y007193D01*
X007543Y006968D02*
X007543Y007418D01*
X007318Y007193D02*
X007243Y007118D01*
X007243Y007043D01*
X007318Y006968D01*
X007543Y006968D01*
X007543Y006793D02*
X007318Y006793D01*
X007243Y006718D01*
X007243Y006643D01*
X007318Y006568D01*
X007543Y006343D02*
X007543Y006793D01*
X008163Y007043D02*
X008163Y007343D01*
X008238Y007418D01*
X008464Y007418D01*
X008464Y006968D01*
X008238Y006968D01*
X008163Y007043D01*
X008003Y007343D02*
X007853Y007193D01*
X008003Y007343D02*
X008003Y007418D01*
X008624Y007343D02*
X008624Y007193D01*
X008699Y007118D01*
X008924Y007118D01*
X008774Y007118D02*
X008624Y006968D01*
X008464Y006793D02*
X008464Y006343D01*
X008924Y006718D02*
X008924Y006793D01*
X008924Y006968D02*
X008924Y007418D01*
X008699Y007418D01*
X008624Y007343D01*
X032288Y010270D02*
X032588Y010270D01*
X032588Y010720D01*
X032288Y010720D01*
X032438Y010495D02*
X032588Y010495D01*
X032749Y010345D02*
X032824Y010270D01*
X032974Y010270D01*
X033049Y010345D01*
X033049Y010645D01*
X032974Y010720D01*
X032824Y010720D01*
X032749Y010645D01*
X033209Y010720D02*
X033359Y010570D01*
X033509Y010720D01*
X033509Y010270D01*
X033669Y010270D02*
X033669Y010570D01*
X033819Y010720D01*
X033970Y010570D01*
X033970Y010270D01*
X034130Y010270D02*
X034280Y010420D01*
X034205Y010420D02*
X034430Y010420D01*
X034430Y010270D02*
X034430Y010720D01*
X034205Y010720D01*
X034130Y010645D01*
X034130Y010495D01*
X034205Y010420D01*
X033970Y010495D02*
X033669Y010495D01*
X033209Y010720D02*
X033209Y010270D01*
D12*
X033855Y009994D02*
X033855Y009756D01*
X034006Y009605D01*
X034254Y009605D01*
X034395Y009746D01*
X034395Y009984D01*
X034395Y009994D02*
X034244Y010145D01*
X034006Y010145D01*
X033855Y009994D01*
X029129Y018918D02*
X028881Y018918D01*
X028730Y019069D01*
X028730Y019306D01*
X028881Y019458D01*
X029119Y019458D01*
X029270Y019306D01*
X029270Y019296D02*
X029270Y019059D01*
X029129Y018918D01*
X023020Y019246D02*
X022879Y019105D01*
X022631Y019105D01*
X022480Y019256D01*
X022480Y019494D01*
X022631Y019645D01*
X022869Y019645D01*
X023020Y019494D01*
X023020Y019484D02*
X023020Y019246D01*
X014770Y021246D02*
X014629Y021105D01*
X014381Y021105D01*
X014230Y021256D01*
X014230Y021494D01*
X014381Y021645D01*
X014619Y021645D01*
X014770Y021494D01*
X014770Y021484D02*
X014770Y021246D01*
X013244Y014270D02*
X013395Y014119D01*
X013395Y014109D02*
X013395Y013871D01*
X013254Y013730D01*
X013006Y013730D01*
X012855Y013881D01*
X012855Y014119D01*
X013006Y014270D01*
X013244Y014270D01*
X014131Y012520D02*
X013980Y012369D01*
X013980Y012131D01*
X014131Y011980D01*
X014379Y011980D01*
X014520Y012121D01*
X014520Y012359D01*
X014520Y012369D02*
X014369Y012520D01*
X014131Y012520D01*
X014131Y011895D02*
X013980Y011744D01*
X013980Y011506D01*
X014131Y011355D01*
X014379Y011355D01*
X014520Y011496D01*
X014520Y011734D01*
X014520Y011744D02*
X014369Y011895D01*
X014131Y011895D01*
X013833Y011744D02*
X013681Y011895D01*
X013444Y011895D01*
X013293Y011744D01*
X013293Y011506D01*
X013444Y011355D01*
X013691Y011355D01*
X013833Y011496D01*
X013833Y011734D01*
X011520Y011684D02*
X011379Y011543D01*
X011131Y011543D01*
X010980Y011694D01*
X010980Y011931D01*
X011131Y012083D01*
X011369Y012083D01*
X011520Y011931D01*
X011520Y011921D02*
X011520Y011684D01*
X011513Y010088D02*
X012113Y010088D01*
X012130Y010086D01*
X012147Y010082D01*
X012163Y010075D01*
X012177Y010065D01*
X012190Y010052D01*
X012200Y010038D01*
X012207Y010022D01*
X012211Y010005D01*
X012213Y009988D01*
X012213Y008888D01*
X012211Y008871D01*
X012207Y008854D01*
X012200Y008838D01*
X012190Y008824D01*
X012177Y008811D01*
X012163Y008801D01*
X012147Y008794D01*
X012130Y008790D01*
X012113Y008788D01*
X011513Y008788D01*
X011496Y008790D01*
X011479Y008794D01*
X011463Y008801D01*
X011449Y008811D01*
X011436Y008824D01*
X011426Y008838D01*
X011419Y008854D01*
X011415Y008871D01*
X011413Y008888D01*
X011413Y009988D01*
X011415Y010005D01*
X011419Y010022D01*
X011426Y010038D01*
X011436Y010052D01*
X011449Y010065D01*
X011463Y010075D01*
X011479Y010082D01*
X011496Y010086D01*
X011513Y010088D01*
X013319Y008020D02*
X013168Y007869D01*
X013168Y007631D01*
X013319Y007480D01*
X013566Y007480D01*
X013708Y007621D01*
X013708Y007859D01*
X013708Y007869D02*
X013556Y008020D01*
X013319Y008020D01*
X013793Y007869D02*
X013793Y007631D01*
X013944Y007480D01*
X014191Y007480D01*
X014333Y007621D01*
X014333Y007859D01*
X014333Y007869D02*
X014181Y008020D01*
X013944Y008020D01*
X013793Y007869D01*
X013819Y006270D02*
X013668Y006119D01*
X013668Y005881D01*
X013819Y005730D01*
X014066Y005730D01*
X014208Y005871D01*
X014208Y006109D01*
X014208Y006119D02*
X014056Y006270D01*
X013819Y006270D01*
X013369Y005770D02*
X013131Y005770D01*
X012980Y005619D01*
X012980Y005381D01*
X013131Y005230D01*
X013379Y005230D01*
X013520Y005371D01*
X013520Y005609D01*
X013520Y005619D02*
X013369Y005770D01*
X012895Y005681D02*
X012744Y005833D01*
X012506Y005833D01*
X012355Y005681D01*
X012355Y005444D01*
X012506Y005293D01*
X012754Y005293D01*
X012895Y005434D01*
X012895Y005671D01*
X013131Y005145D02*
X012980Y004994D01*
X012980Y004756D01*
X013131Y004605D01*
X013379Y004605D01*
X013520Y004746D01*
X013520Y004984D01*
X013520Y004994D02*
X013369Y005145D01*
X013131Y005145D01*
X007145Y006569D02*
X007145Y006816D01*
X007004Y006958D01*
X006766Y006958D01*
X006756Y006958D02*
X006605Y006806D01*
X006605Y006569D01*
X006756Y006418D01*
X006994Y006418D01*
X007145Y006569D01*
X006994Y007043D02*
X007145Y007194D01*
X007145Y007441D01*
X007004Y007583D01*
X006766Y007583D01*
X006756Y007583D02*
X006605Y007431D01*
X006605Y007194D01*
X006756Y007043D01*
X006994Y007043D01*
X007631Y013105D02*
X007879Y013105D01*
X008020Y013246D01*
X008020Y013484D01*
X008020Y013494D02*
X007869Y013645D01*
X007631Y013645D01*
X007480Y013494D01*
X007480Y013256D01*
X007631Y013105D01*
X007631Y013730D02*
X007879Y013730D01*
X008020Y013871D01*
X008020Y014109D01*
X008020Y014119D02*
X007869Y014270D01*
X007631Y014270D01*
X007480Y014119D01*
X007480Y013881D01*
X007631Y013730D01*
D13*
X023918Y015625D02*
X024165Y015871D01*
X024227Y015871D01*
X024288Y015810D01*
X024288Y015686D01*
X024227Y015625D01*
X023918Y015625D02*
X023918Y015871D01*
X023918Y015993D02*
X024288Y015993D01*
X023918Y016240D01*
X024288Y016240D01*
X024288Y016361D02*
X024288Y016608D01*
X024227Y016608D01*
X023980Y016361D01*
X023918Y016361D01*
X023980Y016729D02*
X024227Y016976D01*
X023980Y016976D01*
X023918Y016915D01*
X023918Y016791D01*
X023980Y016729D01*
X024227Y016729D01*
X024288Y016791D01*
X024288Y016915D01*
X024227Y016976D01*
X024227Y017098D02*
X024288Y017159D01*
X024288Y017283D01*
X024227Y017345D01*
X023980Y017098D01*
X023918Y017159D01*
X023918Y017283D01*
X023980Y017345D01*
X024227Y017345D01*
X024227Y017466D02*
X023980Y017466D01*
X024227Y017713D01*
X023980Y017713D01*
X023918Y017651D01*
X023918Y017528D01*
X023980Y017466D01*
X024227Y017466D02*
X024288Y017528D01*
X024288Y017651D01*
X024227Y017713D01*
X024227Y017098D02*
X023980Y017098D01*
M02*
